<?xml version="1.0" encoding="utf-8"?>
<!-- Generator: Adobe Illustrator 19.1.0, SVG Export Plug-In . SVG Version: 6.00 Build 0)  -->
<svg version="1.1" id="Layer_1" xmlns="http://www.w3.org/2000/svg" xmlns:xlink="http://www.w3.org/1999/xlink" x="0px" y="0px"
	 width="100px" height="100px" viewBox="0 0 100 100" enable-background="new 0 0 100 100" xml:space="preserve">
<g>
	<path d="M49.4,33.1c0,1.8-1.5,3.2-3.3,3.2c-1.8,0-3.3-1.4-3.3-3.2c0-1.8,1.5-3.2,3.3-3.2C47.9,29.9,49.4,31.4,49.4,33.1L49.4,33.1z
		"/>
	<path d="M63,62.8c-7.8,0-18.5,0-19.2,0l0-1.9c8.8,0,25.7,0.1,26.9,0c1.2-0.1,2.6-0.4,3.4-2.4l1.9,0.7c-0.9,2.3-2.7,3.5-5.2,3.6
		C70.3,62.8,67.1,62.8,63,62.8L63,62.8z"/>
	<path d="M57.9,44.7h-7.8v-1.3h7.6V40h-7.6v-1.3c0-0.8-0.6-1.4-1.4-1.4h-4.8c-0.6,0-1.2,0.4-1.4,0.9l0,0v0.5v7.2v1.5
		c0,1.5,1.2,2.7,2.8,2.7h10v1H40.7c-1.4,0-2.5-1.1-2.5-2.4V30.1c0-1.3,1.1-2.4,2.5-2.4h6.4v-3.4h-6.4c-3.3,0-6.1,2.6-6.1,5.8v18.4
		c0,3.2,2.7,5.8,6.1,5.8h14.5V59h5.5V47.3C60.7,45.9,59.5,44.7,57.9,44.7L57.9,44.7z"/>
	<polygon points="47.1,27.7 49.6,27.7 49.6,19.6 70.6,12 69.5,9.3 24,25.9 25.1,28.6 47.1,20.6 47.1,27.7 	"/>
	<path d="M27.1,69.6h10.7v4.4h-6.6l-0.4,2.6h0.7c3.7,0,6.8,2.5,6.8,6.8c0,4.7-3.4,7.3-7.9,7.3c-2.3,0-5.1-1-6.4-2.8l2.6-3.4
		c0.8,0.9,2.5,1.7,3.9,1.7c1.7,0,2.8-1.1,2.8-2.6c0-1.7-1.4-3-4-3c-1.5,0-3.1,0.3-3.7,0.5L27.1,69.6L27.1,69.6z"/>
	<path d="M47.9,69.4c5,0,7.5,4.1,7.5,10.6c0,6.5-2.4,10.6-7.4,10.6c-5,0-7.5-4.1-7.5-10.6C40.4,73.5,42.9,69.4,47.9,69.4L47.9,69.4z
		 M48,86.5c1.8,0,2.5-1.6,2.5-6.5c0-4.9-0.8-6.5-2.5-6.5c-1.7,0-2.5,1.7-2.5,6.5C45.4,84.8,46.4,86.5,48,86.5L48,86.5z"/>
	<path d="M64.7,69.4c5,0,7.5,4.1,7.5,10.6c0,6.5-2.4,10.6-7.4,10.6c-5,0-7.5-4.1-7.5-10.6C57.2,73.5,59.6,69.4,64.7,69.4L64.7,69.4z
		 M64.7,86.5c1.8,0,2.5-1.6,2.5-6.5c0-4.9-0.8-6.5-2.5-6.5c-1.7,0-2.5,1.7-2.5,6.5C62.1,84.8,63.2,86.5,64.7,86.5L64.7,86.5z"/>
</g>
</svg>
