<?xml version="1.0" encoding="utf-8"?>
<!-- Generator: Adobe Illustrator 19.1.0, SVG Export Plug-In . SVG Version: 6.00 Build 0)  -->
<svg version="1.1" id="Layer_1" xmlns="http://www.w3.org/2000/svg" xmlns:xlink="http://www.w3.org/1999/xlink" x="0px" y="0px"
	 width="100px" height="100px" viewBox="0 0 100 100" enable-background="new 0 0 100 100" xml:space="preserve">
<g>
	<path d="M9.6,41.9h4.7l0.1-17.7c-0.5,0.4-0.9,0.8-1.4,1.1l-4.4,2.9L7,25.6l8.2-5.1h3l-0.1,21.4h5.1v2.8H9.6V41.9L9.6,41.9z"/>
	<path d="M35.8,20c7,0,8.6,7,8.6,12.1c0,7.1-2.3,13.1-9.1,13.1c-6,0-8.5-4.5-8.5-12.1C26.8,26.7,29.1,20,35.8,20L35.8,20z
		 M35.5,42.2c3.6,0,4.8-4.4,4.8-9.6c0-6.3-1.4-9.5-4.6-9.5c-3.5,0-4.8,4.4-4.8,10C30.9,38.1,32.1,42.2,35.5,42.2L35.5,42.2z"/>
	<path d="M56.3,20c7,0,8.6,7,8.6,12.1c0,7.1-2.3,13.1-9.1,13.1c-6,0-8.5-4.5-8.5-12.1C47.3,26.7,49.6,20,56.3,20L56.3,20z M56,42.2
		c3.6,0,4.8-4.4,4.8-9.6c0-6.3-1.4-9.5-4.6-9.5c-3.5,0-4.8,4.4-4.8,10C51.4,38.1,52.5,42.2,56,42.2L56,42.2z"/>
	<polygon points="67.7,41.9 70.1,41.9 70.2,23.4 67.7,23.4 67.7,20.5 76.6,20.5 76.6,23.4 74.1,23.4 74.1,31.8 83.6,23.4 81,23.4 
		81,20.5 90,20.5 90,23.4 88.1,23.4 78.1,32.1 88.4,41.9 90.4,41.9 90.4,44.7 80.7,44.7 80.7,41.9 83.2,41.9 74.1,33.1 74,41.9 
		76.6,41.9 76.6,44.7 67.7,44.7 67.7,41.9 	"/>
	<path d="M7.4,52h4.5v1.4h-1.2l2.9,8c0.1,0.3,0.2,0.7,0.3,1.1h0c0.1-0.3,0.2-0.7,0.3-1.1l2.8-8h-1.4V52H20v1.4H19l-4.2,10.7h-2.1
		L8.5,53.4H7.4V52L7.4,52z"/>
	<polygon points="20.9,62.7 22.1,62.7 22.2,53.4 20.8,53.4 20.8,52 29.3,52 29.4,55.2 27.8,55.2 27.7,53.4 24.2,53.4 24.1,57.2 
		27.6,57.2 27.6,58.7 24.1,58.7 24.1,62.7 27.8,62.7 27.9,60.7 29.5,60.7 29.4,64.1 20.9,64.1 20.9,62.7 	"/>
	<path d="M31.1,62.7h1.2l0.1-9.3h-1.3V52h5.4c2.5,0,3.7,1.4,3.7,3.2c0,2.1-1.3,3-2.9,3.2v0c0.7,0.1,1.1,0.6,1.5,1.3l1.3,2.2
		c0.3,0.6,0.7,0.7,1.1,0.7h0.5v1.4h-1.1c-1,0-1.5-0.1-2.2-1.3L36.6,60c-0.5-0.9-0.8-1.1-1.3-1.1h-1l0,3.7h1.4v1.4h-4.5V62.7
		L31.1,62.7z M35.8,57.4c1.4,0,2.3-0.7,2.3-2c0-1.3-0.8-2-2.2-2h-1.6l0,4H35.8L35.8,57.4z"/>
	<polygon points="45,62.7 46.2,62.7 46.3,53.4 43.4,53.4 43.4,55.2 41.6,55.2 41.7,52 52.7,52 52.8,55.2 51,55.2 51,53.4 48.2,53.4 
		48.1,62.7 49.5,62.7 49.5,64.1 45,64.1 45,62.7 	"/>
	<polygon points="53.9,62.7 55.2,62.7 55.2,53.4 53.9,53.4 53.9,52 58.4,52 58.4,53.4 57.2,53.4 57.1,62.7 58.4,62.7 58.4,64.1 
		53.9,64.1 53.9,62.7 	"/>
	<path d="M68.5,55.6v-1.9c-0.5-0.1-1.1-0.3-2.1-0.3c-2.9,0-4.4,1.8-4.4,4.8c0,2.8,1.7,4.7,4.1,4.7c0.8,0,1.7-0.1,2.2-0.2l0.1-2.2
		h1.7l-0.1,3.3c-0.8,0.3-2.3,0.6-3.8,0.6c-4.3,0-6.4-2.7-6.4-6.1c0-3.8,2.5-6.4,6.6-6.4c1.5,0,3,0.3,3.8,0.7v3.1H68.5L68.5,55.6z"/>
	<path d="M70.9,62.7h1L76.3,52h2.1l4.1,10.7h1.1v1.4h-4.4v-1.4h1.1l-1-3H75l-1.1,3h1.2v1.4h-4.2V62.7L70.9,62.7z M77.5,54.7
		c-0.2-0.5-0.3-0.8-0.3-1.1h0c-0.1,0.2-0.1,0.6-0.3,1.1l-1.3,3.4h3.2L77.5,54.7L77.5,54.7z"/>
	<polygon points="84.4,62.7 85.7,62.7 85.7,53.4 84.4,53.4 84.4,52 88.9,52 88.9,53.4 87.7,53.4 87.6,62.7 91.2,62.7 91.4,60.7 
		93,60.7 92.8,64.1 84.4,64.1 84.4,62.7 	"/>
	<path d="M15.5,78.4h1.2l0.1-9.3h-1.4v-1.4h4l3.5,9c0.1,0.3,0.2,0.7,0.3,1h0c0.1-0.3,0.2-0.7,0.3-1l3.5-9h3.8v1.4h-1.4l0.1,9.3h1.3
		v1.4h-4.4v-1.4h1.2l0.1-8.2l-0.1,0c-0.2,0.5-0.3,1.1-0.5,1.6l-3.1,8H22l-3-7.7c-0.2-0.6-0.4-1.2-0.5-1.9h0l-0.1,8.1h1.4v1.4h-4.2
		V78.4L15.5,78.4z"/>
	<polygon points="32,78.4 33.3,78.4 33.3,69.1 31.9,69.1 31.9,67.7 40.4,67.7 40.5,70.9 38.9,70.9 38.8,69.1 35.3,69.1 35.2,72.8 
		38.7,72.8 38.7,74.4 35.2,74.4 35.2,78.4 38.9,78.4 39,76.4 40.7,76.4 40.5,79.8 32,79.8 32,78.4 	"/>
	<polygon points="45.2,78.4 46.4,78.4 46.5,69.1 43.7,69.1 43.6,70.9 41.9,70.9 41.9,67.7 52.9,67.7 53,70.9 51.3,70.9 51.2,69.1 
		48.4,69.1 48.3,78.4 49.8,78.4 49.8,79.8 45.2,79.8 45.2,78.4 	"/>
	<path d="M54,78.4h1.2l0.1-9.3H54v-1.4h5.4c2.5,0,3.7,1.4,3.7,3.2c0,2.1-1.3,3-2.9,3.2v0c0.7,0.1,1.1,0.6,1.5,1.3l1.3,2.2
		c0.3,0.6,0.7,0.7,1.1,0.7h0.5v1.4h-1.1c-1,0-1.5-0.1-2.2-1.3l-1.7-2.8c-0.5-0.9-0.8-1.1-1.3-1.1h-1l0,3.7h1.4v1.4H54V78.4L54,78.4z
		 M58.7,73.1c1.4,0,2.3-0.7,2.3-2c0-1.3-0.8-2-2.2-2h-1.6l0,4H58.7L58.7,73.1z"/>
	<polygon points="65.3,78.4 66.6,78.4 66.6,69.1 65.2,69.1 65.2,67.7 73.7,67.7 73.8,70.9 72.2,70.9 72.1,69.1 68.6,69.1 68.5,72.8 
		72,72.8 72,74.4 68.5,74.4 68.5,78.4 72.2,78.4 72.3,76.4 74,76.4 73.8,79.8 65.3,79.8 65.3,78.4 	"/>
	<path d="M77.7,76.4V78c0.4,0.2,1.2,0.4,2.2,0.4c1.5,0,2.6-0.7,2.6-2c0-1-0.6-1.3-1.9-1.7l-2.1-0.6C77,73.8,75.8,73,75.8,71
		c0-2.4,2-3.5,4.6-3.5c1.6,0,2.8,0.3,3.7,0.6v2.7h-1.8v-1.5c-0.3-0.1-0.9-0.3-1.8-0.3c-1.8,0-2.5,0.8-2.5,1.7c0,1.1,0.8,1.4,1.9,1.7
		l1.9,0.5c1.4,0.4,2.9,1.1,2.9,3.3c0,2.4-1.8,3.8-4.7,3.8c-0.9,0-3-0.2-4.1-0.6v-2.9H77.7L77.7,76.4z"/>
</g>
</svg>
