<?xml version="1.0" encoding="utf-8"?>
<!-- Generator: Adobe Illustrator 19.1.0, SVG Export Plug-In . SVG Version: 6.00 Build 0)  -->
<svg version="1.1" id="Layer_1" xmlns="http://www.w3.org/2000/svg" xmlns:xlink="http://www.w3.org/1999/xlink" x="0px" y="0px"
	 width="100px" height="100px" viewBox="0 0 100 100" enable-background="new 0 0 100 100" xml:space="preserve">
<g>
	<path d="M49.4,32.5c0,1.8-1.5,3.3-3.3,3.3c-1.8,0-3.3-1.5-3.3-3.3c0-1.8,1.5-3.3,3.3-3.3C47.9,29.2,49.4,30.7,49.4,32.5L49.4,32.5z
		"/>
	<path d="M63,63.3c-7.8,0-18.5,0-19.2,0l0-2c8.8,0,25.7,0.1,26.9,0c1.2-0.1,2.6-0.4,3.4-2.5l1.9,0.7c-0.9,2.4-2.7,3.6-5.2,3.8
		C70.3,63.3,67.1,63.3,63,63.3L63,63.3z"/>
	<path d="M57.9,44.5h-7.8v-1.4h7.6v-3.5h-7.6v-1.4c0-0.8-0.6-1.4-1.4-1.4h-4.8c-0.6,0-1.2,0.4-1.4,0.9l0,0v0.5v7.5v1.6
		c0,1.5,1.2,2.8,2.8,2.8h10v1H40.7c-1.4,0-2.5-1.1-2.5-2.5V29.4c0-1.4,1.1-2.5,2.5-2.5h6.4v-3.5h-6.4c-3.3,0-6.1,2.7-6.1,6v19.1
		c0,3.3,2.7,6,6.1,6h14.5v4.8h5.5V47.3C60.7,45.8,59.5,44.5,57.9,44.5L57.9,44.5z"/>
	<polygon points="47.1,26.9 49.6,26.9 49.6,18.5 70.6,10.6 69.5,7.8 24,25 25.1,27.8 47.1,19.5 47.1,26.9 	"/>
	<polygon points="39.8,70.4 43.2,70.4 43.2,92 38.5,92 38.5,77 36.4,78.5 34,74.7 39.8,70.4 	"/>
	<path d="M54.3,70.2c5,0,7.5,4.3,7.5,11c0,6.7-2.4,11-7.4,11c-5,0-7.5-4.3-7.5-11C46.9,74.5,49.3,70.2,54.3,70.2L54.3,70.2z
		 M54.4,87.9c1.8,0,2.5-1.7,2.5-6.7c0-5.1-0.8-6.7-2.5-6.7c-1.7,0-2.5,1.8-2.5,6.7C51.8,86.2,52.8,87.9,54.4,87.9L54.4,87.9z"/>
</g>
</svg>
