<?xml version="1.0" encoding="utf-8"?>
<!-- Generator: Adobe Illustrator 19.1.0, SVG Export Plug-In . SVG Version: 6.00 Build 0)  -->
<svg version="1.1" id="Layer_1" xmlns="http://www.w3.org/2000/svg" xmlns:xlink="http://www.w3.org/1999/xlink" x="0px" y="0px"
	 width="100px" height="100px" viewBox="0 0 100 100" enable-background="new 0 0 100 100" xml:space="preserve">
<g>
	<path d="M9,40.1h4.4l0.1-16.7c-0.5,0.4-0.9,0.8-1.3,1.1l-4.1,2.7l-1.5-2.5l7.7-4.7h2.9l-0.1,20.1h4.7v2.7H9V40.1L9,40.1z"/>
	<path d="M34.6,40.1h2.3l0.1-17.4h-2.6V20H42l6.6,16.9c0.2,0.6,0.4,1.2,0.5,1.9h0.1c0.2-0.6,0.3-1.3,0.5-1.9L56.1,20h7.1v2.7h-2.6
		l0.1,17.4h2.5v2.7h-8.3v-2.7h2.2l0.1-15.4l-0.1-0.1c-0.3,1-0.5,2-0.9,3l-5.8,15.1h-3.6l-5.7-14.5c-0.5-1.1-0.7-2.3-1-3.5h-0.1
		L40,40.1h2.6v2.7h-7.9V40.1L34.6,40.1z"/>
	<polygon points="65.7,40.1 68,40.1 68.2,22.7 65.7,22.7 65.7,20 74.1,20 74.1,22.7 71.8,22.7 71.7,40.1 74.1,40.1 74.1,42.7 
		65.7,42.7 65.7,40.1 	"/>
	<polygon points="76.9,40.1 79.2,40.1 79.3,22.7 76.9,22.7 76.9,20 85.3,20 85.3,22.7 83,22.7 82.9,40.1 89.6,40.1 89.9,36.2 
		93,36.2 92.7,42.7 76.9,42.7 76.9,40.1 	"/>
	<path d="M4.8,50.4h4.8v1.5H8.3l3.1,8.5c0.1,0.3,0.2,0.7,0.3,1.1h0c0.1-0.4,0.2-0.8,0.3-1.1l3-8.5h-1.5v-1.5h4.7v1.5H17l-4.4,11.3
		h-2.3L5.9,51.9H4.8V50.4L4.8,50.4z"/>
	<polygon points="19.1,61.7 20.3,61.7 20.4,51.9 18.9,51.9 18.9,50.4 27.9,50.4 28,53.8 26.3,53.8 26.2,51.9 22.5,51.9 22.4,55.9 
		26.1,55.9 26.1,57.5 22.4,57.5 22.4,61.7 26.3,61.7 26.4,59.6 28.2,59.6 28,63.2 19.1,63.2 19.1,61.7 	"/>
	<path d="M29.8,61.7H31l0.1-9.8h-1.3v-1.5h5.7c2.6,0,3.9,1.5,3.9,3.4c0,2.2-1.4,3.2-3,3.4v0c0.7,0.1,1.2,0.7,1.6,1.4l1.4,2.3
		c0.4,0.6,0.7,0.8,1.1,0.8h0.5v1.5h-1.2c-1.1,0-1.6-0.1-2.3-1.4l-1.8-3c-0.5-0.9-0.8-1.1-1.4-1.1h-1.1l0,3.9h1.5v1.5h-4.8V61.7
		L29.8,61.7z M34.7,56.2c1.4,0,2.5-0.8,2.5-2.1c0-1.3-0.8-2.1-2.3-2.1h-1.7l0,4.2H34.7L34.7,56.2z"/>
	<polygon points="44.4,61.7 45.8,61.7 45.8,51.9 42.9,51.9 42.8,53.8 41,53.8 41,50.4 52.6,50.4 52.7,53.8 50.9,53.8 50.8,51.9 
		47.9,51.9 47.8,61.7 49.3,61.7 49.3,63.2 44.4,63.2 44.4,61.7 	"/>
	<polygon points="53.9,61.7 55.2,61.7 55.3,51.9 53.9,51.9 53.9,50.4 58.7,50.4 58.7,51.9 57.4,51.9 57.3,61.7 58.7,61.7 58.7,63.2 
		53.9,63.2 53.9,61.7 	"/>
	<path d="M69.4,54.2v-2c-0.5-0.1-1.2-0.3-2.2-0.3c-3.1,0-4.6,1.9-4.6,5.1c0,2.9,1.8,5,4.4,5c0.9,0,1.8-0.1,2.3-0.2l0.1-2.3h1.8
		L71,62.8c-0.8,0.3-2.5,0.6-4,0.6c-4.6,0-6.8-2.9-6.8-6.5c0-4,2.7-6.7,6.9-6.7c1.6,0,3.1,0.3,4,0.7v3.3H69.4L69.4,54.2z"/>
	<path d="M71.8,61.7h1.1l4.6-11.3h2.3l4.3,11.3h1.1v1.5h-4.7v-1.5h1.2l-1.1-3.2h-4.5L75,61.7h1.3v1.5h-4.5V61.7L71.8,61.7z
		 M78.9,53.3c-0.2-0.6-0.3-0.9-0.3-1.2h0c-0.1,0.3-0.1,0.6-0.3,1.2l-1.4,3.6h3.4L78.9,53.3L78.9,53.3z"/>
	<polygon points="86.2,61.7 87.5,61.7 87.6,51.9 86.2,51.9 86.2,50.4 90.9,50.4 90.9,51.9 89.6,51.9 89.5,61.7 93.3,61.7 93.5,59.6 
		95.2,59.6 95.1,63.2 86.2,63.2 86.2,61.7 	"/>
	<path d="M13.3,78.3h1.3l0.1-9.8h-1.4V67h4.2l3.7,9.5c0.1,0.3,0.2,0.7,0.3,1h0c0.1-0.3,0.2-0.7,0.3-1l3.7-9.5h4v1.5H28l0.1,9.8h1.4
		v1.5h-4.7v-1.5H26l0.1-8.6l-0.1,0c-0.2,0.6-0.3,1.2-0.5,1.7l-3.3,8.5h-2.1L17,71.6c-0.3-0.6-0.4-1.3-0.6-2h0l-0.1,8.6h1.4v1.5h-4.5
		V78.3L13.3,78.3z"/>
	<polygon points="30.8,78.3 32.1,78.3 32.2,68.5 30.7,68.5 30.7,67 39.7,67 39.7,70.3 38,70.3 37.9,68.5 34.2,68.5 34.2,72.4 
		37.8,72.4 37.8,74 34.2,74 34.2,78.3 38,78.3 38.2,76.2 39.9,76.2 39.8,79.8 30.8,79.8 30.8,78.3 	"/>
	<polygon points="44.7,78.3 46,78.3 46.1,68.5 43.1,68.5 43,70.3 41.2,70.3 41.3,67 52.9,67 52.9,70.3 51.1,70.3 51,68.5 48.1,68.5 
		48,78.3 49.5,78.3 49.5,79.8 44.7,79.8 44.7,78.3 	"/>
	<path d="M54,78.3h1.3l0.1-9.8H54V67h5.7c2.6,0,3.9,1.5,3.9,3.4c0,2.2-1.4,3.2-3.1,3.4v0c0.7,0.1,1.2,0.7,1.6,1.4l1.4,2.3
		c0.4,0.6,0.7,0.8,1.1,0.8h0.5v1.5H64c-1.1,0-1.6-0.1-2.3-1.4l-1.8-3c-0.5-0.9-0.8-1.1-1.4-1.1h-1.1l0,3.9h1.5v1.5H54V78.3L54,78.3z
		 M59,72.7c1.4,0,2.5-0.8,2.5-2.1c0-1.3-0.8-2.1-2.3-2.1h-1.7l0,4.2H59L59,72.7z"/>
	<polygon points="66,78.3 67.3,78.3 67.4,68.5 65.9,68.5 65.9,67 74.9,67 74.9,70.3 73.2,70.3 73.1,68.5 69.4,68.5 69.4,72.4 
		73,72.4 73,74 69.4,74 69.4,78.3 73.2,78.3 73.4,76.2 75.1,76.2 75,79.8 66,79.8 66,78.3 	"/>
	<path d="M79,76.2v1.7c0.4,0.2,1.3,0.5,2.3,0.5c1.6,0,2.7-0.7,2.7-2.1c0-1-0.6-1.4-2-1.8l-2.3-0.6c-1.5-0.4-2.8-1.3-2.8-3.3
		c0-2.5,2.1-3.7,4.8-3.7c1.7,0,2.9,0.3,3.9,0.6v2.8h-1.9v-1.5c-0.3-0.1-0.9-0.3-1.9-0.3c-1.9,0-2.7,0.9-2.7,1.8c0,1.1,0.8,1.5,2,1.8
		l2,0.5c1.5,0.4,3.1,1.2,3.1,3.4c0,2.5-1.9,4-4.9,4c-0.9,0-3.2-0.2-4.3-0.7v-3.1H79L79,76.2z"/>
</g>
</svg>
