<?xml version="1.0" encoding="utf-8"?>
<!-- Generator: Adobe Illustrator 19.1.0, SVG Export Plug-In . SVG Version: 6.00 Build 0)  -->
<svg version="1.1" id="Layer_1" xmlns="http://www.w3.org/2000/svg" xmlns:xlink="http://www.w3.org/1999/xlink" x="0px" y="0px"
	 width="100px" height="100px" viewBox="0 0 100 100" enable-background="new 0 0 100 100" xml:space="preserve">
<g>
	<path d="M20.8,19.5v3.1H10.4l-0.1,6h0.6c4.2,0,11.1,1.3,11.1,8c0,4.9-3.9,8.4-9.8,8.4c-2.6,0-4.8-0.4-6.5-1.1v-3.4
		c0.8,0.3,2.6,1.1,5.9,1.1c4,0,6.2-1.8,6.2-4.9c0-4.5-5.3-5.1-10.9-5.1H6.2l0.1-12.3H20.8L20.8,19.5z"/>
	<path d="M35.2,19c7.2,0,8.9,7.2,8.9,12.5c0,7.3-2.4,13.6-9.4,13.6c-6.2,0-8.8-4.6-8.8-12.5C25.9,26,28.3,19,35.2,19L35.2,19z
		 M34.9,42c3.7,0,5-4.6,5-9.9c0-6.5-1.4-9.9-4.7-9.9c-3.6,0-5,4.5-5,10.3C30.1,37.7,31.3,42,34.9,42L34.9,42z"/>
	<path d="M56.4,19c7.2,0,8.9,7.2,8.9,12.5c0,7.3-2.4,13.6-9.4,13.6c-6.2,0-8.8-4.6-8.8-12.5C47.1,26,49.4,19,56.4,19L56.4,19z
		 M56,42c3.7,0,5-4.6,5-9.9c0-6.5-1.4-9.9-4.7-9.9c-3.6,0-5,4.5-5,10.3C51.3,37.7,52.5,42,56,42L56,42z"/>
	<polygon points="68.1,41.6 70.6,41.6 70.7,22.5 68.1,22.5 68.1,19.5 77.3,19.5 77.3,22.5 74.8,22.5 74.7,31.2 84.6,22.5 81.9,22.5 
		81.9,19.5 91.2,19.5 91.2,22.5 89.2,22.5 78.9,31.5 89.5,41.6 91.6,41.6 91.6,44.6 81.6,44.6 81.6,41.6 84.2,41.6 74.7,32.6 
		74.6,41.6 77.3,41.6 77.3,44.6 68.1,44.6 68.1,41.6 	"/>
	<path d="M5.8,52.1h4.7v1.5H9.2l3,8.3c0.1,0.3,0.2,0.7,0.3,1.1h0c0.1-0.4,0.2-0.8,0.3-1.1l2.9-8.3h-1.5v-1.5h4.6v1.5h-1.1l-4.3,11
		h-2.2l-4.3-11H5.8V52.1L5.8,52.1z"/>
	<polygon points="19.8,63.1 21.1,63.1 21.1,53.5 19.7,53.5 19.7,52.1 28.5,52.1 28.5,55.4 26.9,55.4 26.8,53.5 23.1,53.5 23.1,57.4 
		26.7,57.4 26.7,59 23.1,59 23.1,63.1 26.9,63.1 27,61.1 28.7,61.1 28.6,64.6 19.8,64.6 19.8,63.1 	"/>
	<path d="M30.3,63.1h1.2l0.1-9.6h-1.3v-1.5h5.6c2.6,0,3.8,1.5,3.8,3.3c0,2.2-1.4,3.1-3,3.3v0c0.7,0.1,1.2,0.6,1.6,1.4l1.4,2.3
		c0.4,0.6,0.7,0.7,1.1,0.7h0.5v1.5H40c-1.1,0-1.5-0.1-2.3-1.3L36,60.4c-0.5-0.9-0.8-1.1-1.4-1.1h-1.1l0,3.9H35v1.5h-4.7V63.1
		L30.3,63.1z M35.1,57.7c1.4,0,2.4-0.8,2.4-2.1c0-1.3-0.8-2.1-2.3-2.1h-1.7l0,4.1H35.1L35.1,57.7z"/>
	<polygon points="44.6,63.1 45.9,63.1 46,53.5 43.1,53.5 43,55.4 41.2,55.4 41.3,52.1 52.6,52.1 52.7,55.4 50.9,55.4 50.8,53.5 
		48,53.5 47.9,63.1 49.4,63.1 49.4,64.6 44.6,64.6 44.6,63.1 	"/>
	<polygon points="53.9,63.1 55.2,63.1 55.3,53.5 53.9,53.5 53.9,52.1 58.5,52.1 58.5,53.5 57.3,53.5 57.2,63.1 58.5,63.1 58.5,64.6 
		53.9,64.6 53.9,63.1 	"/>
	<path d="M69,55.7v-2c-0.5-0.1-1.2-0.3-2.1-0.3c-3,0-4.5,1.8-4.5,5c0,2.8,1.7,4.8,4.3,4.8c0.9,0,1.8-0.1,2.2-0.2l0.1-2.3h1.8
		l-0.1,3.4c-0.8,0.3-2.4,0.6-3.9,0.6c-4.5,0-6.6-2.8-6.6-6.3c0-3.9,2.6-6.6,6.8-6.6c1.6,0,3.1,0.3,3.9,0.7v3.2H69L69,55.7z"/>
	<path d="M71.4,63.1h1.1l4.5-11h2.2l4.2,11h1.1v1.5H80v-1.5h1.1L80,60h-4.4l-1.2,3.1h1.3v1.5h-4.4V63.1L71.4,63.1z M78.3,54.9
		c-0.2-0.6-0.3-0.9-0.3-1.1h0c-0.1,0.3-0.1,0.6-0.3,1.1l-1.4,3.5h3.3L78.3,54.9L78.3,54.9z"/>
	<polygon points="85.4,63.1 86.7,63.1 86.8,53.5 85.4,53.5 85.4,52.1 90,52.1 90,53.5 88.8,53.5 88.7,63.1 92.4,63.1 92.6,61 
		94.3,61 94.1,64.6 85.4,64.6 85.4,63.1 	"/>
	<path d="M14.2,79.3h1.3l0.1-9.6h-1.4v-1.5h4.1l3.6,9.3c0.1,0.3,0.2,0.7,0.3,1h0c0.1-0.3,0.2-0.7,0.3-1l3.6-9.3h3.9v1.5h-1.4
		l0.1,9.6h1.4v1.5h-4.6v-1.5h1.2l0.1-8.5l-0.1,0c-0.2,0.6-0.3,1.1-0.5,1.7l-3.2,8.3h-2l-3.1-8c-0.3-0.6-0.4-1.3-0.6-1.9h0l-0.1,8.4
		h1.4v1.5h-4.4V79.3L14.2,79.3z"/>
	<polygon points="31.3,79.3 32.5,79.3 32.6,69.7 31.2,69.7 31.2,68.3 40,68.3 40,71.6 38.4,71.6 38.3,69.7 34.6,69.7 34.6,73.6 
		38.2,73.6 38.2,75.2 34.6,75.2 34.6,79.3 38.4,79.3 38.5,77.3 40.2,77.3 40,80.8 31.3,80.8 31.3,79.3 	"/>
	<polygon points="44.8,79.3 46.1,79.3 46.2,69.7 43.3,69.7 43.2,71.6 41.4,71.6 41.5,68.3 52.9,68.3 52.9,71.6 51.1,71.6 51.1,69.7 
		48.2,69.7 48.1,79.3 49.6,79.3 49.6,80.8 44.8,80.8 44.8,79.3 	"/>
	<path d="M54,79.3h1.2l0.1-9.6H54v-1.5h5.6c2.6,0,3.8,1.5,3.8,3.3c0,2.2-1.4,3.1-3,3.3v0c0.7,0.1,1.2,0.6,1.6,1.4l1.4,2.3
		c0.4,0.6,0.7,0.7,1.1,0.7h0.5v1.5h-1.2c-1.1,0-1.5-0.1-2.3-1.3l-1.7-2.9c-0.5-0.9-0.8-1.1-1.4-1.1h-1.1l0,3.9h1.4v1.5H54V79.3
		L54,79.3z M58.8,73.9c1.4,0,2.4-0.8,2.4-2.1c0-1.3-0.8-2.1-2.3-2.1h-1.7l0,4.1H58.8L58.8,73.9z"/>
	<polygon points="65.7,79.3 67,79.3 67,69.7 65.6,69.7 65.6,68.3 74.4,68.3 74.4,71.6 72.8,71.6 72.7,69.7 69,69.7 69,73.6 
		72.6,73.6 72.6,75.2 69,75.2 69,79.3 72.8,79.3 72.9,77.3 74.6,77.3 74.5,80.8 65.7,80.8 65.7,79.3 	"/>
	<path d="M78.4,77.3V79c0.4,0.2,1.3,0.4,2.3,0.4c1.6,0,2.6-0.7,2.6-2.1c0-1-0.6-1.4-1.9-1.8L79.2,75c-1.4-0.4-2.7-1.2-2.7-3.3
		c0-2.5,2.1-3.7,4.7-3.7c1.6,0,2.8,0.3,3.8,0.6v2.8h-1.9v-1.5c-0.3-0.1-0.9-0.3-1.9-0.3c-1.9,0-2.6,0.8-2.6,1.8
		c0,1.1,0.8,1.5,1.9,1.7l1.9,0.5c1.4,0.4,3,1.2,3,3.4c0,2.5-1.8,4-4.8,4c-0.9,0-3.1-0.2-4.2-0.7v-3H78.4L78.4,77.3z"/>
</g>
</svg>
