<?xml version="1.0" encoding="utf-8"?>
<!-- Generator: Adobe Illustrator 19.1.0, SVG Export Plug-In . SVG Version: 6.00 Build 0)  -->
<svg version="1.1" id="Layer_1" xmlns="http://www.w3.org/2000/svg" xmlns:xlink="http://www.w3.org/1999/xlink" x="0px" y="0px"
	 width="100px" height="100px" viewBox="0 0 100 100" enable-background="new 0 0 100 100" xml:space="preserve">
<g>
	<path d="M6.8,41.9l0.9-0.7c3.4-2.7,11.5-9,11.5-14.2c0-2.2-1.1-3.7-4-3.7c-3.5,0-4.4,3.1-4.4,4.4H6.9c0-2.5,1.8-7.6,8.4-7.6
		c4.3,0,7.8,2.4,7.8,6.9c0,5.7-6.7,11.3-10.8,14.6v0.1c0.7-0.1,1.3-0.1,2.6-0.1h9v3.3H6.8V41.9L6.8,41.9z"/>
	<path d="M42.6,20.5v3H32.5l-0.1,5.8H33c4.1,0,10.8,1.2,10.8,7.8c0,4.7-3.8,8.2-9.4,8.2c-2.5,0-4.6-0.4-6.3-1V41
		c0.8,0.2,2.6,1,5.7,1c3.9,0,6-1.7,6-4.7c0-4.4-5.1-4.9-10.5-4.9h-0.6l0.1-11.9H42.6L42.6,20.5z"/>
	<path d="M56.5,20c7,0,8.6,7,8.6,12.1c0,7.1-2.3,13.1-9.1,13.1c-6,0-8.5-4.5-8.5-12.1C47.5,26.7,49.8,20,56.5,20L56.5,20z
		 M56.2,42.2c3.6,0,4.8-4.4,4.8-9.6c0-6.3-1.4-9.5-4.6-9.5c-3.5,0-4.8,4.4-4.8,10C51.6,38.1,52.8,42.2,56.2,42.2L56.2,42.2z"/>
	<polygon points="67.9,41.9 70.3,41.9 70.4,23.4 67.9,23.4 67.9,20.5 76.8,20.5 76.8,23.4 74.4,23.4 74.3,31.8 83.9,23.4 81.2,23.4 
		81.2,20.5 90.3,20.5 90.3,23.4 88.3,23.4 78.4,32.1 88.6,41.9 90.6,41.9 90.6,44.7 80.9,44.7 80.9,41.9 83.5,41.9 74.3,33.1 
		74.2,41.9 76.8,41.9 76.8,44.7 67.9,44.7 67.9,41.9 	"/>
	<path d="M7.6,52h4.5v1.4h-1.2l2.9,8c0.1,0.3,0.2,0.7,0.3,1.1h0c0.1-0.3,0.2-0.7,0.3-1.1l2.8-8h-1.4V52h4.4v1.4h-1.1L15,64.1h-2.1
		L8.7,53.4H7.6V52L7.6,52z"/>
	<polygon points="21.2,62.7 22.4,62.7 22.4,53.4 21,53.4 21,52 29.5,52 29.6,55.2 28,55.2 27.9,53.4 24.4,53.4 24.4,57.2 27.8,57.2 
		27.8,58.7 24.4,58.7 24.3,62.7 28,62.7 28.1,60.7 29.8,60.7 29.6,64.1 21.2,64.1 21.2,62.7 	"/>
	<path d="M31.3,62.7h1.2l0.1-9.3h-1.3V52h5.4c2.5,0,3.7,1.4,3.7,3.2c0,2.1-1.3,3-2.9,3.2v0c0.7,0.1,1.1,0.6,1.5,1.3l1.3,2.2
		c0.3,0.6,0.7,0.7,1.1,0.7h0.5v1.4h-1.1c-1,0-1.5-0.1-2.2-1.3L36.8,60c-0.5-0.9-0.8-1.1-1.3-1.1h-1l0,3.7h1.4v1.4h-4.5V62.7
		L31.3,62.7z M36,57.4c1.4,0,2.3-0.7,2.3-2c0-1.3-0.8-2-2.2-2h-1.6l0,4H36L36,57.4z"/>
	<polygon points="45.2,62.7 46.4,62.7 46.5,53.4 43.7,53.4 43.6,55.2 41.9,55.2 41.9,52 52.9,52 53,55.2 51.3,55.2 51.2,53.4 
		48.4,53.4 48.4,62.7 49.8,62.7 49.8,64.1 45.2,64.1 45.2,62.7 	"/>
	<polygon points="54.2,62.7 55.4,62.7 55.5,53.4 54.2,53.4 54.2,52 58.6,52 58.6,53.4 57.4,53.4 57.3,62.7 58.6,62.7 58.6,64.1 
		54.2,64.1 54.2,62.7 	"/>
	<path d="M68.7,55.6v-1.9c-0.5-0.1-1.1-0.3-2.1-0.3c-2.9,0-4.4,1.8-4.4,4.8c0,2.8,1.7,4.7,4.1,4.7c0.8,0,1.7-0.1,2.2-0.2l0.1-2.2
		h1.7l-0.1,3.3c-0.8,0.3-2.3,0.6-3.8,0.6c-4.3,0-6.4-2.7-6.4-6.1c0-3.8,2.5-6.4,6.6-6.4c1.5,0,3,0.3,3.8,0.7v3.1H68.7L68.7,55.6z"/>
	<path d="M71.1,62.7h1L76.5,52h2.1l4.1,10.7h1.1v1.4h-4.4v-1.4h1.1l-1-3h-4.3l-1.1,3h1.2v1.4h-4.2V62.7L71.1,62.7z M77.7,54.7
		c-0.2-0.5-0.3-0.8-0.3-1.1h0c-0.1,0.2-0.1,0.6-0.3,1.1l-1.3,3.4h3.2L77.7,54.7L77.7,54.7z"/>
	<polygon points="84.7,62.7 85.9,62.7 86,53.4 84.7,53.4 84.7,52 89.1,52 89.1,53.4 87.9,53.4 87.8,62.7 91.4,62.7 91.6,60.7 
		93.2,60.7 93.1,64.1 84.7,64.1 84.7,62.7 	"/>
	<path d="M15.7,78.4H17l0.1-9.3h-1.4v-1.4h4l3.5,9c0.1,0.3,0.2,0.7,0.3,1h0c0.1-0.3,0.2-0.7,0.3-1l3.5-9H31v1.4h-1.4l0.1,9.3H31v1.4
		h-4.4v-1.4h1.2l0.1-8.2l-0.1,0c-0.2,0.5-0.3,1.1-0.5,1.6l-3.1,8h-1.9l-3-7.7c-0.2-0.6-0.4-1.2-0.5-1.9h0l-0.1,8.1H20v1.4h-4.2V78.4
		L15.7,78.4z"/>
	<polygon points="32.3,78.4 33.5,78.4 33.5,69.1 32.1,69.1 32.1,67.7 40.7,67.7 40.7,70.9 39.1,70.9 39,69.1 35.5,69.1 35.5,72.8 
		38.9,72.8 38.9,74.4 35.5,74.4 35.4,78.4 39.1,78.4 39.3,76.4 40.9,76.4 40.7,79.8 32.3,79.8 32.3,78.4 	"/>
	<polygon points="45.4,78.4 46.6,78.4 46.7,69.1 43.9,69.1 43.8,70.9 42.1,70.9 42.2,67.7 53.1,67.7 53.2,70.9 51.5,70.9 51.4,69.1 
		48.6,69.1 48.6,78.4 50,78.4 50,79.8 45.4,79.8 45.4,78.4 	"/>
	<path d="M54.2,78.4h1.2l0.1-9.3h-1.3v-1.4h5.4c2.5,0,3.7,1.4,3.7,3.2c0,2.1-1.3,3-2.9,3.2v0c0.7,0.1,1.1,0.6,1.5,1.3l1.3,2.2
		c0.3,0.6,0.7,0.7,1.1,0.7h0.5v1.4h-1.1c-1,0-1.5-0.1-2.2-1.3l-1.7-2.8c-0.5-0.9-0.8-1.1-1.3-1.1h-1l0,3.7h1.4v1.4h-4.5V78.4
		L54.2,78.4z M58.9,73.1c1.4,0,2.3-0.7,2.3-2c0-1.3-0.8-2-2.2-2h-1.6l0,4H58.9L58.9,73.1z"/>
	<polygon points="65.6,78.4 66.8,78.4 66.8,69.1 65.4,69.1 65.4,67.7 74,67.7 74,70.9 72.4,70.9 72.3,69.1 68.8,69.1 68.8,72.8 
		72.2,72.8 72.2,74.4 68.8,74.4 68.7,78.4 72.4,78.4 72.6,76.4 74.2,76.4 74,79.8 65.6,79.8 65.6,78.4 	"/>
	<path d="M77.9,76.4V78c0.4,0.2,1.2,0.4,2.2,0.4c1.5,0,2.6-0.7,2.6-2c0-1-0.6-1.3-1.9-1.7l-2.1-0.6C77.2,73.8,76,73,76,71
		c0-2.4,2-3.5,4.6-3.5c1.6,0,2.8,0.3,3.7,0.6v2.7h-1.8v-1.5c-0.3-0.1-0.9-0.3-1.8-0.3c-1.8,0-2.5,0.8-2.5,1.7c0,1.1,0.8,1.4,1.9,1.7
		l1.9,0.5c1.4,0.4,2.9,1.1,2.9,3.3c0,2.4-1.8,3.8-4.7,3.8c-0.9,0-3-0.2-4.1-0.6v-2.9H77.9L77.9,76.4z"/>
</g>
</svg>
