<?xml version="1.0" encoding="utf-8"?>
<!-- Generator: Adobe Illustrator 19.1.0, SVG Export Plug-In . SVG Version: 6.00 Build 0)  -->
<svg version="1.1" id="Layer_1" xmlns="http://www.w3.org/2000/svg" xmlns:xlink="http://www.w3.org/1999/xlink" x="0px" y="0px"
	 width="100px" height="100px" viewBox="0 0 100 100" enable-background="new 0 0 100 100" xml:space="preserve">
<g>
	<polygon points="72.1,58.1 75.3,58.1 75.3,50.5 72.1,50.5 72.1,58.1 	"/>
	<polygon points="27.9,58.1 24.7,58.1 24.7,50.5 27.9,50.5 27.9,58.1 	"/>
	<path d="M71.5,58.4v-8.3h0.9c0-1.1-0.2-2.1-0.7-2.8c-0.5-0.7-1.3-1.3-2.7-1.6c-1-0.3-1.9-0.5-2.9-0.7c-1.5-0.4-3.1-0.6-4.7-0.7
		c-2.5-0.3-5-0.4-7.5-0.4c-0.7,0-3.9,0-3.9,0s-3.2,0-3.9,0c-2.5,0-5,0.1-7.5,0.4c-1.6,0.2-3.2,0.4-4.7,0.7c-1,0.2-1.9,0.5-2.9,0.7
		c-1.4,0.4-2.2,0.9-2.7,1.6c-0.5,0.7-0.7,1.6-0.7,2.8h0.9v8.3h-0.9c0,1.9,0,2.7,1.1,4.5c2.3,3.6,5.6,4.8,9.5,6.3
		c2.9,1.1,4.7,1.2,6.2-1c1.4-1.9,3.1-4.3,4.9-4.9c0.2-0.1,0.7-0.1,0.7-0.1s0.5,0,0.7,0.1c1.8,0.7,3.5,3,4.9,4.9
		c1.6,2.2,3.3,2.2,6.2,1c3.9-1.5,7.2-2.7,9.5-6.3c1.1-1.8,1.1-2.7,1.1-4.5H71.5L71.5,58.4z M70,57c0,1.6-1,5-2.8,6.4
		c-1,0.8-2,1.1-3.2,1.3c-1.2,0.2-2.8,0.1-4-0.1c-3.3-0.6-4.1-2-5.2-4.3c-0.6-1.3-1.4-2.3-2.4-2.8c-0.5-0.3-1.8-0.5-2.4-0.5
		c-0.6,0-1.9,0.2-2.4,0.5c-1,0.5-1.8,1.5-2.4,2.8c-1.1,2.3-1.9,3.7-5.2,4.3c-1.2,0.2-2.8,0.3-4,0.1c-1.2-0.2-2.2-0.5-3.2-1.3
		C30.9,62,30,58.5,30,57c0-1.9-0.2-3.8,0-5.6c0.2-1.7,0.5-2.2,1.5-2.8c1.2-0.8,2.6-0.9,4.2-1c2.2-0.1,4.7,0,6.9,0
		c0.8,0,13.9,0,14.8,0c2.3,0,4.7-0.1,6.9,0c1.7,0.1,3.2,0.3,4.2,1c0.9,0.7,1.3,1.1,1.5,2.8C70.2,53.3,70,55.1,70,57L70,57z"/>
	<path d="M69.3,23.8c-0.7,0-1.3,0.6-1.3,1.3c0,0.3,0.1,0.6,0.3,0.8c-1.3,1-4,3.3-5.9,5.6c0,0,0-0.1,0-0.1c0-0.4,0-0.9,0-1.3
		c0-0.9,0-1.8,0-2.7c0-0.9,0-1.8,0-2.7c0-0.4,0-0.9,0-1.3l0-0.3c0.1,0,0.2,0,0.3,0c0.7,0,1.4-0.6,1.4-1.3c0-0.7-0.6-1.3-1.4-1.3
		c-0.7,0-1.4,0.6-1.4,1.3c0,0.3,0.1,0.6,0.3,0.9c-1.4,1-4.2,3.4-6.1,6.7c-0.2-0.6-0.4-1.1-0.6-1.7c-0.4-0.9-0.9-1.9-1.4-2.8
		c-0.5-0.9-1-1.8-1.6-2.6c-0.4-0.6-0.8-1.1-1.2-1.7c0.4-0.2,0.7-0.7,0.7-1.2c0-0.8-0.6-1.4-1.4-1.4c-0.8,0-1.4,0.6-1.4,1.4
		c0,0.5,0.3,1,0.7,1.2c-0.4,0.5-0.8,1.1-1.2,1.7c-0.6,0.8-1.1,1.7-1.6,2.6c-0.5,0.9-1,1.8-1.4,2.8c-0.2,0.6-0.4,1.1-0.6,1.7
		c-1.9-3.4-4.7-5.7-6.1-6.7c0.2-0.2,0.3-0.5,0.3-0.9c0-0.7-0.6-1.3-1.4-1.3c-0.7,0-1.4,0.6-1.4,1.3c0,0.7,0.6,1.3,1.4,1.3
		c0.1,0,0.2,0,0.3,0l0,0.3c0,0.4,0,0.9,0,1.3c0,0.9,0,1.8,0,2.7c0,0.9,0,1.8,0,2.7c0,0.4,0,0.9,0,1.3c0,0,0,0.1,0,0.1
		C35.8,29.3,33,27,31.7,26c0.2-0.2,0.3-0.5,0.3-0.8c0-0.7-0.6-1.3-1.3-1.3c-0.7,0-1.3,0.6-1.3,1.3c0,0.7,0.6,1.3,1.3,1.3
		c0.2,0,0.4,0,0.5-0.1c0.1,0.3,0.2,0.7,0.4,1.2c0.8,2.6,2.2,7.2,3.4,10.8l0,0c4.8-1.4,9.9-1.5,15-1.5c5.2,0,10.2,0.1,15,1.5l0,0
		c1.4-4.2,3.1-9.7,3.7-11.9c0.2,0.1,0.3,0.1,0.5,0.1c0.7,0,1.3-0.6,1.3-1.3C70.6,24.4,70,23.8,69.3,23.8L69.3,23.8z"/>
	<path d="M64.8,39.8c-4.7-1.4-9.7-1.5-14.8-1.5c-5.1,0-10.1,0.1-14.8,1.5c0,0-0.1,0-0.1,0c0,0-0.5,1.9,0,2.1
		c0.2,0.1,7.5-1.1,14.9-1.1c7.4,0,14.7,1.2,14.9,1.1c0.5-0.2,0-2.1,0-2.1C64.9,39.8,64.8,39.8,64.8,39.8L64.8,39.8z"/>
	<polygon points="49.3,9.8 50,8.5 50.7,9.9 52.2,10.1 51.1,11.1 51.3,12.6 50,11.9 48.6,12.6 48.9,11.1 47.8,10 49.3,9.8 	"/>
	<polygon points="39.3,11.3 39.7,9.8 40.7,11 42.2,10.8 41.4,12.1 42,13.5 40.5,13.2 39.4,14.2 39.3,12.7 37.9,11.9 39.3,11.3 	"/>
	<polygon points="30.1,15.3 30,13.8 31.3,14.6 32.7,14.1 32.3,15.6 33.2,16.8 31.7,16.8 30.9,18.1 30.4,16.6 28.9,16.2 30.1,15.3 	
		"/>
	<polygon points="22.2,21.5 21.7,20.1 23.2,20.6 24.4,19.7 24.4,21.2 25.6,22.1 24.1,22.5 23.7,24 22.8,22.7 21.3,22.7 22.2,21.5 	
		"/>
	<polygon points="16.2,29.6 15.4,28.3 16.9,28.4 17.9,27.2 18.2,28.7 19.7,29.3 18.3,30.1 18.3,31.6 17.1,30.6 15.6,31 16.2,29.6 	
		"/>
	<polygon points="12.5,38.9 11.4,37.8 12.9,37.6 13.5,36.2 14.2,37.5 15.8,37.7 14.7,38.8 15,40.3 13.6,39.6 12.3,40.4 12.5,38.9 	
		"/>
	<polygon points="11.4,48.8 10,48.1 11.4,47.5 11.6,46 12.7,47.1 14.2,46.8 13.5,48.2 14.2,49.5 12.6,49.2 11.6,50.3 11.4,48.8 	"/>
	<polygon points="12.9,58.7 11.4,58.4 12.5,57.4 12.4,55.9 13.7,56.7 15.1,56.1 14.7,57.6 15.7,58.7 14.2,58.8 13.4,60.1 12.9,58.7 
			"/>
	<polygon points="16.9,67.9 15.3,68 16.2,66.7 15.7,65.3 17.1,65.7 18.3,64.8 18.4,66.3 19.7,67.1 18.2,67.6 17.8,69.1 16.9,67.9 	
		"/>
	<polygon points="83.8,66.7 84.6,68 83.1,67.9 82.1,69.1 81.8,67.6 80.3,67 81.7,66.2 81.7,64.7 82.9,65.7 84.4,65.3 83.8,66.7 	"/>
	<polygon points="87.5,57.4 88.6,58.4 87.1,58.7 86.5,60.1 85.8,58.8 84.2,58.6 85.3,57.5 85,56 86.4,56.7 87.7,55.9 87.5,57.4 	"/>
	<polygon points="88.6,47.5 90,48.2 88.6,48.8 88.4,50.3 87.3,49.2 85.8,49.4 86.5,48.1 85.8,46.8 87.3,47 88.4,46 88.6,47.5 	"/>
	<polygon points="87.1,37.6 88.6,37.9 87.5,38.9 87.6,40.4 86.3,39.6 84.9,40.2 85.3,38.7 84.3,37.6 85.8,37.5 86.6,36.2 87.1,37.6 
			"/>
	<polygon points="83.1,28.4 84.7,28.3 83.8,29.6 84.3,31 82.9,30.6 81.7,31.5 81.6,30 80.3,29.2 81.8,28.7 82.2,27.2 83.1,28.4 	"/>
	<polygon points="76.8,20.6 78.3,20.1 77.8,21.5 78.7,22.8 77.1,22.7 76.2,24 75.8,22.5 74.3,22 75.6,21.2 75.6,19.6 76.8,20.6 	"/>
	<polygon points="68.7,14.6 70,13.8 69.9,15.3 71.1,16.3 69.6,16.6 69,18.1 68.2,16.8 66.7,16.7 67.7,15.5 67.3,14 68.7,14.6 	"/>
	<polygon points="59.3,11 60.4,9.8 60.6,11.3 62.1,12 60.7,12.7 60.5,14.2 59.4,13.1 57.9,13.5 58.6,12.1 57.8,10.8 59.3,11 	"/>
	<path d="M76.9,30.5C76.9,30.4,76.9,30.4,76.9,30.5c-1.6,2.1-4.7,6.1-5.4,7.1c0,0,0,0.1,0,0.1l2-0.2c0,0,0.1,0,0,0.1l0,0.1
		c-0.7,1.4-1.9,3.8-2.6,5.3c0,0,0,0,0,0c1.6-2.1,4.7-6.1,5.4-7.1c0,0,0-0.1,0-0.1l-2,0.2c0,0-0.1,0,0-0.1l0-0.1
		C75,34.3,76.2,31.9,76.9,30.5L76.9,30.5z"/>
	<path d="M23.1,30.5C23.1,30.4,23.1,30.4,23.1,30.5c1.6,2.1,4.7,6.1,5.4,7.1c0,0,0,0.1,0,0.1l-2-0.2c0,0-0.1,0,0,0.1l0,0.1
		c0.7,1.4,1.9,3.8,2.6,5.3c0,0,0,0,0,0c-1.6-2.1-4.7-6.1-5.4-7.1c0,0,0-0.1,0-0.1l2,0.2c0,0,0.1,0,0-0.1l0-0.1
		C25,34.3,23.8,31.9,23.1,30.5L23.1,30.5z"/>
	<path d="M36.2,73.3h11v2.6h-7.4v3.6c3.3,0,8.2,0.9,8.2,5.6c0,3.9-2.7,6.4-7.6,6.4c-1.7,0-3.4-0.4-4.7-0.8v-2.9
		c0.8,0.4,3,0.8,4.6,0.8c2.9,0,3.9-1.5,3.9-3c0-2.5-2.2-3.3-8.1-3.3V73.3L36.2,73.3z"/>
	<path d="M57.3,72.9c3.9,0,6.5,3.1,6.5,9.3c0,6.3-3.3,9.3-7.1,9.3c-3.5,0-6.6-2-6.6-8.8C50.2,75.3,53.7,72.9,57.3,72.9L57.3,72.9z
		 M57,88.6c1.4,0,2.9-1.3,2.9-6.4c0-5.4-1.5-6.4-2.9-6.4c-1.6,0-3,1.4-3,6.6C54.1,87.1,55,88.6,57,88.6L57,88.6z"/>
</g>
</svg>
