<?xml version="1.0" encoding="utf-8"?>
<!-- Generator: Adobe Illustrator 19.1.0, SVG Export Plug-In . SVG Version: 6.00 Build 0)  -->
<svg version="1.1" id="Layer_1" xmlns="http://www.w3.org/2000/svg" xmlns:xlink="http://www.w3.org/1999/xlink" x="0px" y="0px"
	 width="100px" height="100px" viewBox="0 0 100 100" enable-background="new 0 0 100 100" xml:space="preserve">
<g>
	<path d="M14.9,43.8h5.8l0.2-22.3c-0.6,0.6-1.1,1-1.7,1.4l-5.4,3.7l-2-3.3l10.1-6.4h3.7l-0.2,26.9h6.2v3.6H14.9V43.8L14.9,43.8z"/>
	<path d="M47.1,16.3c8.5,0,10.5,8.8,10.5,15.2c0,8.9-2.8,16.5-11.2,16.5c-7.3,0-10.4-5.6-10.4-15.3C36.1,24.8,38.9,16.3,47.1,16.3
		L47.1,16.3z M46.8,44.2c4.4,0,5.9-5.6,5.9-12.1c0-8-1.7-12-5.6-12c-4.2,0-5.9,5.5-5.9,12.6C41.1,39.1,42.5,44.2,46.8,44.2
		L46.8,44.2z"/>
	<polygon points="61.1,43.8 64,43.8 64.2,20.5 61.1,20.5 61.1,16.9 72,16.9 72,20.5 69,20.5 68.9,31.2 80.7,20.5 77.4,20.5 
		77.4,16.9 88.5,16.9 88.5,20.5 86.2,20.5 73.9,31.5 86.5,43.8 89,43.8 89,47.4 77.1,47.4 77.1,43.8 80.2,43.8 68.9,32.8 68.8,43.8 
		72,43.8 72,47.4 61.1,47.4 61.1,43.8 	"/>
	<path d="M7,54.9h4.6v1.5h-1.2l2.9,8.2c0.1,0.3,0.2,0.7,0.3,1.1h0c0.1-0.4,0.2-0.7,0.3-1.1l2.9-8.2h-1.4v-1.5h4.4v1.5h-1.1l-4.2,11
		h-2.2l-4.2-11H7V54.9L7,54.9z"/>
	<polygon points="20.6,65.9 21.8,65.9 21.9,56.4 20.5,56.4 20.5,54.9 29,54.9 29.1,58.2 27.5,58.2 27.4,56.4 23.8,56.4 23.8,60.2 
		27.3,60.2 27.3,61.8 23.8,61.8 23.8,65.9 27.5,65.9 27.6,63.9 29.2,63.9 29.1,67.4 20.6,67.4 20.6,65.9 	"/>
	<path d="M30.8,65.9H32l0.1-9.5h-1.3v-1.5h5.4c2.5,0,3.7,1.5,3.7,3.3c0,2.2-1.4,3.1-2.9,3.3v0c0.7,0.1,1.1,0.6,1.5,1.4l1.3,2.3
		c0.3,0.6,0.7,0.7,1.1,0.7h0.5v1.5h-1.1c-1,0-1.5-0.1-2.2-1.3l-1.7-2.9c-0.5-0.9-0.8-1.1-1.3-1.1h-1l0,3.8h1.4v1.5h-4.6V65.9
		L30.8,65.9z M35.5,60.5c1.4,0,2.3-0.8,2.3-2.1c0-1.3-0.8-2-2.2-2H34l0,4.1H35.5L35.5,60.5z"/>
	<polygon points="44.7,65.9 46,65.9 46,56.4 43.2,56.4 43.1,58.2 41.4,58.2 41.5,54.9 52.5,54.9 52.6,58.2 50.8,58.2 50.8,56.4 
		48,56.4 47.9,65.9 49.3,65.9 49.3,67.4 44.7,67.4 44.7,65.9 	"/>
	<polygon points="53.8,65.9 55,65.9 55.1,56.4 53.8,56.4 53.8,54.9 58.2,54.9 58.2,56.4 57,56.4 56.9,65.9 58.2,65.9 58.2,67.4 
		53.8,67.4 53.8,65.9 	"/>
	<path d="M68.4,58.6v-2c-0.5-0.1-1.1-0.3-2.1-0.3c-2.9,0-4.4,1.8-4.4,4.9c0,2.8,1.7,4.8,4.2,4.8c0.8,0,1.7-0.1,2.2-0.2l0.1-2.2h1.7
		L70,67c-0.8,0.3-2.3,0.6-3.8,0.6c-4.4,0-6.4-2.8-6.4-6.3c0-3.9,2.5-6.6,6.6-6.6c1.5,0,3,0.3,3.8,0.7v3.2H68.4L68.4,58.6z"/>
	<path d="M70.7,65.9h1l4.4-11h2.2l4.1,11h1.1v1.5h-4.4v-1.5h1.1l-1-3.1h-4.3l-1.1,3.1H75v1.5h-4.2V65.9L70.7,65.9z M77.4,57.7
		c-0.2-0.6-0.3-0.9-0.3-1.1h0c-0.1,0.3-0.1,0.6-0.3,1.1l-1.3,3.5h3.2L77.4,57.7L77.4,57.7z"/>
	<polygon points="84.4,65.9 85.6,65.9 85.7,56.4 84.4,56.4 84.4,54.9 88.9,54.9 88.9,56.4 87.6,56.4 87.6,65.9 91.2,65.9 91.4,63.8 
		93,63.8 92.8,67.4 84.4,67.4 84.4,65.9 	"/>
	<path d="M15.1,82h1.2l0.1-9.5h-1.4V71h4l3.5,9.3c0.1,0.3,0.2,0.7,0.3,1h0c0.1-0.3,0.2-0.7,0.3-1l3.5-9.3h3.8v1.5H29l0.1,9.5h1.3
		v1.5H26V82h1.2l0.1-8.4l-0.1,0c-0.2,0.6-0.3,1.1-0.5,1.7l-3.1,8.3h-1.9l-3-7.9c-0.2-0.6-0.4-1.3-0.5-1.9h0L18,82h1.4v1.5h-4.2V82
		L15.1,82z"/>
	<polygon points="31.8,82 33,82 33,72.5 31.6,72.5 31.6,71 40.2,71 40.3,74.3 38.6,74.3 38.5,72.5 35,72.5 35,76.3 38.4,76.3 
		38.4,77.9 35,77.9 34.9,82 38.6,82 38.8,80 40.4,80 40.3,83.5 31.8,83.5 31.8,82 	"/>
	<polygon points="44.9,82 46.2,82 46.3,72.5 43.4,72.5 43.4,74.3 41.6,74.3 41.7,71 52.7,71 52.8,74.3 51.1,74.3 51,72.5 48.2,72.5 
		48.1,82 49.5,82 49.5,83.5 44.9,83.5 44.9,82 	"/>
	<path d="M53.8,82H55l0.1-9.5h-1.3V71h5.4c2.5,0,3.7,1.5,3.7,3.3c0,2.2-1.4,3.1-2.9,3.3v0c0.7,0.1,1.1,0.6,1.5,1.4l1.3,2.3
		c0.3,0.6,0.7,0.7,1.1,0.7h0.5v1.5h-1.1c-1,0-1.5-0.1-2.2-1.3l-1.7-2.9c-0.5-0.9-0.8-1.1-1.3-1.1h-1l0,3.8h1.4v1.5h-4.6V82L53.8,82z
		 M58.5,76.6c1.4,0,2.3-0.7,2.3-2.1c0-1.3-0.8-2-2.2-2h-1.6l0,4.1H58.5L58.5,76.6z"/>
	<polygon points="65.2,82 66.4,82 66.5,72.5 65.1,72.5 65.1,71 73.6,71 73.7,74.3 72.1,74.3 72,72.5 68.5,72.5 68.4,76.3 71.9,76.3 
		71.9,77.9 68.4,77.9 68.4,82 72.1,82 72.2,80 73.9,80 73.7,83.5 65.2,83.5 65.2,82 	"/>
	<path d="M77.6,80.1v1.7c0.4,0.2,1.2,0.4,2.2,0.4c1.5,0,2.6-0.7,2.6-2c0-1-0.6-1.4-1.9-1.8l-2.2-0.6c-1.4-0.4-2.6-1.2-2.6-3.2
		c0-2.5,2-3.7,4.6-3.7c1.6,0,2.8,0.3,3.7,0.6v2.8h-1.8v-1.5c-0.3-0.1-0.9-0.3-1.8-0.3c-1.8,0-2.6,0.8-2.6,1.8c0,1.1,0.8,1.5,1.9,1.7
		l1.9,0.5c1.4,0.4,2.9,1.2,2.9,3.3c0,2.5-1.8,3.9-4.7,3.9c-0.9,0-3-0.2-4.1-0.7v-3H77.6L77.6,80.1z"/>
</g>
</svg>
