<?xml version="1.0" encoding="utf-8"?>
<!-- Generator: Adobe Illustrator 19.1.0, SVG Export Plug-In . SVG Version: 6.00 Build 0)  -->
<svg version="1.1" id="Layer_1" xmlns="http://www.w3.org/2000/svg" xmlns:xlink="http://www.w3.org/1999/xlink" x="0px" y="0px"
	 width="100px" height="100px" viewBox="0 0 100 100" enable-background="new 0 0 100 100" xml:space="preserve">
<g>
	<path d="M49.4,33c0,1.8-1.5,3.2-3.3,3.2s-3.3-1.4-3.3-3.2c0-1.8,1.5-3.2,3.3-3.2S49.4,31.3,49.4,33L49.4,33z"/>
	<path d="M63,62.9c-7.8,0-18.5,0-19.2,0l0-2c8.8,0,25.7,0.1,26.9,0c1.2-0.1,2.6-0.4,3.4-2.4l1.9,0.7c-0.9,2.3-2.7,3.5-5.2,3.7
		C70.3,62.9,67.1,62.9,63,62.9L63,62.9z"/>
	<path d="M57.9,44.7h-7.8v-1.3h7.6v-3.4h-7.6v-1.3c0-0.8-0.6-1.4-1.4-1.4h-4.8c-0.6,0-1.2,0.4-1.4,0.9l0,0v0.5v7.3v1.5
		c0,1.5,1.2,2.7,2.8,2.7h10v1H40.7c-1.4,0-2.5-1.1-2.5-2.4V30c0-1.3,1.1-2.4,2.5-2.4h6.4v-3.4h-6.4c-3.3,0-6,2.6-6,5.9v18.6
		c0,3.2,2.7,5.9,6,5.9h14.5v4.7h5.5V47.4C60.7,45.9,59.5,44.7,57.9,44.7L57.9,44.7z"/>
	<polygon points="47.1,27.6 49.6,27.6 49.6,19.4 70.6,11.7 69.5,9 24,25.7 25.1,28.5 47.1,20.4 47.1,27.6 	"/>
	<polygon points="33.2,69.8 36.6,69.8 36.6,90.8 31.9,90.8 31.9,76.2 29.8,77.7 27.4,74 33.2,69.8 	"/>
	<path d="M47.7,69.6c5,0,7.5,4.2,7.5,10.7c0,6.5-2.4,10.7-7.4,10.7c-5,0-7.5-4.2-7.5-10.7C40.3,73.8,42.7,69.6,47.7,69.6L47.7,69.6z
		 M47.8,86.8c1.8,0,2.5-1.6,2.5-6.5c0-4.9-0.8-6.5-2.5-6.5c-1.7,0-2.5,1.7-2.5,6.5C45.2,85.1,46.3,86.8,47.8,86.8L47.8,86.8z"/>
	<path d="M64.5,69.6c5,0,7.5,4.2,7.5,10.7c0,6.5-2.4,10.7-7.4,10.7c-5,0-7.5-4.2-7.5-10.7C57,73.8,59.5,69.6,64.5,69.6L64.5,69.6z
		 M64.6,86.8c1.8,0,2.5-1.6,2.5-6.5c0-4.9-0.8-6.5-2.5-6.5c-1.7,0-2.5,1.7-2.5,6.5C62,85.1,63,86.8,64.6,86.8L64.6,86.8z"/>
	<path d="M49.4,33c0,1.8-1.5,3.2-3.3,3.2s-3.3-1.4-3.3-3.2c0-1.8,1.5-3.2,3.3-3.2S49.4,31.3,49.4,33L49.4,33z"/>
	<path d="M63,62.9c-7.8,0-18.5,0-19.2,0l0-2c8.8,0,25.7,0.1,26.9,0c1.2-0.1,2.6-0.4,3.4-2.4l1.9,0.7c-0.9,2.3-2.7,3.5-5.2,3.7
		C70.3,62.9,67.1,62.9,63,62.9L63,62.9z"/>
	<path d="M57.9,44.7h-7.8v-1.3h7.6v-3.4h-7.6v-1.3c0-0.8-0.6-1.4-1.4-1.4h-4.8c-0.6,0-1.2,0.4-1.4,0.9l0,0v0.5v7.3v1.5
		c0,1.5,1.2,2.7,2.8,2.7h10v1H40.7c-1.4,0-2.5-1.1-2.5-2.4V30c0-1.3,1.1-2.4,2.5-2.4h6.4v-3.4h-6.4c-3.3,0-6,2.6-6,5.9v18.6
		c0,3.2,2.7,5.9,6,5.9h14.5v4.7h5.5V47.4C60.7,45.9,59.5,44.7,57.9,44.7L57.9,44.7z"/>
	<polygon points="47.1,27.6 49.6,27.6 49.6,19.4 70.6,11.7 69.5,9 24,25.7 25.1,28.5 47.1,20.4 47.1,27.6 	"/>
	<polygon points="33.2,69.8 36.6,69.8 36.6,90.8 31.9,90.8 31.9,76.2 29.8,77.7 27.4,74 33.2,69.8 	"/>
	<path d="M47.7,69.6c5,0,7.5,4.2,7.5,10.7c0,6.5-2.4,10.7-7.4,10.7c-5,0-7.5-4.2-7.5-10.7C40.3,73.8,42.7,69.6,47.7,69.6L47.7,69.6z
		 M47.8,86.8c1.8,0,2.5-1.6,2.5-6.5c0-4.9-0.8-6.5-2.5-6.5c-1.7,0-2.5,1.7-2.5,6.5C45.2,85.1,46.3,86.8,47.8,86.8L47.8,86.8z"/>
	<path d="M64.5,69.6c5,0,7.5,4.2,7.5,10.7c0,6.5-2.4,10.7-7.4,10.7c-5,0-7.5-4.2-7.5-10.7C57,73.8,59.5,69.6,64.5,69.6L64.5,69.6z
		 M64.6,86.8c1.8,0,2.5-1.6,2.5-6.5c0-4.9-0.8-6.5-2.5-6.5c-1.7,0-2.5,1.7-2.5,6.5C62,85.1,63,86.8,64.6,86.8L64.6,86.8z"/>
	<path d="M49.4,33c0,1.8-1.5,3.2-3.3,3.2s-3.3-1.4-3.3-3.2c0-1.8,1.5-3.2,3.3-3.2S49.4,31.3,49.4,33L49.4,33z"/>
	<path d="M63,62.9c-7.8,0-18.5,0-19.2,0l0-2c8.8,0,25.7,0.1,26.9,0c1.2-0.1,2.6-0.4,3.4-2.4l1.9,0.7c-0.9,2.3-2.7,3.5-5.2,3.7
		C70.3,62.9,67.1,62.9,63,62.9L63,62.9z"/>
	<path d="M57.9,44.7h-7.8v-1.3h7.6v-3.4h-7.6v-1.3c0-0.8-0.6-1.4-1.4-1.4h-4.8c-0.6,0-1.2,0.4-1.4,0.9l0,0v0.5v7.3v1.5
		c0,1.5,1.2,2.7,2.8,2.7h10v1H40.7c-1.4,0-2.5-1.1-2.5-2.4V30c0-1.3,1.1-2.4,2.5-2.4h6.4v-3.4h-6.4c-3.3,0-6,2.6-6,5.9v18.6
		c0,3.2,2.7,5.9,6,5.9h14.5v4.7h5.5V47.4C60.7,45.9,59.5,44.7,57.9,44.7L57.9,44.7z"/>
	<polygon points="47.1,27.6 49.6,27.6 49.6,19.4 70.6,11.7 69.5,9 24,25.7 25.1,28.5 47.1,20.4 47.1,27.6 	"/>
	<polygon points="33.2,69.8 36.6,69.8 36.6,90.8 31.9,90.8 31.9,76.2 29.8,77.7 27.4,74 33.2,69.8 	"/>
	<path d="M47.7,69.6c5,0,7.5,4.2,7.5,10.7c0,6.5-2.4,10.7-7.4,10.7c-5,0-7.5-4.2-7.5-10.7C40.3,73.8,42.7,69.6,47.7,69.6L47.7,69.6z
		 M47.8,86.8c1.8,0,2.5-1.6,2.5-6.5c0-4.9-0.8-6.5-2.5-6.5c-1.7,0-2.5,1.7-2.5,6.5C45.2,85.1,46.3,86.8,47.8,86.8L47.8,86.8z"/>
	<path d="M64.5,69.6c5,0,7.5,4.2,7.5,10.7c0,6.5-2.4,10.7-7.4,10.7c-5,0-7.5-4.2-7.5-10.7C57,73.8,59.5,69.6,64.5,69.6L64.5,69.6z
		 M64.6,86.8c1.8,0,2.5-1.6,2.5-6.5c0-4.9-0.8-6.5-2.5-6.5c-1.7,0-2.5,1.7-2.5,6.5C62,85.1,63,86.8,64.6,86.8L64.6,86.8z"/>
</g>
</svg>
