<?xml version="1.0" encoding="utf-8"?>
<!-- Generator: Adobe Illustrator 19.1.0, SVG Export Plug-In . SVG Version: 6.00 Build 0)  -->
<svg version="1.1" id="Layer_1" xmlns="http://www.w3.org/2000/svg" xmlns:xlink="http://www.w3.org/1999/xlink" x="0px" y="0px"
	 width="100px" height="100px" viewBox="0 0 100 100" enable-background="new 0 0 100 100" xml:space="preserve">
<g>
	<path d="M19.2,64V48.5h-7.8l4.4,10.3L11.3,69h10.3v-4.2h-2C19.4,64.8,19.2,64.5,19.2,64L19.2,64z"/>
	<path d="M88.7,48.5h-7.8V64c0,0.4-0.2,0.7-0.4,0.7h-2.2V69h10.4l-4.4-10.3L88.7,48.5L88.7,48.5z"/>
	<path d="M50,93c-0.9,0-1.8-0.3-2.5-0.8L22.1,73.5c-1.3-0.9-2.2-2.8-2.2-4.4V30.9c0-1.6,1-3.5,2.2-4.4L47.5,7.8
		C48.2,7.3,49.1,7,50,7c0.9,0,1.8,0.3,2.5,0.8l25.4,18.7c1.3,0.9,2.2,2.8,2.2,4.4v38.2c0,1.6-1,3.5-2.2,4.4L52.5,92.2
		C51.8,92.7,50.9,93,50,93L50,93z M50,9.5c-0.4,0-0.7,0.1-1,0.3L23.7,28.5c-0.6,0.5-1.2,1.6-1.2,2.4v38.2c0,0.8,0.6,1.9,1.2,2.4
		L49,90.2c0.5,0.3,1.5,0.3,1.9,0l25.4-18.7c0.6-0.5,1.2-1.6,1.2-2.4V30.9c0-0.8-0.6-1.9-1.2-2.4L51,9.8C50.7,9.6,50.4,9.5,50,9.5
		L50,9.5z"/>
	<path d="M64.2,24.5c-0.5,0-1,0.4-1,1c0,0.2,0.1,0.5,0.2,0.6c-1,0.8-3,2.5-4.4,4.2c0,0,0-0.1,0-0.1c0-0.3,0-0.7,0-1c0-0.7,0-1.3,0-2
		c0-0.7,0-1.3,0-2c0-0.3,0-0.7,0-1l0-0.2c0.1,0,0.1,0,0.2,0c0.6,0,1-0.4,1-1c0-0.6-0.4-1-1-1c-0.6,0-1,0.4-1,1
		c0,0.2,0.1,0.5,0.2,0.6c-1,0.8-3.1,2.5-4.5,5c-0.1-0.4-0.3-0.9-0.5-1.3c-0.3-0.7-0.6-1.4-1-2.1c-0.4-0.7-0.8-1.3-1.2-1.9
		c-0.3-0.4-0.6-0.8-0.9-1.3c0.3-0.2,0.5-0.5,0.5-0.9c0-0.6-0.5-1-1-1c-0.6,0-1,0.5-1,1c0,0.4,0.2,0.7,0.5,0.9
		c-0.3,0.4-0.6,0.8-0.9,1.3c-0.4,0.6-0.8,1.3-1.2,1.9c-0.4,0.7-0.7,1.4-1,2.1c-0.2,0.4-0.3,0.8-0.5,1.3c-1.4-2.5-3.5-4.3-4.5-5
		c0.1-0.2,0.2-0.4,0.2-0.6c0-0.6-0.4-1-1-1c-0.6,0-1,0.4-1,1c0,0.6,0.4,1,1,1c0.1,0,0.1,0,0.2,0l0,0.2c0,0.3,0,0.7,0,1
		c0,0.7,0,1.3,0,2c0,0.7,0,1.3,0,2c0,0.3,0,0.7,0,1c0,0,0,0.1,0,0.1c-1.4-1.7-3.4-3.4-4.4-4.2c0.1-0.2,0.2-0.4,0.2-0.6
		c0-0.5-0.4-1-1-1c-0.5,0-1,0.4-1,1c0,0.5,0.4,1,1,1c0.1,0,0.3,0,0.4-0.1c0.1,0.2,0.2,0.5,0.3,0.9c0.6,1.9,1.6,5.3,2.5,8l0,0
		c3.6-1,7.3-1.1,11.1-1.1c3.8,0,7.5,0.1,11.1,1.1l0,0c1-3.1,2.3-7.3,2.8-8.9c0.1,0.1,0.2,0.1,0.4,0.1c0.5,0,1-0.4,1-1
		C65.2,25,64.8,24.5,64.2,24.5L64.2,24.5z"/>
	<path d="M60.9,36.4c-3.5-1-7.2-1.1-10.9-1.1c-3.8,0-7.4,0.1-10.9,1.1c0,0-0.1,0-0.1,0c0,0-0.3,1.4,0,1.6c0.1,0.1,5.6,0.7,11,0.7
		c5.4,0,10.9-0.6,11-0.7C61.4,37.8,61,36.4,60.9,36.4C61,36.4,61,36.4,60.9,36.4L60.9,36.4z"/>
	<polygon points="62.3,75 64.1,75 64.1,70.7 62.3,70.7 62.3,75 	"/>
	<polygon points="37.7,75 35.9,75 35.9,70.7 37.7,70.7 37.7,75 	"/>
	<path d="M62,75.2v-4.7h0.5c0-0.6-0.1-1.2-0.4-1.6c-0.3-0.4-0.8-0.7-1.5-0.9c-0.5-0.1-1.1-0.3-1.6-0.4c-0.9-0.2-1.7-0.3-2.6-0.4
		C55,67,53.6,67,52.2,67c-0.4,0-2.2,0-2.2,0s-1.8,0-2.2,0c-1.4,0-2.8,0.1-4.2,0.2c-0.9,0.1-1.8,0.2-2.6,0.4
		c-0.5,0.1-1.1,0.3-1.6,0.4c-0.8,0.2-1.2,0.5-1.5,0.9c-0.3,0.4-0.4,0.9-0.4,1.6h0.5v4.7h-0.5c0,1,0,1.6,0.6,2.5
		c1.3,2,3.1,2.7,5.3,3.6c1.6,0.6,2.6,0.6,3.5-0.6c0.8-1.1,1.7-2.4,2.7-2.8c0.1,0,0.4,0,0.4,0s0.3,0,0.4,0c1,0.4,1.9,1.7,2.7,2.8
		c0.9,1.2,1.9,1.2,3.5,0.6c2.2-0.9,4-1.5,5.3-3.6c0.6-1,0.6-1.5,0.6-2.5H62L62,75.2z M61.2,74.3c0,0.9-0.5,2.8-1.6,3.6
		c-0.6,0.4-1.1,0.6-1.8,0.7c-0.7,0.1-1.6,0.1-2.2-0.1c-1.8-0.4-2.3-1.1-2.9-2.4c-0.3-0.8-0.8-1.3-1.4-1.6c-0.3-0.1-1-0.3-1.3-0.3
		c-0.3,0-1.1,0.1-1.3,0.3c-0.6,0.3-1,0.9-1.4,1.6c-0.6,1.3-1,2.1-2.9,2.4c-0.7,0.1-1.5,0.2-2.2,0.1c-0.7-0.1-1.2-0.3-1.8-0.7
		c-1-0.8-1.6-2.7-1.6-3.6c0-1.1-0.1-2.1,0-3.2c0.1-1,0.3-1.2,0.8-1.6c0.7-0.4,1.4-0.5,2.4-0.6c1.3-0.1,2.6,0,3.9,0
		c0.5,0,7.8,0,8.3,0c1.3,0,2.6-0.1,3.9,0c0.9,0.1,1.8,0.1,2.4,0.6c0.5,0.4,0.7,0.6,0.8,1.6C61.3,72.3,61.2,73.3,61.2,74.3L61.2,74.3
		z"/>
	<path d="M20.2,43.5v5V64h5.9h47.7h5.9V48.5v-5H20.2L20.2,43.5z M48.9,48L43,59.8c-0.5,1-1.1,1.9-1.7,2.9h-3.8c0.7-1,1.3-2,1.9-3
		l5.1-9.6c0.3-0.5,0.5-0.9,1-1.4h-8.4v-2.7h11.8V48L48.9,48z M55.8,63.1c-1.6,0-3.2-0.3-4.4-0.7v-2.7c0.8,0.4,2.8,0.7,4.3,0.7
		c2.7,0,3.7-1.4,3.7-2.9c0-2.3-2.1-3.1-7.5-3.1v-8.4h10.3v2.4h-7v3.4c3.1,0,7.7,0.8,7.7,5.3C62.9,60.7,60.3,63.1,55.8,63.1
		L55.8,63.1z"/>
</g>
</svg>
