<?xml version="1.0" encoding="utf-8"?>
<!-- Generator: Adobe Illustrator 19.1.0, SVG Export Plug-In . SVG Version: 6.00 Build 0)  -->
<svg version="1.1" id="Layer_1" xmlns="http://www.w3.org/2000/svg" xmlns:xlink="http://www.w3.org/1999/xlink" x="0px" y="0px"
	 width="100px" height="100px" viewBox="0 0 100 100" enable-background="new 0 0 100 100" xml:space="preserve">
<g>
	<path d="M12.2,44.2l1.1-0.9c4-3.2,13.7-10.8,13.7-16.9c0-2.6-1.4-4.5-4.8-4.5c-4.1,0-5.2,3.7-5.2,5.2h-4.6c0-3,2.1-9.1,10-9.1
		c5.2,0,9.3,2.9,9.3,8.3c0,6.8-8,13.5-12.8,17.5v0.1c0.8-0.1,1.6-0.2,3.1-0.2h10.7v3.9H12.2V44.2L12.2,44.2z"/>
	<path d="M55.1,18.6v3.6H43l-0.2,6.9h0.7c4.8,0,12.9,1.5,12.9,9.3c0,5.7-4.5,9.7-11.3,9.7c-3,0-5.5-0.5-7.5-1.2V43
		c0.9,0.3,3.1,1.2,6.8,1.2c4.6,0,7.1-2,7.1-5.6c0-5.2-6.1-5.9-12.6-5.9h-0.7l0.2-14.2H55.1L55.1,18.6z"/>
	<polygon points="60.8,44.2 63.7,44.2 63.8,22 60.8,22 60.8,18.6 71.4,18.6 71.4,22 68.5,22 68.4,32.1 79.8,22 76.7,22 76.7,18.6 
		87.5,18.6 87.5,22 85.2,22 73.3,32.4 85.5,44.2 87.9,44.2 87.9,47.5 76.3,47.5 76.3,44.2 79.4,44.2 68.4,33.7 68.3,44.2 71.4,44.2 
		71.4,47.5 60.8,47.5 60.8,44.2 	"/>
	<path d="M8.2,54.7h4.4V56h-1.2l2.8,7.8c0.1,0.3,0.2,0.7,0.3,1h0c0.1-0.3,0.2-0.7,0.3-1l2.8-7.8h-1.4v-1.4h4.3V56h-1.1l-4.1,10.4
		h-2.1L9.2,56h-1V54.7L8.2,54.7z"/>
	<polygon points="21.4,65.1 22.6,65.1 22.6,56 21.3,56 21.3,54.7 29.6,54.7 29.7,57.8 28.1,57.8 28,56 24.6,56 24.5,59.7 27.9,59.7 
		27.9,61.2 24.5,61.2 24.5,65.1 28.1,65.1 28.2,63.2 29.8,63.2 29.7,66.5 21.4,66.5 21.4,65.1 	"/>
	<path d="M31.3,65.1h1.2l0.1-9.1h-1.2v-1.4h5.3c2.4,0,3.6,1.4,3.6,3.1c0,2-1.3,3-2.8,3.1v0c0.7,0.1,1.1,0.6,1.5,1.3l1.3,2.2
		c0.3,0.6,0.7,0.7,1,0.7h0.4v1.4h-1.1c-1,0-1.5-0.1-2.1-1.3l-1.6-2.8c-0.5-0.8-0.7-1-1.3-1h-1l0,3.6h1.4v1.4h-4.4V65.1L31.3,65.1z
		 M35.9,60c1.3,0,2.3-0.7,2.3-2c0-1.2-0.8-1.9-2.1-1.9h-1.6l0,3.9H35.9L35.9,60z"/>
	<polygon points="44.9,65.1 46.1,65.1 46.2,56 43.4,56 43.3,57.8 41.6,57.8 41.7,54.7 52.4,54.7 52.5,57.8 50.8,57.8 50.7,56 48,56 
		48,65.1 49.3,65.1 49.3,66.5 44.9,66.5 44.9,65.1 	"/>
	<polygon points="53.7,65.1 54.9,65.1 54.9,56 53.7,56 53.7,54.7 58,54.7 58,56 56.8,56 56.7,65.1 58,65.1 58,66.5 53.7,66.5 
		53.7,65.1 	"/>
	<path d="M67.9,58.1v-1.9c-0.4-0.1-1.1-0.3-2-0.3c-2.8,0-4.3,1.7-4.3,4.7c0,2.7,1.6,4.6,4,4.6c0.8,0,1.7-0.1,2.1-0.2l0.1-2.1h1.7
		l-0.1,3.2c-0.8,0.3-2.3,0.6-3.7,0.6c-4.2,0-6.3-2.6-6.3-6c0-3.7,2.5-6.2,6.4-6.2c1.5,0,2.9,0.3,3.7,0.6v3H67.9L67.9,58.1z"/>
	<path d="M70.2,65.1h1l4.3-10.4h2.1l4,10.4h1v1.4h-4.3v-1.4h1.1l-1-2.9h-4.2l-1.1,2.9h1.2v1.4h-4.1V65.1L70.2,65.1z M76.7,57.3
		c-0.2-0.5-0.3-0.8-0.3-1.1h0c-0.1,0.2-0.1,0.6-0.3,1.1l-1.3,3.3h3.1L76.7,57.3L76.7,57.3z"/>
	<polygon points="83.5,65.1 84.7,65.1 84.7,56 83.5,56 83.5,54.7 87.8,54.7 87.8,56 86.6,56 86.6,65.1 90.1,65.1 90.2,63.1 
		91.8,63.1 91.7,66.5 83.5,66.5 83.5,65.1 	"/>
	<path d="M16.1,80.4h1.2l0.1-9.1H16V70h3.9l3.4,8.8c0.1,0.3,0.2,0.6,0.3,1h0c0.1-0.3,0.2-0.7,0.3-1l3.4-8.8H31v1.4h-1.4l0.1,9.1H31
		v1.4h-4.3v-1.4h1.2l0.1-8l-0.1,0c-0.2,0.5-0.3,1.1-0.5,1.6l-3,7.8h-1.9l-3-7.5c-0.2-0.6-0.4-1.2-0.5-1.8h0l-0.1,8h1.3v1.4h-4.1
		V80.4L16.1,80.4z"/>
	<polygon points="32.2,80.4 33.4,80.4 33.5,71.3 32.1,71.3 32.1,70 40.4,70 40.5,73.1 38.9,73.1 38.8,71.3 35.4,71.3 35.4,75 
		38.8,75 38.8,76.5 35.4,76.5 35.3,80.4 38.9,80.4 39.1,78.5 40.7,78.5 40.5,81.8 32.2,81.8 32.2,80.4 	"/>
	<polygon points="45.1,80.4 46.3,80.4 46.4,71.3 43.6,71.3 43.5,73.1 41.8,73.1 41.9,70 52.6,70 52.7,73.1 51,73.1 51,71.3 
		48.3,71.3 48.2,80.4 49.6,80.4 49.6,81.8 45.1,81.8 45.1,80.4 	"/>
	<path d="M53.7,80.4h1.2l0.1-9.1h-1.2V70H59c2.4,0,3.6,1.4,3.6,3.1c0,2-1.3,3-2.8,3.1v0c0.7,0.1,1.1,0.6,1.5,1.3l1.3,2.2
		c0.3,0.6,0.7,0.7,1,0.7H64v1.4h-1.1c-1,0-1.5-0.1-2.1-1.3l-1.6-2.8c-0.5-0.8-0.7-1-1.3-1h-1l0,3.6h1.4v1.4h-4.4V80.4L53.7,80.4z
		 M58.3,75.3c1.3,0,2.3-0.7,2.3-2c0-1.2-0.8-1.9-2.1-1.9h-1.6l0,3.9H58.3L58.3,75.3z"/>
	<polygon points="64.8,80.4 66,80.4 66,71.3 64.7,71.3 64.7,70 73,70 73.1,73.1 71.5,73.1 71.4,71.3 68,71.3 67.9,75 71.3,75 
		71.3,76.5 67.9,76.5 67.9,80.4 71.5,80.4 71.6,78.5 73.2,78.5 73.1,81.8 64.8,81.8 64.8,80.4 	"/>
	<path d="M76.8,78.5v1.6c0.4,0.2,1.2,0.4,2.1,0.4c1.5,0,2.5-0.7,2.5-1.9c0-0.9-0.6-1.3-1.8-1.7l-2.1-0.6c-1.4-0.4-2.6-1.2-2.6-3.1
		c0-2.3,2-3.5,4.5-3.5c1.5,0,2.7,0.3,3.6,0.6V73h-1.8v-1.4c-0.3-0.1-0.9-0.3-1.8-0.3C77.7,71.2,77,72,77,73c0,1,0.8,1.4,1.8,1.7
		l1.8,0.5c1.4,0.4,2.9,1.1,2.9,3.2c0,2.4-1.7,3.7-4.5,3.7c-0.9,0-3-0.2-4-0.6v-2.9H76.8L76.8,78.5z"/>
</g>
</svg>
