<?xml version="1.0" encoding="utf-8"?>
<!-- Generator: Adobe Illustrator 19.1.0, SVG Export Plug-In . SVG Version: 6.00 Build 0)  -->
<svg version="1.1" id="Layer_1" xmlns="http://www.w3.org/2000/svg" xmlns:xlink="http://www.w3.org/1999/xlink" x="0px" y="0px"
	 width="100px" height="100px" viewBox="0 0 100 100" enable-background="new 0 0 100 100" xml:space="preserve">
<g>
	<path d="M49.8,33.2c0,1.8-1.4,3.2-3.2,3.2c-1.8,0-3.2-1.4-3.2-3.2c0-1.8,1.4-3.2,3.2-3.2C48.4,29.9,49.8,31.4,49.8,33.2L49.8,33.2z
		"/>
	<path d="M63,62.8c-7.5,0-17.9,0-18.6,0l0-1.9c8.5,0,24.9,0.1,26.1,0c1.2-0.1,2.5-0.4,3.3-2.4l1.8,0.7c-0.9,2.3-2.6,3.5-5,3.6
		C70.1,62.8,66.9,62.8,63,62.8L63,62.8z"/>
	<path d="M58.1,44.7h-7.6v-1.3h7.3V40h-7.3v-1.3c0-0.8-0.6-1.4-1.4-1.4h-4.7c-0.6,0-1.2,0.4-1.4,0.9l0,0v0.5v7.2v1.5
		c0,1.5,1.2,2.7,2.7,2.7h9.6v1h-14c-1.3,0-2.4-1.1-2.4-2.4V30.2c0-1.3,1.1-2.4,2.4-2.4h6.2v-3.4h-6.2c-3.2,0-5.9,2.6-5.9,5.8v18.4
		c0,3.2,2.6,5.8,5.9,5.8h14v4.7h5.4V47.4C60.8,45.9,59.6,44.7,58.1,44.7L58.1,44.7z"/>
	<polygon points="47.6,27.7 50,27.7 50,19.6 70.3,12 69.3,9.3 25.2,25.9 26.2,28.6 47.6,20.6 47.6,27.7 	"/>
	<polygon points="25.9,69.7 29.2,69.7 29.2,90.5 24.7,90.5 24.7,76 22.6,77.5 20.3,73.8 25.9,69.7 	"/>
	<path d="M40,69.5c4.9,0,7.2,4.2,7.2,10.6c0,6.5-2.3,10.6-7.2,10.6c-4.9,0-7.3-4.2-7.3-10.6C32.8,73.6,35.1,69.5,40,69.5L40,69.5z
		 M40,86.6c1.7,0,2.4-1.6,2.4-6.5c0-4.9-0.7-6.5-2.4-6.5c-1.7,0-2.4,1.7-2.4,6.5C37.5,84.9,38.6,86.6,40,86.6L40,86.6z"/>
	<path d="M56.2,69.5c4.9,0,7.2,4.2,7.2,10.6c0,6.5-2.3,10.6-7.2,10.6c-4.9,0-7.3-4.2-7.3-10.6C49,73.6,51.4,69.5,56.2,69.5
		L56.2,69.5z M56.3,86.6c1.7,0,2.4-1.6,2.4-6.5c0-4.9-0.7-6.5-2.4-6.5c-1.7,0-2.4,1.7-2.4,6.5C53.8,84.9,54.8,86.6,56.3,86.6
		L56.3,86.6z"/>
	<path d="M72.5,69.5c4.9,0,7.2,4.2,7.2,10.6c0,6.5-2.3,10.6-7.2,10.6c-4.9,0-7.3-4.2-7.3-10.6C65.3,73.6,67.6,69.5,72.5,69.5
		L72.5,69.5z M72.6,86.6c1.7,0,2.4-1.6,2.4-6.5c0-4.9-0.7-6.5-2.4-6.5c-1.7,0-2.4,1.7-2.4,6.5C70.1,84.9,71.1,86.6,72.6,86.6
		L72.6,86.6z"/>
</g>
</svg>
