<?xml version="1.0" encoding="utf-8"?>
<!-- Generator: Adobe Illustrator 19.1.0, SVG Export Plug-In . SVG Version: 6.00 Build 0)  -->
<svg version="1.1" id="Layer_1" xmlns="http://www.w3.org/2000/svg" xmlns:xlink="http://www.w3.org/1999/xlink" x="0px" y="0px"
	 width="100px" height="100px" viewBox="0 0 100 100" enable-background="new 0 0 100 100" xml:space="preserve">
<g>
	<path d="M19,75.3L8.2,37.8L77.4,18l10.8,37.5L19,75.3z M10.7,39.2l9.6,33.6l65.4-18.7L76,20.4L10.7,39.2z"/>
	<g>
		<path d="M18.8,56.8c-0.6-2.2-0.5-4.2,0.4-5.8c0.9-1.6,2.5-2.7,4.7-3.4c2.3-0.7,4.2-0.5,5.8,0.3c1.6,0.9,2.7,2.4,3.3,4.6
			c0.5,1.6,0.6,3,0.3,4.2c-0.2,1.2-0.8,2.2-1.7,3.1c-0.9,0.9-2.1,1.5-3.6,2c-1.6,0.4-2.9,0.6-4.1,0.4c-1.2-0.2-2.2-0.7-3.1-1.6
			C20,59.7,19.3,58.4,18.8,56.8z M23.1,55.6c0.4,1.4,0.9,2.3,1.6,2.8c0.7,0.5,1.5,0.6,2.4,0.3c0.9-0.3,1.5-0.8,1.9-1.5
			c0.3-0.7,0.3-1.9-0.2-3.4c-0.4-1.3-0.9-2.2-1.6-2.6c-0.7-0.4-1.5-0.5-2.4-0.3c-0.9,0.2-1.5,0.7-1.8,1.5
			C22.6,53.1,22.7,54.2,23.1,55.6z"/>
		<path d="M33.4,45.2l7.1-2c1.5-0.4,2.8-0.4,3.8,0.1c1,0.5,1.7,1.4,2,2.8c0.4,1.4,0.3,2.6-0.3,3.6c-0.6,1-1.8,1.8-3.5,2.3l-2.3,0.7
			l1.5,5.1L37.3,59L33.4,45.2z M39.3,49.8l1-0.3c0.8-0.2,1.4-0.5,1.6-0.9c0.2-0.4,0.3-0.8,0.2-1.2c-0.1-0.4-0.4-0.8-0.7-1
			c-0.4-0.2-1-0.2-1.8,0l-1.2,0.3L39.3,49.8z"/>
		<path d="M47.3,41.2l11.4-3.3l0.8,2.9l-7.1,2l0.6,2.2l6.6-1.9l0.8,2.8l-6.6,1.9l0.8,2.7l7.3-2.1l0.9,3.1L51.2,55L47.3,41.2z"/>
		<path d="M61.2,37.2l4-1.1l7.4,6.1l-2.2-7.6l4-1.1l3.9,13.8l-4,1.1L67,42.3l2.2,7.6l-4,1.1L61.2,37.2z"/>
	</g>
	<polygon points="29.1,33.4 27.2,32.6 36.9,9.3 58.4,23.3 57.3,25 37.9,12.3 	"/>
	<path d="M7,91.6h-1V93h4.4c2.7,0,3.7-1.4,3.7-2.7c0-1.6-1.2-2.4-2.6-2.4v0c0.7,0,2-0.6,2-2.2c0-1-0.5-1.6-1-2
		c-0.6-0.4-1.4-0.5-2.7-0.5H6v1.4h1V91.6L7,91.6z M9.1,84.6h1c1,0,1.5,0.4,1.5,1.2c0,0.9-0.7,1.3-1.5,1.3h-1V84.6L9.1,84.6z
		 M9.1,88.8h1.2c1,0,1.6,0.6,1.6,1.3c0,0.8-0.5,1.4-1.7,1.4H9.1V88.8L9.1,88.8z M20.6,91.6h-2.4v-6.9h0.9v-1.4h-3.8v1.4h0.9v6.9
		h-0.9V93h7l0.1-3.2h-1.7L20.6,91.6L20.6,91.6z M29.1,88.2h-2.3l0.8-2c0.2-0.4,0.3-0.9,0.4-1.4h0c0.1,0.5,0.2,1,0.4,1.4L29.1,88.2
		L29.1,88.2z M30.3,91.6h-0.8V93h3.9v-1.4h-0.8l-3.2-8.4h-2.3l-3.4,8.4h-0.8V93h3.6v-1.4h-0.9l0.7-1.9h3.4L30.3,91.6L30.3,91.6z
		 M40.2,91.4c-0.4,0.1-0.9,0.1-1.1,0.1c-2.7,0-3.3-2-3.3-3.5c0-1.8,0.8-3.5,3.2-3.5c0.5,0,0.9,0.1,1.4,0.2v1.6h1.8v-2.7
		c-1-0.3-2-0.6-3.2-0.6c-3.6,0-5.3,2.5-5.3,5.1c0,3.1,2,5,5.2,5c1.2,0,2.1-0.1,3.2-0.5l0.1-3h-1.8L40.2,91.4L40.2,91.4z M43.2,93H47
		v-1.4h-0.9v-3.2l2.8,2.7c0.2,0.2,0.5,0.4,0.7,0.5v0h-1.1V93h4.3v-1.4H52l-3.8-3.7l3.6-3.2h0.8v-1.4h-4v1.4h1v0
		c-0.2,0.1-0.5,0.3-0.9,0.6l-2.6,2.5v-3.1H47v-1.4h-3.8v1.4h0.9v6.9h-0.9V93L43.2,93z M59.9,91.4c-0.4,0.1-0.9,0.1-1.1,0.1
		c-2.7,0-3.3-2-3.3-3.5c0-1.8,0.8-3.5,3.2-3.5c0.5,0,0.9,0.1,1.4,0.2v1.6h1.8v-2.7c-1-0.3-2-0.6-3.2-0.6c-3.6,0-5.3,2.5-5.3,5.1
		c0,3.1,2,5,5.2,5c1.2,0,2.1-0.1,3.2-0.5l0.1-3H60L59.9,91.4L59.9,91.4z M62.8,88.1c0,2.8,1.4,5.1,4.8,5.1c3.4,0,4.8-2.3,4.8-5.1
		c0-2.9-1.5-5.1-4.8-5.1C64.6,83,62.8,85.4,62.8,88.1L62.8,88.1z M65,88.1c0-1.9,0.8-3.5,2.6-3.5s2.6,1.6,2.6,3.5
		c0,1.9-0.7,3.5-2.6,3.5C65.7,91.6,65,90,65,88.1L65,88.1z M83.2,91.6h-0.8V93h3.8v-1.4h-1v-6.9h1v-1.4h-3.6l-2.3,6.1
		c-0.3,0.8-0.4,1.2-0.5,1.8h0c-0.1-0.6-0.2-1-0.4-1.3l-2.5-6.5h-3.6v1.4h1v6.9h-0.9V93h3.5v-1.4h-1v-5.7h0c0,0.3,0.2,0.8,0.4,1.3
		l2.3,5.9h2l2.2-5.8c0.2-0.5,0.4-1,0.4-1.3h0V91.6L83.2,91.6z M87.9,91.6h-1V93h4.4c2.7,0,3.7-1.4,3.7-2.7c0-1.6-1.2-2.4-2.6-2.4v0
		c0.7,0,2-0.6,2-2.2c0-1-0.5-1.6-1-2c-0.6-0.4-1.4-0.5-2.7-0.5h-3.8v1.4h1.1V91.6L87.9,91.6z M90,84.6h1c1,0,1.5,0.4,1.5,1.2
		c0,0.9-0.7,1.3-1.5,1.3h-1V84.6L90,84.6z M90,88.8h1.2c1,0,1.6,0.6,1.6,1.3c0,0.8-0.5,1.4-1.7,1.4H90V88.8L90,88.8z"/>
</g>
</svg>
