<?xml version="1.0" encoding="utf-8"?>
<!-- Generator: Adobe Illustrator 19.1.0, SVG Export Plug-In . SVG Version: 6.00 Build 0)  -->
<svg version="1.1" id="Layer_1" xmlns="http://www.w3.org/2000/svg" xmlns:xlink="http://www.w3.org/1999/xlink" x="0px" y="0px"
	 width="100px" height="100px" viewBox="0 0 100 100" enable-background="new 0 0 100 100" xml:space="preserve">
<g>
	<path d="M40.2,57.9l2.3-0.8l6-7.7l1.7,1.8l2.5-4.9l2.4,3.1l2.2-1.9l2.7,2.1l5.5,8.3H70L52.4,36l-7.2,11l-4.9-4.1L30,57.9H33
		l0.1-1.1l2.6-3c0,0,0.9,0.5,1,0.5c0.1,0,3.2-4.2,3.2-4.2l1.2,2.2l1.8-1.2l-4.2,6.7H40.2L40.2,57.9z"/>
	<path d="M72.3,26H59.9L70.3,9H56.8L44.8,30.3h-4.4c-1,0-1.8,0.8-1.8,1.8c0,1,0.8,1.8,1.8,1.8h19.1c1,0,1.8-0.8,1.8-1.8
		c0-1-0.8-1.8-1.8-1.8h-2.2l1.3-2.2h13.6c0.9,0,1.7,0.8,1.7,1.7v29.9H26.1V29.8c0-0.9,0.7-1.7,1.7-1.7H44l1.2-2.1H27.7
		c-2.1,0-3.7,1.7-3.7,3.8v57.5c0,2.1,1.7,3.8,3.7,3.8h44.5c2.1,0,3.7-1.7,3.7-3.8V29.8C76,27.7,74.3,26,72.3,26L72.3,26z M32.8,61.1
		H41v2.6h-2.2L43.6,78c0.3,0.8,0.4,1.6,0.6,2.3h0.1c0.2-0.8,0.3-1.6,0.6-2.3l3.9-10.8l-1.2-3.6h-2.1v-2.6h8v2.6h-2.2l4.3,14.1
		c0.3,0.8,0.4,1.8,0.6,2.6h0.1c0.3-0.9,0.4-1.8,0.7-2.6l4.8-14.1h-2.4v-2.6h7.8v2.6h-1.9l-7.3,19.7h-3.9l-3.8-11.8h-0.1l-4.4,11.8
		H42l-7.2-19.7h-1.9V61.1L32.8,61.1z M73.9,87.2c0,0.9-0.7,1.7-1.7,1.7H27.7c-0.9,0-1.7-0.8-1.7-1.7v-2.9h47.9V87.2L73.9,87.2z"/>
	<polygon points="45.9,24.6 49.1,18.8 43.2,9 29.7,9 40.1,24.6 45.9,24.6 	"/>
</g>
</svg>
