<?xml version="1.0" encoding="utf-8"?>
<!-- Generator: Adobe Illustrator 19.1.0, SVG Export Plug-In . SVG Version: 6.00 Build 0)  -->
<svg version="1.1" id="Layer_1" xmlns="http://www.w3.org/2000/svg" xmlns:xlink="http://www.w3.org/1999/xlink" x="0px" y="0px"
	 width="100px" height="100px" viewBox="0 0 100 100" enable-background="new 0 0 100 100" xml:space="preserve">
<g>
	<path d="M37.5,11h-5.7c-1.4,0-2.5,1.1-2.5,2.6V64c0,1.4,1.1,2.6,2.5,2.6h5.7c1.4,0,2.5-1.1,2.5-2.6V13.6C40,12.1,38.8,11,37.5,11
		L37.5,11z M38.1,25.8h-6.7c-0.3,0-0.6-0.3-0.6-0.6c0-0.3,0.3-0.6,0.6-0.6h6.7c0.3,0,0.6,0.3,0.6,0.6C38.7,25.6,38.5,25.8,38.1,25.8
		L38.1,25.8z M38.1,23.6h-6.7c-0.3,0-0.6-0.3-0.6-0.6c0-0.3,0.3-0.6,0.6-0.6h6.7c0.3,0,0.6,0.3,0.6,0.6
		C38.7,23.3,38.5,23.6,38.1,23.6L38.1,23.6z M38.1,21.1h-6.7c-0.3,0-0.6-0.3-0.6-0.6c0-0.3,0.3-0.6,0.6-0.6h6.7
		c0.3,0,0.6,0.3,0.6,0.6C38.7,20.9,38.5,21.1,38.1,21.1L38.1,21.1z"/>
	<path d="M60.7,23.5l-5.4,1.7c-1.3,0.4-2.1,1.9-1.7,3.2l11,36.1c0.4,1.3,1.8,2.1,3.1,1.7l5.4-1.7c1.3-0.4,2.1-1.9,1.7-3.2l-11-36.1
		C63.5,23.8,62.1,23,60.7,23.5L60.7,23.5z M65,35.5l-6.4,2c-0.3,0.1-0.6-0.1-0.7-0.4c-0.1-0.3,0.1-0.6,0.4-0.7l6.4-2
		c0.3-0.1,0.6,0.1,0.7,0.4C65.4,35.1,65.3,35.4,65,35.5L65,35.5z M64.3,33.4l-6.4,2c-0.3,0.1-0.6-0.1-0.7-0.4
		c-0.1-0.3,0.1-0.6,0.4-0.7l6.4-2c0.3-0.1,0.6,0.1,0.7,0.4C64.8,33,64.6,33.3,64.3,33.4L64.3,33.4z M63.6,31l-6.4,2
		c-0.3,0.1-0.6-0.1-0.7-0.4c-0.1-0.3,0.1-0.6,0.4-0.7l6.4-2c0.3-0.1,0.6,0.1,0.7,0.4C64.1,30.6,63.9,30.9,63.6,31L63.6,31z"/>
	<path d="M50.2,11h-5.7c-1.4,0-2.5,1.1-2.5,2.6V64c0,1.4,1.1,2.6,2.5,2.6h5.7c1.4,0,2.5-1.1,2.5-2.6V13.6C52.7,12.1,51.5,11,50.2,11
		L50.2,11z M50.8,25.8h-6.7c-0.3,0-0.6-0.3-0.6-0.6c0-0.3,0.3-0.6,0.6-0.6h6.7c0.3,0,0.6,0.3,0.6,0.6C51.4,25.6,51.2,25.8,50.8,25.8
		L50.8,25.8z M50.8,23.6h-6.7c-0.3,0-0.6-0.3-0.6-0.6c0-0.3,0.3-0.6,0.6-0.6h6.7c0.3,0,0.6,0.3,0.6,0.6
		C51.4,23.3,51.2,23.6,50.8,23.6L50.8,23.6z M50.8,21.1h-6.7c-0.3,0-0.6-0.3-0.6-0.6c0-0.3,0.3-0.6,0.6-0.6h6.7
		c0.3,0,0.6,0.3,0.6,0.6C51.4,20.9,51.2,21.1,50.8,21.1L50.8,21.1z"/>
	<polygon points="76.9,72.6 24.6,72.6 24.6,69.2 76.9,69.2 76.9,72.6 	"/>
	<path d="M6.9,87.7h1l0.1-7.5h-1V79h3.8c1,0,1.6,0.1,2.2,0.6c0.5,0.3,0.9,1,0.9,1.8c0,1.1-0.7,2.1-1.9,2.2v0c1.3,0,2.5,0.9,2.5,2.4
		c0,1.7-1.2,2.7-3.5,2.7h-4V87.7L6.9,87.7z M10.7,87.7c1.1,0,2-0.5,2-1.7c0-1.1-0.9-1.6-1.9-1.6H9.4l0,3.2H10.7L10.7,87.7z
		 M10.5,83.2c1,0,1.7-0.6,1.7-1.6c0-0.7-0.3-1.1-0.6-1.3c-0.3-0.2-0.6-0.2-1.1-0.2h-1l0,3H10.5L10.5,83.2z"/>
	<polygon points="15.6,87.7 16.5,87.7 16.6,80.2 15.6,80.2 15.6,79 19.1,79 19.1,80.2 18.1,80.2 18.1,87.7 20.9,87.7 21.1,86 
		22.4,86 22.2,88.8 15.6,88.8 15.6,87.7 	"/>
	<path d="M23.4,87.7h0.8l3.5-8.6h1.7l3.2,8.6h0.9v1.1h-3.5v-1.1h0.9L30,85.3h-3.4l-0.9,2.4h1v1.1h-3.4V87.7L23.4,87.7z M28.6,81.3
		c-0.2-0.4-0.2-0.7-0.2-0.9h0c0,0.2-0.1,0.5-0.3,0.9L27,84h2.5L28.6,81.3L28.6,81.3z"/>
	<path d="M40.5,81.9v-1.6c-0.4-0.1-0.9-0.2-1.6-0.2c-2.3,0-3.5,1.4-3.5,3.9c0,2.2,1.3,3.8,3.3,3.8c0.7,0,1.4-0.1,1.7-0.1l0.1-1.8
		h1.4l-0.1,2.7c-0.6,0.2-1.9,0.5-3,0.5c-3.4,0-5.1-2.2-5.1-5c0-3,2-5.2,5.2-5.2c1.2,0,2.3,0.3,3,0.5v2.5H40.5L40.5,81.9z"/>
	<polygon points="43.1,87.7 44,87.7 44.1,80.2 43.1,80.2 43.1,79 46.6,79 46.6,80.2 45.6,80.2 45.6,83.6 49.4,80.2 48.3,80.2 
		48.3,79 51.9,79 51.9,80.2 51.2,80.2 47.2,83.7 51.3,87.7 52.1,87.7 52.1,88.8 48.2,88.8 48.2,87.7 49.2,87.7 45.6,84.1 45.6,87.7 
		46.6,87.7 46.6,88.8 43.1,88.8 43.1,87.7 	"/>
	<path d="M59.6,81.9v-1.6c-0.4-0.1-0.9-0.2-1.6-0.2c-2.3,0-3.5,1.4-3.5,3.9c0,2.2,1.3,3.8,3.3,3.8c0.7,0,1.4-0.1,1.7-0.1l0.1-1.8
		h1.4l-0.1,2.7c-0.6,0.2-1.9,0.5-3,0.5c-3.4,0-5.1-2.2-5.1-5c0-3,2-5.2,5.2-5.2c1.2,0,2.3,0.3,3,0.5v2.5H59.6L59.6,81.9z"/>
	<path d="M67.1,78.9c2.8,0,4.4,1.9,4.4,4.9c0,2.6-1.5,5.2-4.7,5.2c-2.8,0-4.6-1.9-4.6-4.9C62.2,81,64.1,78.9,67.1,78.9L67.1,78.9z
		 M66.8,87.7c2.5,0,3-2.5,3-3.8c0-1.7-0.6-3.7-2.8-3.7c-1.6,0-3.1,1.1-3.1,3.8C63.9,85.9,64.8,87.7,66.8,87.7L66.8,87.7z"/>
	<path d="M72.5,87.7h1l0.1-7.5h-1.1V79h3.2l2.8,7.3c0.1,0.3,0.1,0.5,0.2,0.8h0c0.1-0.3,0.1-0.5,0.2-0.8l2.7-7.3h3v1.1h-1.1l0.1,7.5
		h1v1.1h-3.5v-1.1h0.9l0.1-6.6l0,0c-0.1,0.4-0.2,0.9-0.4,1.3l-2.5,6.5h-1.5l-2.4-6.2c-0.2-0.5-0.3-1-0.4-1.5h0l-0.1,6.6h1.1v1.1
		h-3.4V87.7L72.5,87.7z"/>
	<path d="M85.6,87.7h1l0.1-7.5h-1V79h3.8c1,0,1.6,0.1,2.2,0.6c0.5,0.3,0.9,1,0.9,1.8c0,1.1-0.7,2.1-1.9,2.2v0c1.3,0,2.5,0.9,2.5,2.4
		c0,1.7-1.2,2.7-3.5,2.7h-4V87.7L85.6,87.7z M89.4,87.7c1.1,0,2-0.5,2-1.7c0-1.1-0.9-1.6-1.9-1.6h-1.3l0,3.2H89.4L89.4,87.7z
		 M89.2,83.2c1,0,1.7-0.6,1.7-1.6c0-0.7-0.3-1.1-0.6-1.3c-0.3-0.2-0.6-0.2-1.1-0.2h-1l0,3H89.2L89.2,83.2z"/>
</g>
</svg>
