<?xml version="1.0" encoding="utf-8"?>
<!-- Generator: Adobe Illustrator 19.1.0, SVG Export Plug-In . SVG Version: 6.00 Build 0)  -->
<svg version="1.1" id="Layer_1" xmlns="http://www.w3.org/2000/svg" xmlns:xlink="http://www.w3.org/1999/xlink" x="0px" y="0px"
	 width="100px" height="100px" viewBox="0 0 100 100" enable-background="new 0 0 100 100" xml:space="preserve">
<g>
	<path d="M37.6,21c-0.2,0-0.3,0.1-0.3,0.3v6.9c0,0.2,0.1,0.3,0.3,0.3h3.8c0.2,0,0.3-0.1,0.3-0.3v-6.9c0-0.2-0.1-0.3-0.3-0.3H37.6
		L37.6,21z"/>
	<path d="M83.1,56.5H16.9c-2.1,0-3.9,1.7-3.9,3.8v7.6c0.3,0.3,0.6,0.6,1,0.8c0.5,0.3,0.9,0.5,1.2,0.5c0.3,0,0.7-0.2,1.2-0.5
		c0.6-0.4,1.3-1.1,2-1.7c0.8-0.7,1.5-1.5,2.4-2.1c2.1-1.4,4.2-1.4,6.2,0c0.8,0.6,1.6,1.3,2.4,2.1c0.7,0.7,1.3,1.3,2,1.7
		c0.5,0.3,0.9,0.5,1.2,0.5c0.3,0,0.7-0.2,1.2-0.5c0.6-0.4,1.3-1.1,2-1.7c0.8-0.7,1.5-1.5,2.4-2.1c2.1-1.4,4.2-1.4,6.2,0
		c0.8,0.6,1.6,1.3,2.4,2.1c0.7,0.7,1.3,1.3,2,1.7c0.5,0.3,0.9,0.5,1.2,0.5c0.3,0,0.7-0.2,1.2-0.5c0.6-0.4,1.3-1.1,2-1.7
		c0.8-0.7,1.5-1.5,2.4-2.1c2.1-1.4,4.2-1.4,6.2,0c0.8,0.6,1.6,1.3,2.4,2.1c0.7,0.6,1.3,1.3,2,1.7c0.5,0.3,0.9,0.5,1.2,0.5
		c0.3,0,0.7-0.2,1.2-0.5c0.6-0.4,1.3-1.1,2-1.7c0.8-0.7,1.5-1.5,2.4-2.1c2.1-1.4,4.2-1.4,6.2,0c0.8,0.6,1.6,1.3,2.4,2.1
		c0.7,0.6,1.3,1.3,2,1.7c0.5,0.3,0.9,0.5,1.2,0.5c0.3,0,0.7-0.2,1.2-0.5c0.4-0.3,0.8-0.6,1.2-1v-7.3C87,58.2,85.3,56.5,83.1,56.5
		L83.1,56.5z"/>
	<path d="M81.4,71.3c-0.8-0.6-1.6-1.3-2.4-2.1c-0.7-0.7-1.3-1.3-2-1.7c-0.5-0.3-0.9-0.5-1.2-0.5c-0.3,0-0.7,0.2-1.2,0.5
		c-0.6,0.4-1.3,1.1-2,1.7c-0.8,0.7-1.5,1.5-2.4,2.1c-2.1,1.4-4.2,1.4-6.2,0c-0.8-0.6-1.6-1.3-2.4-2.1c-0.7-0.6-1.3-1.3-2-1.7
		c-0.5-0.3-0.9-0.5-1.2-0.5c-0.3,0-0.7,0.2-1.2,0.5c-0.6,0.4-1.3,1.1-2,1.7c-0.8,0.7-1.5,1.5-2.4,2.1c-2.1,1.4-4.2,1.4-6.2,0
		c-0.8-0.6-1.6-1.3-2.4-2.1c-0.7-0.6-1.3-1.3-2-1.7c-0.5-0.3-0.9-0.5-1.2-0.5c-0.3,0-0.7,0.2-1.2,0.5c-0.6,0.4-1.3,1.1-2,1.7
		c-0.8,0.7-1.5,1.5-2.4,2.1c-2.1,1.4-4.2,1.4-6.2,0c-0.8-0.6-1.6-1.3-2.4-2.1c-0.7-0.6-1.3-1.3-2-1.7c-0.5-0.3-0.9-0.5-1.2-0.5
		c-0.3,0-0.7,0.2-1.2,0.5c-0.6,0.4-1.3,1.1-2,1.7c-0.8,0.7-1.5,1.5-2.4,2.1c-1.8,1.2-3.5,1.4-5.3,0.6v11.4c0,2.1,1.7,3.8,3.9,3.8
		h66.3c2.1,0,3.9-1.7,3.9-3.8V71.7C85.1,72.7,83.3,72.6,81.4,71.3L81.4,71.3z"/>
	<path d="M27.1,54.2H74c1.7,0,3.1-1.3,3.1-3v-6.8c-0.5,0.2-1,0.3-1.5,0.3c-0.9,0-1.9-0.3-2.9-1c-0.8-0.5-1.5-1.3-2.3-2
		c-0.7-0.7-1.3-1.3-1.9-1.7c-0.5-0.3-0.9-0.5-1.3-0.5c-0.4,0-0.8,0.2-1.3,0.5c-0.6,0.4-1.3,1.1-1.9,1.7c-0.7,0.7-1.5,1.4-2.3,2
		c-1,0.7-1.9,1-2.9,1c-0.9,0-1.9-0.3-2.9-1c-0.8-0.5-1.5-1.3-2.3-2c-0.6-0.6-1.3-1.3-1.9-1.7c-0.5-0.3-0.9-0.5-1.3-0.5
		c-0.4,0-0.8,0.2-1.3,0.5c-0.6,0.4-1.2,1-1.9,1.7c-0.7,0.7-1.5,1.4-2.3,2c-1,0.7-1.9,1-2.9,1c-0.9,0-1.9-0.3-2.9-1
		c-0.8-0.5-1.5-1.3-2.3-2c-0.7-0.7-1.3-1.3-1.9-1.7c-0.5-0.3-0.9-0.5-1.3-0.5c-0.4,0-0.8,0.2-1.3,0.5c-0.6,0.4-1.2,1-1.9,1.7
		c-0.7,0.7-1.5,1.4-2.3,2c-1,0.7-1.9,1-2.9,1c-0.5,0-1-0.1-1.4-0.3v6.8C24,52.9,25.4,54.2,27.1,54.2L27.1,54.2z"/>
	<path d="M25.5,42c0.4,0,0.8-0.2,1.3-0.5c0.6-0.4,1.3-1.1,1.9-1.7c0.7-0.7,1.5-1.4,2.3-2c1-0.7,1.9-1,2.9-1c0.9,0,1.9,0.3,2.9,1
		c0.8,0.5,1.5,1.3,2.3,2c0.6,0.6,1.3,1.3,1.9,1.7c0.5,0.3,0.9,0.5,1.3,0.5c0.4,0,0.8-0.2,1.3-0.5c0.6-0.4,1.3-1.1,1.9-1.7
		c0.7-0.7,1.5-1.4,2.3-2c1-0.7,1.9-1,2.9-1c0.9,0,1.9,0.3,2.9,1c0.8,0.5,1.5,1.3,2.3,2c0.6,0.6,1.3,1.3,1.9,1.7
		c0.5,0.3,0.9,0.5,1.3,0.5c0.4,0,0.8-0.2,1.3-0.5c0.6-0.4,1.3-1.1,1.9-1.7c0.7-0.7,1.5-1.4,2.3-2c1-0.7,1.9-1,2.9-1
		c0.9,0,1.9,0.3,2.9,1c0.8,0.5,1.5,1.3,2.3,2c0.6,0.6,1.3,1.3,1.9,1.7c0.5,0.3,0.9,0.5,1.3,0.5c0.4,0,0.8-0.2,1.3-0.5
		c0.1,0,0.1-0.1,0.2-0.1v-7.8c0-1.6-1.4-3-3.1-3H27.1c-1.7,0-3.1,1.3-3.1,3v7.8c0,0,0.1,0.1,0.1,0.1C24.7,41.8,25.1,42,25.5,42
		L25.5,42z"/>
	<path d="M48.7,21c-0.2,0-0.3,0.1-0.3,0.3v6.9c0,0.2,0.1,0.3,0.3,0.3h3.8c0.2,0,0.3-0.1,0.3-0.3v-6.9c0-0.2-0.1-0.3-0.3-0.3H48.7
		L48.7,21z"/>
	<path d="M59.7,21c-0.2,0-0.3,0.1-0.3,0.3v6.9c0,0.2,0.1,0.3,0.3,0.3h3.8c0.2,0,0.3-0.1,0.3-0.3v-6.9c0-0.2-0.1-0.3-0.3-0.3H59.7
		L59.7,21z"/>
	<path d="M39.6,19.5c1.3,0,2.4-1,2.4-2.3c0-1.3-2.4-4.2-2.4-4.2s-2.4,2.9-2.4,4.2C37.2,18.5,38.2,19.5,39.6,19.5L39.6,19.5z"/>
	<path d="M50.5,19.5c1.3,0,2.4-1,2.4-2.3c0-1.3-2.4-4.2-2.4-4.2s-2.4,2.9-2.4,4.2C48.1,18.5,49.1,19.5,50.5,19.5L50.5,19.5z"/>
	<path d="M61.6,19.5c1.3,0,2.4-1,2.4-2.3c0-1.3-2.4-4.2-2.4-4.2s-2.4,2.9-2.4,4.2C59.3,18.5,60.3,19.5,61.6,19.5L61.6,19.5z"/>
</g>
</svg>
