<?xml version="1.0" encoding="utf-8"?>
<!-- Generator: Adobe Illustrator 19.1.0, SVG Export Plug-In . SVG Version: 6.00 Build 0)  -->
<svg version="1.1" id="Layer_1" xmlns="http://www.w3.org/2000/svg" xmlns:xlink="http://www.w3.org/1999/xlink" x="0px" y="0px"
	 width="100px" height="100px" viewBox="0 0 100 100" enable-background="new 0 0 100 100" xml:space="preserve">
<g>
	<path d="M50,11c-21,0-38,17.5-38,39c0,21.5,17,39,38,39c21,0,38-17.5,38-39C88,28.5,71,11,50,11z M18.2,66.8L47.9,22l5.5,10.6
		l4.1-7.1l24.2,39.7L18.2,66.8z"/>
	<ellipse cx="49.4" cy="48.3" rx="1.4" ry="1.4"/>
	<path d="M61.2,59.7c-0.4,0.9-0.9,1.1-1.4,1.1c-0.5,0-7.6,0-11.3,0l0,0.9c0.3,0,4.8,0,8.1,0c1.7,0,3.1,0,3.3,0
		c1-0.1,1.8-0.6,2.2-1.6L61.2,59.7z"/>
	<path d="M53.2,59.9h2.3v-5.2c0-0.7-0.5-1.2-1.2-1.2h-3.3v-0.6h3.2v-1.5h-3.2v-0.6c0-0.3-0.3-0.6-0.6-0.6h-2c-0.3,0-0.5,0.2-0.6,0.4
		v0.2V54v0.7c0,0.7,0.5,1.2,1.2,1.2h4.2v0.4h-6.1c-0.6,0-1.1-0.5-1.1-1.1V47c0-0.6,0.5-1.1,1.1-1.1h2.7h1.1v-3.6l8.8-3.4l-0.5-1.2
		l-19.1,7.5l0.5,1.2l9.3-3.6v1.7h-2.7c-1.4,0-2.5,1.2-2.5,2.6v8.3c0,1.4,1.1,2.6,2.5,2.6h6.1V59.9z"/>
</g>
</svg>
