<?xml version="1.0" encoding="utf-8"?>
<!-- Generator: Adobe Illustrator 19.1.0, SVG Export Plug-In . SVG Version: 6.00 Build 0)  -->
<svg version="1.1" id="Layer_1" xmlns="http://www.w3.org/2000/svg" xmlns:xlink="http://www.w3.org/1999/xlink" x="0px" y="0px"
	 width="100px" height="100px" viewBox="0 0 100 100" enable-background="new 0 0 100 100" xml:space="preserve">
<g>
	<polygon points="78.5,36.2 76.3,32.5 65.6,42.5 66.2,45.4 70.4,47.2 79.2,39.5 	"/>
	<polygon points="60.9,40.3 64.1,41.1 70.4,36.4 75.6,31.4 72.1,25.4 72,25.4 59.5,36.8 	"/>
	<polygon points="64.3,42.7 59,41.6 58,36.2 53.6,35.5 51.9,32.7 52.8,30.3 53.7,30.9 53,32.5 54.7,34.4 59.3,35.1 71.6,24.8 
		71.6,24.6 68.1,17.6 61.3,22.3 60.9,22 67.6,17.1 63.6,14 60.1,14 54.9,17 64.3,26.2 59.4,32.1 56.5,32 51.8,28.4 49.9,33.2 
		52.3,38 42.9,47 47.8,48.4 26.7,64.5 41.1,50 35.5,48.4 49.3,38 48.4,33.3 46.7,32.8 44.6,28.9 47.3,32.3 48.3,33 48.2,32.7 
		51.2,26.9 50.3,25.2 51.6,21 50.9,25.3 51.3,26.8 51.3,26.7 57.1,31 58.3,31.1 59.2,30.6 62,26 54.3,17.1 50.4,16.2 41.7,23.5 
		37.7,36 38.2,37.8 39.4,39.5 37.5,38 37.4,36.7 20.8,50.7 20.8,86 24.8,86 51.5,56.4 46.9,52.3 52.2,55.8 64,53.7 69.5,48.6 
		69.5,48.5 64.9,46.7 	"/>
</g>
</svg>
