<?xml version="1.0" encoding="utf-8"?>
<!-- Generator: Adobe Illustrator 19.1.0, SVG Export Plug-In . SVG Version: 6.00 Build 0)  -->
<svg version="1.1" id="Layer_1" xmlns="http://www.w3.org/2000/svg" xmlns:xlink="http://www.w3.org/1999/xlink" x="0px" y="0px"
	 width="100px" height="100px" viewBox="0 0 100 100" enable-background="new 0 0 100 100" xml:space="preserve">
<g>
	<ellipse cx="32.6" cy="39.2" rx="4.6" ry="4.5"/>
	<ellipse cx="47.8" cy="39.2" rx="4.6" ry="4.5"/>
	<ellipse cx="63" cy="39.2" rx="4.6" ry="4.5"/>
	<path d="M64.4,58.5v8.8h4.7v-8.8h9.6c0.7,0,1.4-0.3,1.8-0.9c0.4-0.5,0.6-1.2,0.4-1.9c-0.1-0.2-0.2-0.7-0.3-1.4
		c-4-17.9-8-27.3-12.8-29.7c-3.3-1.6-13-1.8-17.8-1.9V11h-4.6v11.8c-4.8,0-14.6,0.3-17.8,1.9c-4.8,2.3-8.8,11.7-12.8,29.7
		c-0.1,0.7-0.2,1.1-0.3,1.4c-0.2,0.7,0,1.4,0.4,1.9c0.4,0.5,1.1,0.9,1.8,0.9h9.7v8.8h4.7v-8.8h2.4v8.8h4.7v-8.8h4v8.8h4.7v-8.8h0.7
		h0h1.7v8.8h4.7v-8.8h3.1v8.8H62v-8.8H64.4z M29.7,28.6c2.2-1.1,11.8-1.5,18-1.4h0.1c6.2-0.1,15.8,0.3,18,1.4
		c3.9,1.9,7.6,14.9,9.5,23.1h-7.9l-0.5-7h-7.6l-0.5,7h-6.8l-0.5-7H44l-0.5,7h-6.9l-0.5-7h-7.6l-0.5,7h-7.7
		C22.2,43.5,25.8,30.5,29.7,28.6z"/>
	<path d="M11.8,83.9L11.8,83.9c1.2-0.1,1.9-1.1,1.9-2.2c0-0.8-0.4-1.4-0.9-1.8c-0.6-0.4-1.2-0.5-2.2-0.5H6.8v1.1h1l-0.1,7.2h-1v1.1
		h4c2.3,0,3.5-1,3.5-2.6C14.3,84.8,13.1,83.9,11.8,83.9z M9.3,80.5h1c0.5,0,0.8,0,1.1,0.2c0.4,0.2,0.6,0.6,0.6,1.2
		c0,1-0.7,1.5-1.7,1.5h-1L9.3,80.5z M10.5,87.7H9.3l0-3.1h1.3c1,0,1.9,0.5,1.9,1.5C12.6,87.3,11.7,87.7,10.5,87.7z"/>
	<polygon points="20.8,87.7 18,87.7 18,80.5 19,80.5 19,79.4 15.5,79.4 15.5,80.5 16.5,80.5 16.4,87.7 15.5,87.7 15.5,88.8 
		22.1,88.8 22.3,86.2 21,86.2 	"/>
	<path d="M29.3,79.4h-1.7l-3.5,8.3h-0.8v1.1h3.4v-1.1h-1l0.9-2.3h3.4l0.8,2.3h-0.9v1.1h3.5v-1.1h-0.9L29.3,79.4z M27,84.2l1.1-2.7
		c0.2-0.4,0.2-0.7,0.3-0.9h0c0,0.2,0.1,0.4,0.3,0.9l0.9,2.7H27z"/>
	<path d="M33.6,84.2c0,2.7,1.6,4.8,5.1,4.8c1.1,0,2.4-0.2,3-0.4l0.1-2.6h-1.4l-0.1,1.7c-0.4,0.1-1.1,0.1-1.7,0.1
		c-2,0-3.3-1.5-3.3-3.6c0-2.4,1.2-3.7,3.5-3.7c0.7,0,1.3,0.1,1.6,0.2v1.5h1.4v-2.4c-0.6-0.3-1.8-0.5-3-0.5
		C35.6,79.3,33.6,81.3,33.6,84.2z"/>
	<polygon points="47.2,83.9 51.2,80.5 52,80.5 52,79.4 48.3,79.4 48.3,80.5 49.4,80.5 45.6,83.8 45.6,80.5 46.6,80.5 46.6,79.4 
		43.1,79.4 43.1,80.5 44.1,80.5 44,87.7 43.1,87.7 43.1,88.8 46.6,88.8 46.6,87.7 45.6,87.7 45.6,84.3 49.2,87.7 48.2,87.7 
		48.2,88.8 52.1,88.8 52.1,87.7 51.3,87.7 	"/>
	<path d="M52.8,84.2c0,2.7,1.6,4.8,5.1,4.8c1.1,0,2.4-0.2,3-0.4L61,86h-1.4l-0.1,1.7c-0.4,0.1-1.1,0.1-1.7,0.1c-2,0-3.3-1.5-3.3-3.6
		c0-2.4,1.2-3.7,3.5-3.7c0.7,0,1.3,0.1,1.6,0.2v1.5H61v-2.4c-0.6-0.3-1.8-0.5-3-0.5C54.8,79.3,52.8,81.3,52.8,84.2z"/>
	<path d="M67.1,79.3c-3,0-4.9,2.1-4.9,5c0,2.9,1.8,4.7,4.6,4.7c3.3,0,4.7-2.5,4.7-5C71.6,81.1,69.9,79.3,67.1,79.3z M66.9,87.7
		c-2,0-2.9-1.7-2.9-3.5c0-2.6,1.4-3.7,3.1-3.7c2.3,0,2.8,1.8,2.8,3.5C69.9,85.3,69.4,87.7,66.9,87.7z"/>
	<path d="M79,86.4c-0.1,0.2-0.2,0.5-0.2,0.8h0c-0.1-0.3-0.1-0.5-0.2-0.8l-2.8-7h-3.2v1.1h1.1l-0.1,7.2h-1v1.1H76v-1.1h-1.1l0.1-6.3
		h0c0.1,0.5,0.2,1,0.4,1.4l2.4,6h1.5l2.5-6.2c0.2-0.4,0.2-0.8,0.4-1.2l0,0l-0.1,6.4h-1v1.1h3.5v-1.1h-1l-0.1-7.2h1.1v-1.1h-3
		L79,86.4z"/>
	<path d="M90.8,83.9L90.8,83.9c1.2-0.1,1.9-1.1,1.9-2.2c0-0.8-0.4-1.4-0.9-1.8c-0.6-0.4-1.2-0.5-2.2-0.5h-3.8v1.1h1l-0.1,7.2h-1v1.1
		h4c2.3,0,3.5-1,3.5-2.6C93.2,84.8,92,83.9,90.8,83.9z M88.3,80.5h1c0.5,0,0.8,0,1.1,0.2c0.4,0.2,0.6,0.6,0.6,1.2
		c0,1-0.7,1.5-1.7,1.5h-1L88.3,80.5z M89.5,87.7h-1.3l0-3.1h1.3c1,0,1.9,0.5,1.9,1.5C91.5,87.3,90.6,87.7,89.5,87.7z"/>
</g>
</svg>
