<?xml version="1.0" encoding="utf-8"?>
<!-- Generator: Adobe Illustrator 19.1.0, SVG Export Plug-In . SVG Version: 6.00 Build 0)  -->
<svg version="1.1" id="Layer_1" xmlns="http://www.w3.org/2000/svg" xmlns:xlink="http://www.w3.org/1999/xlink" x="0px" y="0px"
	 width="100px" height="100px" viewBox="0 0 100 100" enable-background="new 0 0 100 100" xml:space="preserve">
<g>
	<path d="M59.8,57.9l-2.3-0.8l-6-7.7l-1.7,1.8l-2.5-4.9L45,49.4l-2.2-1.9L40,49.6l-5.5,8.3H30L47.6,36l7.2,11l4.9-4.1l10.3,15H67
		l-0.1-1.1l-2.6-3c0,0-0.9,0.5-1,0.5c-0.1,0-3.2-4.2-3.2-4.2l-1.2,2.2L57,51.1l4.2,6.7H59.8L59.8,57.9z"/>
	<path d="M54.7,76.6c0-2.5-2.2-3.7-4.5-3.7h-3.1L47,80.5h3C52.6,80.5,54.7,79.3,54.7,76.6L54.7,76.6z"/>
	<path d="M53.5,66.3c0-1.6-0.6-2.5-1.5-3c-0.6-0.4-1.3-0.4-2.5-0.4h-2.3L47.1,70h2.4C52,70,53.5,68.7,53.5,66.3L53.5,66.3z"/>
	<path d="M72.3,26H59.9L70.3,9H56.8L44.8,30.3h-4.4c-1,0-1.8,0.8-1.8,1.8c0,1,0.8,1.8,1.8,1.8h19.1c1,0,1.8-0.8,1.8-1.8
		c0-1-0.8-1.8-1.8-1.8h-2.2l1.3-2.2h13.6c0.9,0,1.7,0.8,1.7,1.7v29.9H26.1V29.8c0-0.9,0.7-1.7,1.7-1.7H44l1.2-2.1H27.7
		c-2.1,0-3.7,1.7-3.7,3.8v57.5c0,2.1,1.7,3.8,3.7,3.8h44.5c2.1,0,3.7-1.7,3.7-3.8V29.8C76,27.7,74.3,26,72.3,26L72.3,26z M41.1,80.5
		h2.3l0.1-17.5h-2.4v-2.7h9c2.4,0,3.8,0.3,5.2,1.3c1.1,0.8,2,2.4,2,4.3c0,2.6-1.6,5-4.5,5.2v0.1c3,0,5.8,2.1,5.8,5.6
		c0,3.9-2.7,6.4-8.1,6.4h-9.4V80.5L41.1,80.5z M73.9,87.2c0,0.9-0.7,1.7-1.7,1.7H27.7c-0.9,0-1.7-0.8-1.7-1.7v-2.9h47.9V87.2
		L73.9,87.2z"/>
	<polygon points="45.9,24.6 49.1,18.8 43.2,9 29.7,9 40.1,24.6 45.9,24.6 	"/>
</g>
</svg>
