<?xml version="1.0" encoding="utf-8"?>
<!-- Generator: Adobe Illustrator 19.1.0, SVG Export Plug-In . SVG Version: 6.00 Build 0)  -->
<svg version="1.1" id="Layer_1" xmlns="http://www.w3.org/2000/svg" xmlns:xlink="http://www.w3.org/1999/xlink" x="0px" y="0px"
	 width="100px" height="100px" viewBox="0 0 100 100" enable-background="new 0 0 100 100" xml:space="preserve">
<g>
	<path d="M44.9,47.3c7.4,0,13.4-6,13.4-13.4c0-7.4-6-13.4-13.4-13.4c-7.4,0-13.4,6-13.4,13.4C31.5,41.3,37.5,47.3,44.9,47.3z
		 M52.1,32.6c0.9,0,1.6,0.7,1.6,1.6c0,0.9-0.7,1.6-1.6,1.6c-0.9,0-1.6-0.7-1.6-1.6C50.5,33.3,51.2,32.6,52.1,32.6z M42.6,35.8
		c0-1.4,1.1-2.5,2.4-2.5c1.4,0,2.5,1.1,2.5,2.5v3.7c0,1.4-1.1,2.5-2.5,2.5c-1.4,0-2.4-1.1-2.4-2.5V35.8z M37.8,32.5
		c0.9,0,1.6,0.7,1.6,1.6c0,0.9-0.7,1.6-1.6,1.6c-0.9,0-1.6-0.7-1.6-1.6C36.2,33.3,36.9,32.5,37.8,32.5z"/>
	<path d="M64.1,50.2C64.1,50.2,64.2,50.2,64.1,50.2l0.2,0L64.1,50.2z"/>
	<path d="M74.1,17.3c1.7-1.7,2.5-3.9,2.4-6l-8.4,8.4C70.3,19.8,72.5,19,74.1,17.3z"/>
	<path d="M76.2,11c-2.1-0.1-4.3,0.7-6,2.4c-1.7,1.7-2.5,3.9-2.4,6C67.8,19.4,76.2,11,76.2,11z"/>
	<path d="M74.1,41.5c1.7-1.7,2.5-3.9,2.4-6l-8.4,8.4C70.3,44,72.5,43.1,74.1,41.5z"/>
	<path d="M76.2,35.1c-2.1-0.1-4.3,0.7-6,2.4c-1.7,1.7-2.5,3.9-2.4,6C67.8,43.5,76.2,35.2,76.2,35.1z"/>
	<path d="M74.1,65.6c1.7-1.7,2.5-3.9,2.4-6L68.1,68C70.3,68.1,72.5,67.3,74.1,65.6z"/>
	<path d="M76.2,59.3c-2.1-0.1-4.3,0.7-6,2.4c-1.7,1.7-2.5,3.9-2.4,6C67.8,67.7,76.2,59.3,76.2,59.3z"/>
	<path d="M64.9,80.4c0-0.6-0.4-1.1-1-1.1v-0.1c0.6-0.1,1-0.6,1-1.1c0-0.6-0.4-1-1-1.1v-0.1c0.5-0.1,1-0.6,1-1.1c0-0.6-0.4-1.1-1-1.1
		l-1.5,0H60v-0.2v-7.1c0-1.6-0.5-3.2-1.3-4.4v0c-1.4-1.9-3.6-3.1-6.1-3.1c-4.2,0-7.6,3.4-7.6,7.6h-0.8c0-4.6,3.8-8.4,8.4-8.4
		c2.3,0,4.5,1,6.1,2.6V58h-8.1c-5.8,0-10.2-4.1-10.2-9.5h0.8c0,4.9,4,8.7,9.3,8.7h8.1v-0.1h5.2l0.3,0.1c0.6-0.1,1-0.6,1-1.1
		c0-0.6-0.4-1.1-1-1.1v-0.1c0.6-0.1,1-0.6,1-1.1c0-0.6-0.4-1-1-1.1v-0.1c0.5-0.1,1-0.6,1-1.1c0-0.6-0.4-1-1-1.1h-5.5v0h-5v-0.8h5
		V37.5c-1.6,6.1-7.1,10.6-13.7,10.6c-6.1,0-11.3-3.8-13.3-9.2v15.7l0,0.7c0,13.4,10,24.4,22.9,26.1c-0.9-0.8-1.5-2-1.5-3.3l0-3.6
		h0.8l0,3.6c0,1.7,1.2,3.2,2.9,3.5c0.4,0,0.8,0,1.3,0c0.3,0,0.7,0,1,0l4.4,0h0.5C64.4,81.5,64.9,81,64.9,80.4z"/>
	<path d="M27.6,27.1c0-2,1.6-3.5,3.5-3.5c1.1,0,2.2,0.6,2.8,1.4c0.3-0.4,0.7-0.8,1.1-1.2c-0.4-1.2-1.3-2.2-2.5-2.7l-1.3-0.6
		c-2.4-1.1-5.2,0-6.3,2.3l-1.1,2.4c-1.1,2.4,0,5.2,2.3,6.3l1.3,0.6c1.1,0.5,2.3,0.5,3.4,0.2c0.1-0.6,0.2-1.1,0.3-1.6c0,0,0,0,0,0
		C29.2,30.7,27.6,29.1,27.6,27.1z"/>
	<path d="M65.3,22.7l0.7,1.5V8.6h-2.4v12.1C64.3,21.1,64.9,21.9,65.3,22.7z"/>
	<path d="M63.8,31.9l-0.3,0.1v17.7h0.7l0,0c0.8,0.1,1.3,0.8,1.3,1.6c0,0.5-0.2,0.9-0.5,1.2c0.3,0.3,0.5,0.7,0.5,1.2
		c0,0.5-0.2,0.9-0.5,1.2c0.3,0.3,0.5,0.7,0.5,1.2c0,0.8-0.6,1.5-1.4,1.6l-0.1,0l-0.4-0.1h-0.3v16.7l0.4,0l0,0
		c0.8,0.1,1.4,0.8,1.4,1.6c0,0.5-0.2,0.9-0.5,1.2c0.3,0.3,0.5,0.7,0.5,1.2c0,0.5-0.2,0.9-0.5,1.2c0.3,0.3,0.5,0.7,0.5,1.2
		c0,0.8-0.6,1.5-1.4,1.6l0,0l-0.4,0v9.4H66V30.1C65.4,30.9,64.7,31.5,63.8,31.9z"/>
	<path d="M64.9,22.9c-1.1-2.4-3.9-3.4-6.3-2.3l-1.3,0.6c-1.2,0.6-2.1,1.5-2.5,2.7c0.4,0.4,0.8,0.8,1.1,1.2c0.6-0.8,1.7-1.4,2.8-1.4
		c2,0,3.5,1.6,3.5,3.5c0,2-1.6,3.5-3.5,3.5c0,0,0,0,0,0c0.1,0.5,0.2,1.1,0.3,1.6c1.1,0.3,2.3,0.3,3.4-0.2l1.3-0.6
		c2.4-1.1,3.4-3.9,2.3-6.3L64.9,22.9z"/>
	<path d="M45,41.2c1,0,1.8-0.8,1.8-1.8v-3.5c0-1-0.8-1.8-1.8-1.8c-1,0-1.8,0.8-1.8,1.8v3.5C43.3,40.4,44.1,41.2,45,41.2z"/>
</g>
</svg>
