<?xml version="1.0" encoding="utf-8"?>
<!-- Generator: Adobe Illustrator 19.1.0, SVG Export Plug-In . SVG Version: 6.00 Build 0)  -->
<svg version="1.1" id="Layer_1" xmlns="http://www.w3.org/2000/svg" xmlns:xlink="http://www.w3.org/1999/xlink" x="0px" y="0px"
	 width="100px" height="100px" viewBox="0 0 100 100" enable-background="new 0 0 100 100" xml:space="preserve">
<g>
	<path d="M76,27.3c0.2-0.9,0.3-1.9,0.4-2.8c0.1-1.1,0.2-2.2,0.3-3.4c-7,0-26.3,0-26.3,0s-0.1,0-0.4,0c-0.3,0-0.4,0-0.4,0
		s-19.3,0-26.3,0c0.1,1.2,0.1,2.3,0.3,3.4c0.1,1,0.2,1.9,0.4,2.8c1.1,6.6,3.5,11.4,6.4,14.9c0.9,1.1,1.9,2.1,2.9,3
		c7.5,6.6,16.4,6.6,16.4,6.6s0.1,0,0.4,0c0.3,0,0.4,0,0.4,0s8.9,0,16.4-6.6c1-0.9,2-1.9,2.9-3C72.5,38.7,74.9,33.9,76,27.3z"/>
	<polygon points="57.5,69.3 57.5,63.6 50,63.6 42.5,63.6 42.5,69.3 50,69.3 	"/>
	<polygon points="59.4,57.7 54.7,53.7 50,53.7 45.3,53.7 40.6,57.7 50,57.7 	"/>
	<path d="M73.6,42.6c14.6-6.1,11-17.8,11-17.9l-0.4-1.2L83,23.7c0,0-2.1,0.2-4.5,0.5c0,0.2,0,0.4-0.1,0.6c-0.1,0.8-0.2,1.6-0.3,2.5
		c1.5-0.1,2.9-0.3,3.9-0.4c0.3,2.5,0.1,8.2-7.8,12.2c-0.9,1.6-1.9,3.1-3,4.4c-0.7,0.9-1.5,1.7-2.3,2.5c0.7,1.8,2.3,3,2.7,3.2
		c0.2,0.1,0.4,0.1,0.6,0.1c0.6,0,1.1-0.3,1.4-0.9c0.3-0.7,0-1.5-0.6-1.9c-0.4-0.3-1.5-1.4-1.4-2.2C71.7,43.7,72.4,43.1,73.6,42.6z"
		/>
	<polygon points="34.3,75.2 34.3,78.9 50,78.9 65.7,78.9 65.7,75.2 50,75.2 	"/>
	<path d="M38.6,73.2H50h11.4V59.6H50H38.6V73.2z M40.5,61.6H50h9.5v9.6H50h-9.5V61.6z"/>
	<path d="M25.8,39c-7.9-4-8.1-9.8-7.8-12.2c1,0.1,2.4,0.3,3.9,0.4c-0.1-0.9-0.3-1.7-0.3-2.5c0-0.2,0-0.4-0.1-0.6
		c-2.4-0.2-4.5-0.5-4.5-0.5l-1.2-0.1l-0.4,1.2c0,0.1-3.7,11.8,11,17.9c1.2,0.5,1.9,1.1,2,1.6c0.1,0.8-0.9,1.9-1.4,2.2
		c-0.6,0.4-0.9,1.2-0.6,1.9c0.2,0.6,0.8,0.9,1.4,0.9c0.2,0,0.4,0,0.6-0.1c0.4-0.2,2-1.4,2.7-3.2c-0.8-0.8-1.6-1.6-2.3-2.5
		C27.7,42.1,26.7,40.6,25.8,39z"/>
</g>
</svg>
