<?xml version="1.0" encoding="utf-8"?>
<!-- Generator: Adobe Illustrator 19.1.0, SVG Export Plug-In . SVG Version: 6.00 Build 0)  -->
<svg version="1.1" id="Layer_1" xmlns="http://www.w3.org/2000/svg" xmlns:xlink="http://www.w3.org/1999/xlink" x="0px" y="0px"
	 width="100px" height="100px" viewBox="0 0 100 100" enable-background="new 0 0 100 100" xml:space="preserve">
<g>
	<path d="M38.3,10h-5.8c-1.4,0-2.6,1.1-2.6,2.6v50.7c0,1.4,1.1,2.6,2.6,2.6h5.8c1.4,0,2.6-1.1,2.6-2.6V12.6
		C40.9,11.1,39.8,10,38.3,10L38.3,10z M39.1,24.9h-6.9c-0.3,0-0.6-0.3-0.6-0.6c0-0.3,0.3-0.6,0.6-0.6h6.9c0.3,0,0.6,0.3,0.6,0.6
		C39.6,24.6,39.4,24.9,39.1,24.9L39.1,24.9z M39.1,22.6h-6.9c-0.3,0-0.6-0.3-0.6-0.6c0-0.3,0.3-0.6,0.6-0.6h6.9
		c0.3,0,0.6,0.3,0.6,0.6C39.6,22.4,39.4,22.6,39.1,22.6L39.1,22.6z M39.1,20.2h-6.9c-0.3,0-0.6-0.3-0.6-0.6c0-0.3,0.3-0.6,0.6-0.6
		h6.9c0.3,0,0.6,0.3,0.6,0.6C39.6,19.9,39.4,20.2,39.1,20.2L39.1,20.2z"/>
	<path d="M62.1,22.5l-5.5,1.7c-1.4,0.4-2.1,1.9-1.7,3.2l11.3,36.2c0.4,1.4,1.9,2.1,3.2,1.7l5.5-1.7c1.4-0.4,2.1-1.9,1.7-3.2
		L65.4,24.2C64.9,22.8,63.5,22.1,62.1,22.5L62.1,22.5z M66.5,34.6l-6.6,2c-0.3,0.1-0.6-0.1-0.7-0.4c-0.1-0.3,0.1-0.6,0.4-0.7l6.6-2
		c0.3-0.1,0.6,0.1,0.7,0.4C67,34.2,66.8,34.5,66.5,34.6L66.5,34.6z M65.8,32.5l-6.6,2c-0.3,0.1-0.6-0.1-0.7-0.4
		c-0.1-0.3,0.1-0.6,0.4-0.7l6.6-2c0.3-0.1,0.6,0.1,0.7,0.4C66.3,32,66.1,32.4,65.8,32.5L65.8,32.5z M65.1,30.1l-6.6,2
		c-0.3,0.1-0.6-0.1-0.7-0.4c-0.1-0.3,0.1-0.6,0.4-0.7l6.6-2c0.3-0.1,0.6,0.1,0.7,0.4C65.6,29.7,65.4,30,65.1,30.1L65.1,30.1z"/>
	<path d="M51.3,10h-5.8c-1.4,0-2.6,1.1-2.6,2.6v50.7c0,1.4,1.1,2.6,2.6,2.6h5.8c1.4,0,2.6-1.1,2.6-2.6V12.6
		C53.9,11.1,52.7,10,51.3,10L51.3,10z M52,24.9h-6.9c-0.3,0-0.6-0.3-0.6-0.6c0-0.3,0.3-0.6,0.6-0.6H52c0.3,0,0.6,0.3,0.6,0.6
		C52.6,24.6,52.4,24.9,52,24.9L52,24.9z M52,22.6h-6.9c-0.3,0-0.6-0.3-0.6-0.6c0-0.3,0.3-0.6,0.6-0.6H52c0.3,0,0.6,0.3,0.6,0.6
		C52.6,22.4,52.4,22.6,52,22.6L52,22.6z M52,20.2h-6.9c-0.3,0-0.6-0.3-0.6-0.6c0-0.3,0.3-0.6,0.6-0.6H52c0.3,0,0.6,0.3,0.6,0.6
		C52.6,19.9,52.4,20.2,52,20.2L52,20.2z"/>
	<polygon points="78.7,71.8 25.2,71.8 25.2,68.4 78.7,68.4 78.7,71.8 	"/>
	<path d="M6.9,78.6h4.2v1.3H10l2.4,7.2c0.1,0.4,0.2,0.8,0.3,1.2h0c0.1-0.4,0.2-0.8,0.3-1.2l2-5.4l-0.6-1.8h-1.1v-1.3h4.1v1.3h-1.1
		l2.2,7.1c0.1,0.4,0.2,0.9,0.3,1.3h0c0.1-0.4,0.2-0.9,0.4-1.3l2.4-7.1h-1.2v-1.3h4v1.3h-1l-3.7,9.9h-2l-1.9-6h0l-2.2,6h-2l-3.7-9.9
		h-1V78.6L6.9,78.6z"/>
	<polygon points="32.3,88.5 33.4,88.5 33.5,84.9 28.3,84.9 28.2,88.5 29.4,88.5 29.4,89.8 25.3,89.8 25.3,88.5 26.4,88.5 26.5,79.9 
		25.3,79.9 25.3,78.6 29.4,78.6 29.4,79.9 28.3,79.9 28.3,83.5 33.5,83.5 33.5,79.9 32.3,79.9 32.3,78.6 36.5,78.6 36.5,79.9 
		35.3,79.9 35.3,88.5 36.5,88.5 36.5,89.8 32.3,89.8 32.3,88.5 	"/>
	<polygon points="37.9,88.5 39,88.5 39.1,79.9 37.9,79.9 37.9,78.6 42,78.6 42,79.9 40.9,79.9 40.8,88.5 42,88.5 42,89.8 37.9,89.8 
		37.9,88.5 	"/>
	<path d="M45.4,86.7v1.5c0.3,0.2,1.1,0.4,2,0.4c1.4,0,2.4-0.6,2.4-1.8c0-0.9-0.5-1.3-1.7-1.6l-2-0.6c-1.3-0.4-2.4-1.1-2.4-2.9
		c0-2.2,1.9-3.3,4.2-3.3c1.5,0,2.6,0.3,3.4,0.5v2.5h-1.7v-1.3c-0.2-0.1-0.8-0.3-1.7-0.3c-1.7,0-2.4,0.8-2.4,1.6c0,1,0.7,1.3,1.7,1.6
		l1.7,0.5c1.3,0.3,2.7,1,2.7,3c0,2.2-1.7,3.6-4.3,3.6c-0.8,0-2.8-0.2-3.8-0.6v-2.7H45.4L45.4,86.7z"/>
	<polygon points="56,88.5 57.2,88.5 57.2,79.9 54.6,79.9 54.6,81.5 53,81.5 53,78.6 63.2,78.6 63.3,81.5 61.7,81.5 61.6,79.9 
		59,79.9 59,88.5 60.3,88.5 60.3,89.8 56,89.8 56,88.5 	"/>
	<polygon points="64.3,88.5 65.4,88.5 65.5,79.9 64.3,79.9 64.3,78.6 68.4,78.6 68.4,79.9 67.3,79.9 67.2,88.5 70.5,88.5 70.7,86.6 
		72.2,86.6 72,89.8 64.3,89.8 64.3,88.5 	"/>
	<polygon points="73.9,88.5 75,88.5 75.1,79.9 73.8,79.9 73.8,78.6 81.7,78.6 81.7,81.5 80.3,81.5 80.2,79.9 76.9,79.9 76.9,83.3 
		80.1,83.3 80.1,84.8 76.9,84.8 76.8,88.5 80.3,88.5 80.4,86.7 81.9,86.7 81.8,89.8 73.9,89.8 73.9,88.5 	"/>
	<path d="M83.3,88.5h1.1l0.1-8.6h-1.2v-1.3h5c2.3,0,3.4,1.3,3.4,3c0,1.9-1.3,2.8-2.7,3v0c0.6,0.1,1,0.6,1.4,1.2l1.2,2.1
		c0.3,0.5,0.6,0.7,1,0.7h0.4v1.3h-1c-0.9,0-1.4-0.1-2-1.2L88.5,86c-0.5-0.8-0.7-1-1.2-1h-1l0,3.5h1.3v1.3h-4.2V88.5L83.3,88.5z
		 M87.7,83.6c1.3,0,2.2-0.7,2.2-1.9c0-1.2-0.7-1.8-2-1.8h-1.5l0,3.7H87.7L87.7,83.6z"/>
</g>
</svg>
