<?xml version="1.0" encoding="utf-8"?>
<!-- Generator: Adobe Illustrator 19.1.0, SVG Export Plug-In . SVG Version: 6.00 Build 0)  -->
<svg version="1.1" id="Layer_1" xmlns="http://www.w3.org/2000/svg" xmlns:xlink="http://www.w3.org/1999/xlink" x="0px" y="0px"
	 width="100px" height="100px" viewBox="0 0 100 100" enable-background="new 0 0 100 100" xml:space="preserve">
<g>
	<path d="M75.2,46c-1.3-7.4-4.1-14.6-7.8-20.1c-2.7-3.9-7.2-9-13.3-10.5c-1.2-0.3-2.4-0.5-3.7-0.5c-1.2,0-2.5,0.1-3.7,0.4
		c-6.2,1.5-10.8,6.4-13.5,10.3c-3.8,5.4-6.7,12.5-8.2,19.8c-0.9,4.8-3.3,21.4,6,31.8c4.5,5.1,11,7.7,19.3,7.7c0.1,0,0.3,0,0.4,0
		c7.5-0.1,13.5-2.4,17.8-7C78.1,67.8,76,51,75.2,46z M67.8,77.3c-4.1,4.4-9.9,6.6-17.1,6.7c-8.1,0.1-14.6-2.4-19-7.3
		c-9-10.1-6.7-26.2-5.8-30.9c1.4-7.2,4.2-14.1,8-19.4c2.7-3.7,7.1-8.5,12.9-9.9c1.1-0.3,2.3-0.4,3.4-0.4c0,0,0,0,0,0
		c1.2,0,2.3,0.1,3.4,0.4c5.8,1.5,10.1,6.3,12.7,10.1c3.7,5.4,6.4,12.4,7.7,19.7C75,51,77.1,67.5,67.8,77.3z"/>
	<path d="M28.6,48.8l1.4-1.7l5.8-7.1l5.8,7.1l1.4,1.7l1.4-1.7L50,40l5.8,7.1l1.4,1.7l1.4-1.7l5.8-7.1l5.8,7.1l1.4,1.7l1.4-1.7l0.8-1
		c-0.2-1.3-0.5-2.6-0.8-3.9l-1.4,1.7l-5.8-7.1l-1.4-1.7l-1.4,1.7l-5.8,7.1l-5.8-7.1L50,35.1l-1.4,1.7l-5.8,7.1l-5.8-7.1l-1.4-1.7
		l-1.4,1.7l-5.8,7.1l-1.3-1.6c-0.3,1.2-0.6,2.3-0.8,3.5c0,0.1,0,0.2-0.1,0.3l0.8,1L28.6,48.8z"/>
	<path d="M71.4,53.7l-5.8-7.1l-1.4-1.7l-1.4,1.7l-5.8,7.1l-5.8-7.1L50,44.9l-1.4,1.7l-5.8,7.1l-5.8-7.1l-1.4-1.7l-1.4,1.7l-5.8,7.1
		l-2.7-3.4c-0.2,1.5-0.2,3-0.3,4.6l1.6,2l1.4,1.7l1.4-1.7l5.8-7.1l5.8,7.1l1.4,1.7l1.4-1.7l5.8-7.1l5.8,7.1l1.4,1.7l1.4-1.7l5.8-7.1
		l5.8,7.1l1.4,1.7l1.4-1.7l1.6-2c0-1.6-0.1-3.1-0.2-4.6L71.4,53.7z"/>
	<path d="M65.6,56.4l-1.4-1.7l-1.4,1.7l-5.8,7.1l-5.8-7.1L50,54.7l-1.4,1.7l-5.8,7.1l-5.8-7.1l-1.4-1.7l-1.4,1.7l-5.8,7.1L25.8,60
		c0.2,2.2,0.6,4.3,1.2,6.4l0.2,0.3l1.4,1.7l1.4-1.7l5.8-7.1l5.8,7.1l1.4,1.7l1.4-1.7l5.8-7.1l5.8,7.1l1.4,1.7l1.4-1.7l5.8-7.1
		l5.8,7.1l1.4,1.7l1.4-1.7l0.2-0.2c0.6-2.1,1-4.2,1.2-6.4l-2.8,3.4L65.6,56.4z"/>
</g>
</svg>
