<?xml version="1.0" encoding="utf-8"?>
<!-- Generator: Adobe Illustrator 19.1.0, SVG Export Plug-In . SVG Version: 6.00 Build 0)  -->
<svg version="1.1" id="Layer_1" xmlns="http://www.w3.org/2000/svg" xmlns:xlink="http://www.w3.org/1999/xlink" x="0px" y="0px"
	 width="100px" height="100px" viewBox="0 0 100 100" enable-background="new 0 0 100 100" xml:space="preserve">
<g>
	<path d="M23.7,67.7h1.5L25.4,56h-1.6v-1.8h6.1c1.6,0,2.6,0.2,3.5,0.9c0.7,0.5,1.4,1.6,1.4,2.9c0,1.8-1.1,3.3-3,3.5v0
		c2,0,3.9,1.4,3.9,3.7c0,2.6-1.8,4.3-5.5,4.3h-6.4V67.7L23.7,67.7z M29.7,67.7c1.8,0,3.2-0.7,3.2-2.6c0-1.7-1.5-2.5-3.1-2.5h-2.1
		l0,5.1H29.7L29.7,67.7z M29.4,60.7c1.7,0,2.7-0.9,2.7-2.4c0-1-0.4-1.6-1-2c-0.4-0.2-0.9-0.3-1.7-0.3h-1.6l0,4.7H29.4L29.4,60.7z"/>
	<polygon points="37.6,67.7 39.2,67.7 39.3,56 37.5,56 37.5,54.2 48.2,54.2 48.3,58.2 46.3,58.2 46.1,56 41.7,56 41.7,60.7 46,60.7 
		46,62.6 41.7,62.6 41.6,67.7 46.3,67.7 46.4,65.2 48.5,65.2 48.3,69.5 37.6,69.5 37.6,67.7 	"/>
	<path d="M49.8,67.7h1.3l5.5-13.5h2.7l5.1,13.5h1.4v1.8h-5.6v-1.8h1.4l-1.3-3.8H55l-1.4,3.8h1.6v1.8h-5.3V67.7L49.8,67.7z
		 M58.2,57.7c-0.2-0.7-0.3-1.1-0.4-1.4h0c-0.1,0.3-0.2,0.7-0.4,1.4L55.7,62h4L58.2,57.7L58.2,57.7z"/>
	<polygon points="69.1,67.7 70.7,67.7 70.8,56 67.2,56 67.2,58.2 65,58.2 65.1,54.2 78.9,54.2 79,58.2 76.8,58.2 76.7,56 73.2,56 
		73.2,67.7 74.9,67.7 74.9,69.5 69.1,69.5 69.1,67.7 	"/>
	<path d="M23.5,84.6h1.2l0.1-8.8h-1.2v-1.3h4.3c1.5,0,2.1,0.1,2.7,0.5c0.9,0.5,1.5,1.6,1.5,2.8c0,1.3-0.7,2.5-1.6,3
		c-0.7,0.4-1.3,0.5-2.2,0.5h-1.7l0,3.2h1.4V86h-4.4V84.6L23.5,84.6z M27.8,80.1c1.7,0,2.3-0.9,2.3-2.2c0-0.7-0.3-1.2-0.6-1.6
		c-0.5-0.4-1-0.5-1.9-0.5h-1l0,4.2H27.8L27.8,80.1z"/>
	<polygon points="33.4,84.6 34.5,84.6 34.6,75.9 33.4,75.9 33.4,74.5 37.6,74.5 37.6,75.9 36.4,75.9 36.4,84.6 37.6,84.6 37.6,86 
		33.4,86 33.4,84.6 	"/>
	<polygon points="39.1,84.6 40.3,84.6 40.3,75.9 39,75.9 39,74.5 47.1,74.5 47.1,77.5 45.6,77.5 45.5,75.9 42.2,75.9 42.1,79.4 
		45.4,79.4 45.4,80.8 42.1,80.8 42.1,84.6 45.6,84.6 45.7,82.8 47.3,82.8 47.1,86 39.1,86 39.1,84.6 	"/>
	<path d="M48.7,84.6h1.1l0.1-8.8h-1.2v-1.3h5.1c2.4,0,3.5,1.4,3.5,3c0,2-1.3,2.9-2.7,3v0c0.6,0,1.1,0.6,1.5,1.2l1.2,2.1
		c0.3,0.5,0.6,0.7,1,0.7h0.4V86h-1.1c-1,0-1.4-0.1-2.1-1.2L54,82.1c-0.5-0.8-0.7-1-1.3-1h-1l0,3.5H53V86h-4.3V84.6L48.7,84.6z
		 M53.1,79.7c1.3,0,2.2-0.7,2.2-1.9c0-1.2-0.7-1.9-2.1-1.9h-1.5l0,3.8H53.1L53.1,79.7z"/>
	<path d="M59.3,84.6h1.1l0.1-8.8h-1.2v-1.3h5.1c2.4,0,3.5,1.4,3.5,3c0,2-1.3,2.9-2.7,3v0c0.6,0,1.1,0.6,1.5,1.2l1.2,2.1
		c0.3,0.5,0.6,0.7,1,0.7h0.4V86h-1.1c-1,0-1.4-0.1-2.1-1.2l-1.6-2.7c-0.5-0.8-0.7-1-1.3-1h-1l0,3.5h1.3V86h-4.3V84.6L59.3,84.6z
		 M63.7,79.7c1.3,0,2.2-0.7,2.2-1.9c0-1.2-0.7-1.9-2.1-1.9h-1.5l0,3.8H63.7L63.7,79.7z"/>
	<polygon points="70,84.6 71.2,84.6 71.2,75.9 69.9,75.9 69.9,74.5 78,74.5 78,77.5 76.5,77.5 76.4,75.9 73.1,75.9 73.1,79.4 
		76.3,79.4 76.3,80.8 73.1,80.8 73,84.6 76.5,84.6 76.6,82.8 78.2,82.8 78,86 70,86 70,84.6 	"/>
	<path d="M72,52.1L21.6,29.8c-0.6-0.2-0.8-0.9-0.5-1.5l0-0.1c0.3-0.6,0.9-0.8,1.5-0.5l49.7,22l0,0l1.8-0.2c0.6-0.1,1.2,0.4,1.3,1.1
		l0,0.1c0.1,0.6-0.4,1.2-1,1.3l-1.5,0.2C72.6,52.2,72.3,52.2,72,52.1L72,52.1L72,52.1z M71.9,20.9c-2.1,0.2-3.7,2.1-3.5,4.2
		c0.2,2.1,2.1,3.7,4.2,3.5c2.1-0.2,3.7-2.1,3.5-4.2C75.9,22.2,74,20.7,71.9,20.9L71.9,20.9L71.9,20.9z M50.2,18.4
		c0.1,4.1,0.7,9.1,0.6,9.1l-9,1.9c0,0-3,0.3-2.9,2.9c0.1,2.6,2.4,3,3.2,2.7c0.6-0.2,6.6-1.4,10.6-2.2c2.6-0.5,4.3-0.7,4.3-2.1
		c0.1-2.8-0.6-7.8-0.4-7.7c2.4,0.9,5.7,2.6,5.7,2.6l0.8,6.4c0.2,1.9,0.5,2.9,2.3,3.7c2.3,1.1,5.3,2.4,5.6,2.4c0.3,0,1.9,1.2,2.8-0.7
		c0.9-1.9-1.2-2.8-1.2-2.8l-4.8-2.2c-0.4-4.7-0.3-5.4-0.7-8.8c0-3.2-1.3-4.2-3.2-5.1l-8.1-4C52.7,12.9,50.2,15.1,50.2,18.4
		L50.2,18.4z"/>
</g>
</svg>
