<?xml version="1.0" encoding="utf-8"?>
<!-- Generator: Adobe Illustrator 19.1.0, SVG Export Plug-In . SVG Version: 6.00 Build 0)  -->
<svg version="1.1" id="Layer_1" xmlns="http://www.w3.org/2000/svg" xmlns:xlink="http://www.w3.org/1999/xlink" x="0px" y="0px"
	 width="100px" height="100px" viewBox="0 0 100 100" enable-background="new 0 0 100 100" xml:space="preserve">
<g>
	<path d="M79.2,65.1c-3.5-1.9-12.3-8.4-12.3-26.3c0-0.5-0.1-0.9-0.2-1.4c-0.6-3.9-2.5-7.3-5.4-9.9c-0.4-0.5-3.7-4.1-3.7-7.2
		c0-0.1,0-0.2,0-0.3c-0.1-4.1-3.4-7.3-7.6-7.3c-4.2,0-7.6,3.3-7.6,7.4c0,0.1,0,0.2,0,0.3c-0.1,3-3.3,6.6-3.8,7.1
		c-2.8,2.5-4.8,6-5.4,9.9c-0.1,0.4-0.2,0.9-0.2,1.3c0,17.9-8.8,24.4-12.3,26.3c-0.7,0.4-1.4,1.3-1.4,2.1v3.5c0,0.8,0.7,1.5,1.5,1.5
		h58.1c0.8,0,1.5-0.7,1.5-1.5v-3.5C80.6,66.4,80,65.5,79.2,65.1L79.2,65.1z M50,23.2c-1.7,0-3-1.3-3-3c0-1.6,1.4-3,3-3
		c1.7,0,3,1.3,3,3C53,21.9,51.7,23.2,50,23.2L50,23.2z"/>
	<path d="M50,87.2c6,0,10.8-4.7,11-10.5H39C39.2,82.5,44,87.2,50,87.2L50,87.2z"/>
</g>
</svg>
