<?xml version="1.0" encoding="utf-8"?>
<!-- Generator: Adobe Illustrator 19.1.0, SVG Export Plug-In . SVG Version: 6.00 Build 0)  -->
<svg version="1.1" id="Layer_1" xmlns="http://www.w3.org/2000/svg" xmlns:xlink="http://www.w3.org/1999/xlink" x="0px" y="0px"
	 width="100px" height="100px" viewBox="0 0 100 100" enable-background="new 0 0 100 100" xml:space="preserve">
<g>
	<path d="M70,45.2c-1.3-0.9-2.9-1.2-4.4-0.9l-6.8,1.3l1.9-12c0.5-2.6,0.1-5.2-1-7.6l0,0c0-0.7,0.6-1.2,1.3-1.1l2,0.1
		c0.6,0.1,1.7-0.1,2.5-0.3c0.8-0.2,1.5-0.8,1.8-1.5l0,0l0.8-0.9l0.1-1.1c0.1-1-0.2-2-0.8-2.8l-0.3-0.4c-1.3-1.8-1.9-4.1-1.5-6.3
		l-0.3-0.3c-1.9-2.1-4.8-3-7.6-2.3l0,0c-2.9,0.7-4.9,3.3-4.9,6.3v1.3c0,1.3-1.1,2.4-2.4,2.4c-5.7,2.4-10.1,7.1-11.9,13.1
		c-2,6.4-3.6,13.9-3,18l0,0c0.7,4.4,2.2,8.6,4.5,12.4c0.4,0.7,0.9,1.4,1.5,2l0.8,0.8h-8.8c-0.5,0-0.9,0.1-1.1,0.2
		c-3.3,0.7-4.9,3.6-4,6.9c0.8,3.1,3.5,4.2,6.3,4.4c1.8,0.1,3.3-0.2,4.2,0.8c1.4,1.6-0.7,2.7-2,3.6c-1.7,1.1-3,1.5-4.4,3
		c-1.5,1.6-1.7,5.4,1.6,6.4c2.4,0.7,5,0,7.5,0.1c1.9,0.1,1.5-0.6,1.6-0.8c-0.7-0.7-4.3-0.5-6.8-0.7c-1.9-0.2-3.3-1.9-1.7-3.6
		c1-1.1,3.1-2.1,4.4-2.8c3.7-2,3.4-6.6,0.8-7.9c-1.8-0.9-3.6-0.7-5.6-0.8c-3.7-0.3-4.9-4.7-1.2-5.7c0.2,0,0.3-0.1,0.5-0.1
		c1.9,0,11.4,0,11.4,0l2.2,0c2.7,0,5.3-1.1,7.3-3l0,0l0,0c0.8,1.8,2.6,3,4.6,3h8.3c1.3,0,2.4-1.1,2.4-2.4c-1.7-1.3-3.8-2-6-2H62
		l2.6-4.8c1.3-2.3,1.8-5,1.4-7.6l-0.3-2l3.2-1.7l-0.4,0.9c-0.3,0.6-0.3,1.3-0.1,1.9l0.4,0.9l-0.8,0c-0.3,0-0.6,0.4-0.4,0.7
		c0.3,0.5,0.9,0.9,1.5,0.9h0.3c1.1,0,2.1-0.8,2.3-1.9l0.3-1.6C72.2,47.9,71.4,46.1,70,45.2L70,45.2z"/>
	<path d="M48.5,89.8c-1.8,0-3.2-0.7-4.3-2c-1-1.2-1.5-2.7-1.5-4.5c0-1.6,0.4-3.1,1.3-4.6c1-1.7,2.2-2.7,3.6-3.1
		c0.5-0.1,1.1-0.2,1.7-0.2c1.5,0,2.8,0.8,3.8,2.3c0.9,1.3,1.3,2.8,1.3,4.4c0,1.9-0.5,3.6-1.5,5.1C51.9,89,50.3,89.8,48.5,89.8
		L48.5,89.8z M49,77.5c-0.4,0-0.7,0.1-1.1,0.3c-0.9,0.5-1.6,1.3-2.1,2.4c-0.5,1-0.7,2.1-0.7,3.2c0,1.2,0.3,2.2,0.9,2.9
		c0.7,0.8,1.6,1.2,2.7,1.2c1.2,0,2.1-0.6,2.8-1.9c0.5-1,0.8-2.3,0.8-3.6c0-1.3-0.2-2.3-0.7-3.1C51,78,50.1,77.5,49,77.5L49,77.5z"/>
	<path d="M58.1,90c-0.3,0-0.7-0.1-1.3-0.4l-0.1,0l0-0.1c-0.2-0.4-0.3-0.7-0.3-1V80c0-0.1-0.2-2.2,0.1-3.1c0.4-1.1,0.9-1.6,1.4-1.6
		c0.3,0,0.6,0.2,0.9,0.5c0.3,0.3,0.5,0.6,0.5,1c0,0.1,0,0.4-0.3,1.4c-0.4,1.9-0.6,3.4-0.6,4.5v4c0,1.4,0.1,1.6,0.1,1.7
		c0.4,0.5,0.4,0.7,0.4,0.8c0,0.3-0.1,0.5-0.3,0.7C58.6,89.9,58.4,90,58.1,90L58.1,90z"/>
	<path d="M66.2,90.2c-1.6,0-3-0.6-4-1.7c-0.9-1.1-1.4-2.4-1.4-4.1c0-1.5,0.4-3.1,1.3-4.6c0.8-1.4,1.9-2.6,3.2-3.5
		c1.1-0.8,1.9-1.1,2.4-1.1c0.3,0,0.7,0.1,1,0.4c0.4,0.3,0.6,0.6,0.6,1c0,0.3-0.1,0.5-0.3,0.7c-0.2,0.2-0.4,0.4-0.7,0.4
		c-0.3,0-0.5-0.1-0.7-0.3c-0.6,0.1-1.4,0.7-2.3,1.7c-0.8,0.9-1.3,1.6-1.4,2.2c1.1-0.9,2.2-1.3,3.2-1.3c1.4,0,2.6,0.4,3.5,1.3
		c0.9,0.9,1.4,2,1.4,3.5c0,1.6-0.6,2.9-1.7,3.9C69.1,89.7,67.8,90.2,66.2,90.2L66.2,90.2z M63.2,85.1c0.1,0.9,0.4,1.7,0.8,2.2
		c0.5,0.6,1.2,0.9,2,0.9c1,0,1.9-0.4,2.6-1.2c0.7-0.7,1-1.6,1-2.7c0-0.8-0.2-1.4-0.7-1.9c-0.5-0.4-1.1-0.7-1.9-0.7
		c-0.7,0-1.4,0.2-2.1,0.7c-0.7,0.5-1.2,1-1.5,1.7C63.5,84.5,63.4,84.8,63.2,85.1L63.2,85.1z"/>
</g>
</svg>
