<?xml version="1.0" encoding="utf-8"?>
<!-- Generator: Adobe Illustrator 19.1.0, SVG Export Plug-In . SVG Version: 6.00 Build 0)  -->
<svg version="1.1" id="Layer_1" xmlns="http://www.w3.org/2000/svg" xmlns:xlink="http://www.w3.org/1999/xlink" x="0px" y="0px"
	 width="100px" height="100px" viewBox="0 0 100 100" enable-background="new 0 0 100 100" xml:space="preserve">
<g>
	<polygon points="72.7,48 76.1,48 76.1,39.8 72.7,39.8 72.7,48 	"/>
	<polygon points="25.8,48 22.4,48 22.4,39.8 25.8,39.8 25.8,48 	"/>
	<path d="M72.1,48.4v-8.9h0.9c-0.1-1.2-0.2-2.2-0.8-3c-0.5-0.8-1.4-1.4-2.9-1.8c-1-0.3-2.1-0.6-3.1-0.8c-1.6-0.4-3.3-0.6-5-0.8
		c-2.7-0.3-5.3-0.4-8-0.4c-0.7,0-4.2,0-4.2,0s-3.4,0-4.2,0c-2.6,0-5.3,0.1-8,0.4c-1.7,0.2-3.4,0.4-5,0.8c-1,0.2-2,0.5-3.1,0.8
		c-1.5,0.4-2.3,1-2.9,1.8c-0.5,0.8-0.7,1.8-0.8,3h0.9v8.9h-1c0,2,0,3,1.2,4.9c2.4,3.9,5.9,5.2,10.1,6.9c3.1,1.2,4.9,1.3,6.6-1.1
		c1.5-2.1,3.3-4.6,5.2-5.3c0.2-0.1,0.8-0.1,0.8-0.1s0.6,0,0.8,0.1c1.9,0.7,3.7,3.2,5.2,5.3c1.7,2.4,3.5,2.3,6.6,1.1
		c4.1-1.6,7.7-2.9,10.1-6.9c1.2-1.9,1.2-2.9,1.2-4.9H72.1L72.1,48.4z M70.5,46.8c0,1.7-1,5.4-3,6.9c-1.1,0.8-2.2,1.2-3.4,1.4
		c-1.3,0.2-3,0.1-4.2-0.1c-3.5-0.7-4.4-2.2-5.5-4.7c-0.6-1.4-1.5-2.5-2.6-3.1c-0.5-0.3-1.9-0.5-2.6-0.5c-0.7,0-2.1,0.3-2.6,0.5
		c-1.1,0.6-1.9,1.6-2.6,3.1c-1.1,2.5-2,4-5.5,4.7c-1.3,0.2-2.9,0.3-4.2,0.1c-1.3-0.2-2.4-0.6-3.4-1.4c-1.9-1.5-3-5.2-3-6.9
		c0-2-0.2-4.1,0-6.1c0.2-1.8,0.5-2.3,1.6-3c1.3-0.9,2.7-1,4.5-1.1c2.4-0.1,5,0,7.4,0c0.9,0,14.8,0,15.7,0c2.4,0,5-0.1,7.4,0
		c1.8,0.1,3.4,0.3,4.5,1.1c1,0.8,1.4,1.2,1.6,3C70.7,42.8,70.5,44.8,70.5,46.8L70.5,46.8z"/>
	<path d="M60.1,15.6c4.5,0.1,8.9,1.6,12.5,4.2c3.7,2.6,6.5,6.3,8.3,10.4c1.8,4.1,2.6,8.7,2.6,13.2c0,4.5-1,9.1-2.9,13.2
		c-0.9,2.1-2.1,4.1-3.3,5.9c-1.3,1.9-2.7,3.6-4.3,5.3c-1.6,1.6-3.3,3.1-5.2,4.4c-1.9,1.3-2.5,0.3-0.6-0.9c1.8-1.2,3.5-2.6,5.1-4.2
		c1.6-1.6,3-3.3,4.2-5.1c1.3-1.8,2.4-3.7,3.3-5.8c1.9-4,2.9-8.4,3-12.9c0.1-4.5-0.6-9-2.3-13.1c-1.7-4.1-4.5-7.8-8.1-10.4
		C68.9,17.3,64.5,15.7,60.1,15.6L60.1,15.6z"/>
	<path d="M64.7,13.9c0.8,0.6,1,1.7,1,1.7s-1.1,0.3-1.9-0.3c-0.8-0.5-1-1.7-1-1.7S63.9,13.3,64.7,13.9L64.7,13.9z"/>
	<path d="M64.4,18.3c0.9-0.4,1.2-1.5,1.2-1.5s-1.1-0.4-2,0c-0.9,0.4-1.2,1.5-1.2,1.5S63.5,18.8,64.4,18.3L64.4,18.3z"/>
	<path d="M69.2,15.4c0.7,0.7,0.7,2,0.7,2s-1.2,0-1.9-0.7c-0.7-0.7-0.7-2-0.7-2S68.5,14.6,69.2,15.4L69.2,15.4z"/>
	<path d="M68,19.9c1-0.3,1.6-1.3,1.6-1.3s-1-0.7-2-0.4c-1,0.3-1.6,1.4-1.6,1.4S67,20.2,68,19.9L68,19.9z"/>
	<path d="M73.6,17.8c0.6,0.9,0.3,2.2,0.3,2.2s-1.3-0.2-1.9-1.1c-0.6-0.9-0.3-2.2-0.3-2.2S73,16.9,73.6,17.8L73.6,17.8z"/>
	<path d="M71.4,22.3c1.1-0.1,1.9-1.1,1.9-1.1s-0.9-0.9-2-0.8c-1.1,0.1-1.9,1.1-1.9,1.1S70.4,22.4,71.4,22.3L71.4,22.3z"/>
	<path d="M77.6,21.3c0.4,1.1-0.1,2.3-0.1,2.3s-1.3-0.5-1.7-1.5c-0.4-1.1,0.1-2.3,0.1-2.3S77.2,20.2,77.6,21.3L77.6,21.3z"/>
	<path d="M74.5,25.5c1.1,0.1,2.2-0.7,2.2-0.7s-0.8-1.1-1.9-1.2c-1.1-0.1-2.2,0.7-2.2,0.7S73.4,25.3,74.5,25.5L74.5,25.5z"/>
	<path d="M81.1,25.7c0.2,1.2-0.6,2.4-0.6,2.4s-1.2-0.7-1.5-1.9c-0.2-1.2,0.6-2.4,0.6-2.4S80.9,24.5,81.1,25.7L81.1,25.7z"/>
	<path d="M77.1,29.4c1.1,0.4,2.4-0.3,2.4-0.3s-0.6-1.3-1.7-1.7c-1.1-0.4-2.4,0.3-2.4,0.3S75.9,29,77.1,29.4L77.1,29.4z"/>
	<path d="M83.8,30.9c0,1.3-1,2.3-1,2.3s-1.1-1-1.1-2.3c0-1.3,1-2.3,1-2.3S83.8,29.6,83.8,30.9L83.8,30.9z"/>
	<path d="M78.9,33.9c1.1,0.6,2.5,0.2,2.5,0.2S81.1,32.6,80,32c-1.1-0.6-2.5-0.2-2.5-0.2S77.8,33.3,78.9,33.9L78.9,33.9z"/>
	<path d="M85.6,36.9c-0.2,1.3-1.5,2.2-1.5,2.2s-0.9-1.3-0.7-2.6c0.2-1.3,1.5-2.2,1.5-2.2S85.8,35.6,85.6,36.9L85.6,36.9z"/>
	<path d="M79.9,39c1,0.9,2.6,0.7,2.6,0.7s-0.1-1.6-1.1-2.4c-1-0.9-2.6-0.7-2.6-0.7S78.9,38.1,79.9,39L79.9,39z"/>
	<path d="M86.3,43.4c-0.5,1.3-2,1.9-2,1.9s-0.7-1.5-0.2-2.8c0.5-1.3,2-1.9,2-1.9S86.8,42.1,86.3,43.4L86.3,43.4z"/>
	<path d="M80,44.4c0.9,1.1,2.5,1.2,2.5,1.2s0.2-1.7-0.7-2.8c-0.9-1.1-2.5-1.2-2.5-1.2S79.1,43.3,80,44.4L80,44.4z"/>
	<path d="M85.6,50.3c-0.8,1.3-2.5,1.6-2.5,1.6s-0.4-1.7,0.3-3c0.8-1.3,2.5-1.6,2.5-1.6S86.4,49,85.6,50.3L85.6,50.3z"/>
	<path d="M78.9,50c0.7,1.3,2.4,1.8,2.4,1.8s0.6-1.7-0.1-3c-0.7-1.3-2.4-1.8-2.4-1.8S78.3,48.7,78.9,50L78.9,50z"/>
	<path d="M83.6,57.2c-1.1,1.1-2.9,1.1-2.9,1.1s-0.1-1.8,0.9-3c1.1-1.1,2.9-1.1,2.9-1.1S84.7,56.1,83.6,57.2L83.6,57.2z"/>
	<path d="M76.7,55.6c0.5,1.5,2.1,2.3,2.1,2.3s0.9-1.6,0.5-3.1c-0.5-1.5-2.1-2.3-2.1-2.3S76.3,54.1,76.7,55.6L76.7,55.6z"/>
	<path d="M80.1,64c-1.3,1-3.2,0.6-3.2,0.6s0.2-1.9,1.6-2.9c1.3-1,3.2-0.6,3.2-0.6S81.5,63.1,80.1,64L80.1,64z"/>
	<path d="M73.4,61c0.2,1.6,1.7,2.8,1.7,2.8s1.3-1.5,1.1-3.1c-0.2-1.6-1.7-2.8-1.7-2.8S73.2,59.4,73.4,61L73.4,61z"/>
	<path d="M75.2,70.3c-1.6,0.7-3.4,0-3.4,0s0.6-1.9,2.2-2.7c1.6-0.7,3.4,0,3.4,0S76.8,69.6,75.2,70.3L75.2,70.3z"/>
	<path d="M68.8,65.8c-0.1,1.7,1.2,3.3,1.2,3.3s1.6-1.3,1.7-3c0.2-1.7-1.2-3.3-1.2-3.3S69,64.1,68.8,65.8L68.8,65.8z"/>
	<path d="M38.4,15.6c-4.5,0.1-8.9,1.6-12.5,4.2c-3.7,2.6-6.5,6.3-8.3,10.4c-1.8,4.1-2.6,8.7-2.6,13.2c0,4.5,1,9.1,2.9,13.2
		c0.9,2.1,2.1,4.1,3.3,5.9c1.3,1.9,2.7,3.6,4.3,5.3c1.6,1.6,3.3,3.1,5.2,4.4c1.9,1.3,2.5,0.3,0.6-0.9c-1.8-1.2-3.5-2.6-5.1-4.2
		c-1.6-1.6-3-3.3-4.2-5.1c-1.3-1.8-2.4-3.7-3.3-5.8c-1.9-4-2.9-8.4-3-12.9c-0.1-4.5,0.6-9,2.3-13.1c1.7-4.1,4.5-7.8,8.1-10.4
		C29.5,17.3,33.9,15.7,38.4,15.6L38.4,15.6z"/>
	<path d="M33.8,13.9c-0.8,0.6-1,1.7-1,1.7s1.1,0.3,1.9-0.3c0.8-0.5,1-1.7,1-1.7S34.6,13.3,33.8,13.9L33.8,13.9z"/>
	<path d="M34.1,18.3c-0.9-0.4-1.2-1.5-1.2-1.5s1.1-0.4,2,0c0.9,0.4,1.2,1.5,1.2,1.5S35,18.8,34.1,18.3L34.1,18.3z"/>
	<path d="M29.2,15.4c-0.7,0.7-0.7,2-0.7,2s1.2,0,1.9-0.7c0.7-0.7,0.7-2,0.7-2S30,14.6,29.2,15.4L29.2,15.4z"/>
	<path d="M30.4,19.9c-1-0.3-1.6-1.3-1.6-1.3s1-0.7,2-0.4c1,0.3,1.6,1.4,1.6,1.4S31.4,20.2,30.4,19.9L30.4,19.9z"/>
	<path d="M24.9,17.8c-0.6,0.9-0.3,2.2-0.3,2.2s1.3-0.2,1.9-1.1c0.6-0.9,0.3-2.2,0.3-2.2S25.5,16.9,24.9,17.8L24.9,17.8z"/>
	<path d="M27,22.3c-1.1-0.1-1.9-1.1-1.9-1.1s0.9-0.9,2-0.8c1.1,0.1,1.9,1.1,1.9,1.1S28.1,22.4,27,22.3L27,22.3z"/>
	<path d="M20.8,21.3c-0.4,1.1,0.1,2.3,0.1,2.3s1.3-0.5,1.7-1.5c0.4-1.1-0.1-2.3-0.1-2.3S21.3,20.2,20.8,21.3L20.8,21.3z"/>
	<path d="M23.9,25.5c-1.1,0.1-2.2-0.7-2.2-0.7s0.8-1.1,1.9-1.2c1.1-0.1,2.2,0.7,2.2,0.7S25.1,25.3,23.9,25.5L23.9,25.5z"/>
	<path d="M17.3,25.7c-0.2,1.2,0.6,2.4,0.6,2.4s1.2-0.7,1.5-1.9c0.2-1.2-0.6-2.4-0.6-2.4S17.6,24.5,17.3,25.7L17.3,25.7z"/>
	<path d="M21.4,29.4C20.2,29.7,19,29,19,29s0.6-1.3,1.7-1.7c1.1-0.4,2.4,0.3,2.4,0.3S22.5,29,21.4,29.4L21.4,29.4z"/>
	<path d="M14.6,30.9c0,1.3,1,2.3,1,2.3s1.1-1,1.1-2.3c0-1.3-1.1-2.3-1.1-2.3S14.6,29.6,14.6,30.9L14.6,30.9z"/>
	<path d="M19.5,33.9c-1.1,0.6-2.5,0.2-2.5,0.2s0.4-1.5,1.5-2.1c1.1-0.6,2.5-0.2,2.5-0.2S20.6,33.3,19.5,33.9L19.5,33.9z"/>
	<path d="M12.8,36.9c0.2,1.3,1.5,2.2,1.5,2.2s0.9-1.3,0.7-2.6c-0.2-1.3-1.5-2.2-1.5-2.2S12.6,35.6,12.8,36.9L12.8,36.9z"/>
	<path d="M18.5,39c-1,0.9-2.6,0.7-2.6,0.7s0.1-1.6,1.1-2.4c1-0.9,2.6-0.7,2.6-0.7S19.5,38.1,18.5,39L18.5,39z"/>
	<path d="M12.2,43.4c0.5,1.3,2,1.9,2,1.9s0.7-1.5,0.2-2.8c-0.5-1.3-2-1.9-2-1.9S11.7,42.1,12.2,43.4L12.2,43.4z"/>
	<path d="M18.5,44.4c-0.9,1.1-2.5,1.2-2.5,1.2s-0.2-1.7,0.7-2.8c0.9-1.1,2.5-1.2,2.5-1.2S19.3,43.3,18.5,44.4L18.5,44.4z"/>
	<path d="M12.8,50.3c0.8,1.3,2.5,1.6,2.5,1.6s0.4-1.7-0.3-3c-0.8-1.3-2.5-1.6-2.5-1.6S12,49,12.8,50.3L12.8,50.3z"/>
	<path d="M19.5,50c-0.7,1.3-2.4,1.8-2.4,1.8s-0.6-1.7,0.1-3c0.7-1.3,2.4-1.8,2.4-1.8S20.2,48.7,19.5,50L19.5,50z"/>
	<path d="M14.8,57.2c1.1,1.1,2.9,1.1,2.9,1.1s0.1-1.8-0.9-3c-1.1-1.1-2.9-1.1-2.9-1.1S13.8,56.1,14.8,57.2L14.8,57.2z"/>
	<path d="M21.7,55.6c-0.5,1.5-2.1,2.3-2.1,2.3s-0.9-1.6-0.5-3.1c0.5-1.5,2.1-2.3,2.1-2.3S22.2,54.1,21.7,55.6L21.7,55.6z"/>
	<path d="M18.3,64c1.3,1,3.2,0.6,3.2,0.6s-0.2-1.9-1.6-2.9c-1.3-1-3.2-0.6-3.2-0.6S17,63.1,18.3,64L18.3,64z"/>
	<path d="M25.1,61c-0.2,1.6-1.7,2.8-1.7,2.8s-1.3-1.5-1.1-3.1c0.2-1.6,1.7-2.8,1.7-2.8S25.3,59.4,25.1,61L25.1,61z"/>
	<path d="M23.2,70.3c1.6,0.7,3.4,0,3.4,0s-0.6-1.9-2.2-2.7c-1.6-0.7-3.4,0-3.4,0S21.7,69.6,23.2,70.3L23.2,70.3z"/>
	<path d="M29.6,65.8c0.1,1.7-1.2,3.3-1.2,3.3s-1.6-1.3-1.7-3c-0.1-1.7,1.2-3.3,1.2-3.3S29.5,64.1,29.6,65.8L29.6,65.8z"/>
	<polygon points="56,14.3 56.8,12.7 57.6,14.3 59.3,14.6 58,15.8 58.3,17.6 56.7,16.8 55.1,17.6 55.5,15.8 54.2,14.5 56,14.3 	"/>
	<polygon points="48.2,12.1 49.3,10 50.3,12.2 52.7,12.6 50.9,14.2 51.3,16.6 49.2,15.4 47.1,16.5 47.5,14.2 45.8,12.4 48.2,12.1 	
		"/>
	<polygon points="42.6,14.3 41.8,12.7 41,14.3 39.2,14.6 40.5,15.8 40.3,17.6 41.8,16.8 43.4,17.6 43.1,15.8 44.4,14.5 42.6,14.3 	
		"/>
	<path d="M56.4,22c-0.3,0-0.5,0.2-0.5,0.5c0,0.1,0,0.2,0.1,0.3c-0.5,0.4-1.5,1.3-2.2,2.1c0,0,0,0,0-0.1c0-0.2,0-0.3,0-0.5
		c0-0.3,0-0.7,0-1c0-0.3,0-0.7,0-1c0-0.2,0-0.3,0-0.5l0-0.1c0,0,0.1,0,0.1,0c0.3,0,0.5-0.2,0.5-0.5c0-0.3-0.2-0.5-0.5-0.5
		c-0.3,0-0.5,0.2-0.5,0.5c0,0.1,0,0.2,0.1,0.3c-0.5,0.4-1.6,1.3-2.3,2.6c-0.1-0.2-0.2-0.4-0.2-0.6c-0.2-0.4-0.3-0.7-0.5-1
		c-0.2-0.3-0.4-0.7-0.6-1c-0.1-0.2-0.3-0.4-0.5-0.6c0.2-0.1,0.3-0.3,0.3-0.5c0-0.3-0.2-0.5-0.5-0.5c-0.3,0-0.5,0.2-0.5,0.5
		c0,0.2,0.1,0.4,0.3,0.5c-0.2,0.2-0.3,0.4-0.5,0.6c-0.2,0.3-0.4,0.7-0.6,1c-0.2,0.3-0.4,0.7-0.5,1c-0.1,0.2-0.2,0.4-0.2,0.6
		c-0.7-1.3-1.8-2.2-2.3-2.6c0.1-0.1,0.1-0.2,0.1-0.3c0-0.3-0.2-0.5-0.5-0.5c-0.3,0-0.5,0.2-0.5,0.5c0,0.3,0.2,0.5,0.5,0.5
		c0,0,0.1,0,0.1,0l0,0.1c0,0.2,0,0.3,0,0.5c0,0.3,0,0.7,0,1c0,0.3,0,0.7,0,1c0,0.2,0,0.3,0,0.5c0,0,0,0,0,0
		c-0.7-0.9-1.7-1.7-2.2-2.1c0.1-0.1,0.1-0.2,0.1-0.3c0-0.3-0.2-0.5-0.5-0.5c-0.3,0-0.5,0.2-0.5,0.5c0,0.3,0.2,0.5,0.5,0.5
		c0.1,0,0.1,0,0.2,0c0,0.1,0.1,0.3,0.1,0.4c0.3,1,0.8,2.7,1.3,4.1l0,0c1.8-0.5,3.7-0.6,5.6-0.6c1.9,0,3.8,0,5.6,0.6l0,0
		c0.5-1.6,1.1-3.7,1.4-4.5c0.1,0,0.1,0,0.2,0c0.3,0,0.5-0.2,0.5-0.5C56.9,22.2,56.7,22,56.4,22L56.4,22z"/>
	<path d="M54.7,28c-1.8-0.5-3.6-0.6-5.5-0.6c-1.9,0-3.8,0-5.5,0.6c0,0,0,0,0,0s-0.2,0.7,0,0.8c0.1,0,2.8,0.4,5.6,0.4
		c2.8,0,5.5-0.3,5.6-0.4C54.9,28.7,54.8,28,54.7,28C54.8,28,54.7,28,54.7,28L54.7,28z"/>
	<path d="M18.1,85.4V71.1H10l4.6,9.4L10,90h14.8v-3.9h-6.3C18.3,86.1,18.1,85.8,18.1,85.4L18.1,85.4z"/>
	<path d="M90,71.1h-8.1v14.3c0,0.4-0.2,0.7-0.5,0.7h-6.3V90H90l-4.6-9.4L90,71.1L90,71.1z"/>
	<path d="M59.7,71.3c-1.2,0-1.8,1.3-1.8,4.8c0,3.6,0.7,4.8,1.8,4.8c1.2,0,1.8-1.2,1.8-4.8C61.5,72.4,61,71.3,59.7,71.3L59.7,71.3z"
		/>
	<path d="M81.5,85.4V71.1v-4.6H18.5v4.6v14.3h6.3h50.4H81.5L81.5,85.4z M28.7,80.6l-2.9-1.6l-3,1.5l0.6-3.3l-2.3-2.4l3.3-0.4l1.5-3
		l1.4,3l3.3,0.5l-2.4,2.3L28.7,80.6L28.7,80.6z M39.9,83.8h-3.3V73.1l-1.5,1.1l-1.7-2.7l4.2-3h2.4V83.8L39.9,83.8z M47.9,84
		c-3.6,0-5.3-3.1-5.3-7.9c0-4.8,1.7-7.9,5.3-7.9c3.6,0,5.3,3.1,5.3,7.9C53.1,80.9,51.4,84,47.9,84L47.9,84z M59.8,84
		c-3.6,0-5.3-3.1-5.3-7.9c0-4.8,1.7-7.9,5.3-7.9c3.6,0,5.3,3.1,5.3,7.9C65,80.9,63.3,84,59.8,84L59.8,84z M70.1,80.5l0.6-3.3
		l-2.3-2.4l3.3-0.4l1.5-3l1.4,3l3.3,0.5l-2.4,2.3l0.5,3.3L73,78.9L70.1,80.5L70.1,80.5z"/>
	<path d="M47.8,71.3c-1.2,0-1.8,1.3-1.8,4.8c0,3.6,0.7,4.8,1.8,4.8c1.2,0,1.8-1.2,1.8-4.8C49.6,72.4,49.1,71.3,47.8,71.3L47.8,71.3z
		"/>
</g>
</svg>
