<?xml version="1.0" encoding="utf-8"?>
<!-- Generator: Adobe Illustrator 19.1.0, SVG Export Plug-In . SVG Version: 6.00 Build 0)  -->
<svg version="1.1" id="Layer_1" xmlns="http://www.w3.org/2000/svg" xmlns:xlink="http://www.w3.org/1999/xlink" x="0px" y="0px"
	 width="100px" height="100px" viewBox="-345 257 100 100" enable-background="new -345 257 100 100" xml:space="preserve">
<g>
	<path d="M-271.9,283.3c3.2,0,5.7-2.5,5.7-5.6c0-3.1-2.6-5.6-5.7-5.6c-3.2,0-5.7,2.5-5.7,5.6C-277.6,280.7-275,283.3-271.9,283.3
		L-271.9,283.3z"/>
	<path d="M-264.9,294l-5.8-6.1l-10-5.4l-11.3,1.2c0,0-1.1-5.8-1.6-7.1c-1.4-3.7-4.7-1-4.6,1.1c0.1,1.3,1.5,12,1.5,12l11.4-0.9
		l-8.6,11.9l-10.3,3.5l-5.4,9.3l5.7,3.2l5.5-7.6l11.9-3.1l0.5,0.3l2.2,9.4l-4.6,10.3l5.8,3l6.3-12.5l-1.8-9l5-13.1l3,2.2
		c0,0,2,8.5,2.6,9.8c0.5,1.3,3.4,3.3,4.1-0.3C-263.2,304.8-264.9,294-264.9,294L-264.9,294z"/>
	<path d="M-268.5,342c-0.6,0-1.2,0-1.8-0.1c-6.4-0.6-55.4-29.8-57.3-31.6c-3.4-3.4-2.1-7.8-2-8c0.3-1,1.3-1.5,2.3-1.2
		c1,0.3,1.5,1.3,1.2,2.2c0,0.1-0.7,2.6,1.1,4.5c1.1,1,13.3,8.4,26.8,16.1c18.4,10.4,26.7,14.3,28.2,14.4c3.9,0.3,5.6-0.7,6.6-1.3
		c0.3-0.2,0.5-0.3,0.7-0.4c0.9-0.4,2-0.1,2.5,0.8s0.1,2-0.8,2.4c-0.1,0.1-0.2,0.1-0.4,0.2C-262.5,340.7-264.5,342-268.5,342
		L-268.5,342z"/>
</g>
</svg>
