<?xml version="1.0" encoding="utf-8"?>
<!-- Generator: Adobe Illustrator 19.1.0, SVG Export Plug-In . SVG Version: 6.00 Build 0)  -->
<svg version="1.1" id="Layer_1" xmlns="http://www.w3.org/2000/svg" xmlns:xlink="http://www.w3.org/1999/xlink" x="0px" y="0px"
	 width="100px" height="100px" viewBox="0 0 100 100" enable-background="new 0 0 100 100" xml:space="preserve">
<g>
	<path d="M57.1,56.5c-2,1.7-4,3.3-6,4.8L50,62.1l-1.1-0.8c-1.9-1.5-3.9-3.1-6-4.8c-0.6,7.5-3.1,14.6-7.2,20.9l-0.2,0.3
		c3.9,3.9,8.8,7.1,14.5,9.5c5.6-2.4,10.6-5.7,14.5-9.5l-0.2-0.3C60.1,71.1,57.7,63.9,57.1,56.5z M43.6,66.4l3-3
		c0.2-0.2,0.5-0.2,0.8,0l2.6,2.6l2.6-2.6c0.2-0.2,0.5-0.2,0.8,0l3,3c0.2,0.2,0.2,0.5,0,0.8c-0.2,0.2-0.5,0.2-0.8,0l-2.6-2.6
		l-2.6,2.6c-0.2,0.2-0.5,0.2-0.8,0L47,64.6l-2.6,2.6c-0.2,0.2-0.5,0.2-0.8,0C43.4,67,43.4,66.6,43.6,66.4z M56.3,80.9
		c-0.2,0.2-0.5,0.2-0.8,0l-2.6-2.6l-2.6,2.6c-0.2,0.2-0.5,0.2-0.8,0L47,78.3l-2.6,2.6c-0.2,0.2-0.5,0.2-0.8,0
		c-0.2-0.2-0.2-0.5,0-0.8l3-3c0.2-0.2,0.5-0.2,0.8,0l2.6,2.6l2.6-2.6c0.2-0.2,0.5-0.2,0.8,0l3,3C56.5,80.4,56.5,80.7,56.3,80.9z
		 M59.3,74.1c-0.2,0.2-0.5,0.2-0.8,0l-2.6-2.6l-2.6,2.6c-0.2,0.2-0.5,0.2-0.8,0l-2.6-2.6l-2.6,2.6c-0.2,0.2-0.5,0.2-0.8,0L44,71.5
		l-2.6,2.6c-0.2,0.2-0.5,0.2-0.8,0c-0.2-0.2-0.2-0.5,0-0.8l3-3c0.2-0.2,0.5-0.2,0.8,0l2.6,2.6l2.6-2.6c0.2-0.2,0.5-0.2,0.8,0
		l2.6,2.6l2.6-2.6c0.2-0.2,0.5-0.2,0.8,0l3,3C59.5,73.5,59.5,73.8,59.3,74.1z"/>
	<path d="M58.8,55c0.4,7.8,2.9,15.1,7,21.4c5.3-5.8,8.5-12.8,8.5-20.4c0-5-1.4-9.7-3.8-14.1C67.5,46.6,63.2,51,58.8,55z"/>
	<path d="M29.5,41.9c-2.5,4.3-3.8,9.1-3.8,14.1c0,7.6,3.1,14.6,8.5,20.4c4.1-6.3,6.6-13.6,7-21.4C36.8,51,32.5,46.6,29.5,41.9z"/>
	<circle cx="59.7" cy="31.4" r="5.2"/>
	<path d="M50,25.9c1.5-4.1,5.4-7,9.9-7h5.6c-8.5-4.9-22.6-4.9-31.1,0h5.6C44.6,18.9,48.5,21.9,50,25.9z"/>
	<circle cx="40.3" cy="31.4" r="5.2"/>
	<path d="M50.7,29.5c0-1.3-0.3-2.5-0.7-3.6c-0.4,1.1-0.7,2.4-0.7,3.6c0-5.1-4.2-9.2-9.2-9.2h-7.6C23.9,26.9,24,40.1,50,59.8
		c26-19.7,26.1-32.8,17.6-39.5h-7.6C54.8,20.3,50.7,24.5,50.7,29.5z M40.3,38.7c-4,0-7.2-3.2-7.2-7.2c0-4,3.2-7.2,7.2-7.2
		s7.2,3.2,7.2,7.2C47.5,35.4,44.3,38.7,40.3,38.7z M50,44.1c-1.7-1.1-2.8-3.2-2.8-5.5c0-2.4,1.1-4.4,2.8-5.5
		c1.7,1.1,2.8,3.2,2.8,5.5C52.8,41,51.7,43,50,44.1z M67,31.4c0,4-3.2,7.2-7.2,7.2c-4,0-7.2-3.2-7.2-7.2c0-4,3.2-7.2,7.2-7.2
		C63.7,24.2,67,27.4,67,31.4z"/>
	<path d="M32.2,18.9c-2.1,0-3.9-1.7-3.9-3.9v-0.7h0c0,0.9-0.7,1.6-1.6,1.6c-0.9,0-1.6-0.7-1.6-1.6v0.7c0,2.9,2.4,5.2,5.2,5.2h2.2
		c0.6-0.5,1.3-0.9,2-1.4H32.2z"/>
	<path d="M73.4,16c-0.9,0-1.6-0.7-1.6-1.6v0.7c0,2.1-1.7,3.9-3.9,3.9h-2.3c0.7,0.4,1.4,0.9,2,1.4h2.2c2.9,0,5.2-2.4,5.2-5.2v-0.7
		C75,15.3,74.3,16,73.4,16z"/>
	<path d="M26.6,12.7c-0.9,0-1.6,0.7-1.6,1.6h3.3C28.3,13.5,27.6,12.7,26.6,12.7z"/>
	<path d="M73.4,12.7c-0.9,0-1.6,0.7-1.6,1.6H75C75,13.5,74.3,12.7,73.4,12.7z"/>
</g>
</svg>
