<?xml version="1.0" encoding="utf-8"?>
<!-- Generator: Adobe Illustrator 19.1.0, SVG Export Plug-In . SVG Version: 6.00 Build 0)  -->
<svg version="1.1" id="Layer_1" xmlns="http://www.w3.org/2000/svg" xmlns:xlink="http://www.w3.org/1999/xlink" x="0px" y="0px"
	 width="100px" height="100px" viewBox="0 0 100 100" enable-background="new 0 0 100 100" xml:space="preserve">
<g>
	<path d="M11.5,70.2v-1.6l1.3,0.9l-1.3-0.9V70.2H8.3L50,14l41.7,56.2H11.5L11.5,70.2z M14.7,67.1l70.7,0L50,19.4L14.7,67.1
		L14.7,67.1z"/>
	<polygon points="49.8,17.2 36.9,34.4 44.4,28.7 43.4,38.6 48,30.5 50.2,34.3 51.4,27.4 57,33.2 55.3,27.8 62.9,34.3 49.8,17.2 	"/>
	<polygon points="8.9,84.6 9.9,84.6 10,76.8 8.9,76.8 8.9,75.6 12.7,75.6 12.7,76.8 11.7,76.8 11.6,80.4 15.8,76.8 14.6,76.8 
		14.6,75.6 18.6,75.6 18.6,76.8 17.7,76.8 13.4,80.5 17.8,84.6 18.7,84.6 18.7,85.8 14.5,85.8 14.5,84.6 15.6,84.6 11.6,80.9 
		11.6,84.6 12.7,84.6 12.7,85.8 8.9,85.8 8.9,84.6 	"/>
	<path d="M24.3,75.4c3,0,4.9,2,4.9,5.1c0,2.7-1.6,5.5-5.2,5.5c-3.1,0-5-2-5-5.1C19,77.7,21.1,75.4,24.3,75.4L24.3,75.4z M24.1,84.6
		c2.8,0,3.2-2.6,3.2-4c0-1.8-0.6-3.8-3.1-3.8c-1.8,0-3.3,1.2-3.3,4C20.9,82.8,21.9,84.6,24.1,84.6L24.1,84.6z"/>
	<path d="M32.2,83v1.4c0.3,0.2,1.1,0.4,1.9,0.4c1.3,0,2.2-0.6,2.2-1.7c0-0.8-0.5-1.1-1.6-1.4l-1.9-0.5c-1.2-0.3-2.3-1-2.3-2.7
		c0-2,1.8-3,4-3c1.4,0,2.4,0.3,3.2,0.5v2.3h-1.6V77c-0.2-0.1-0.8-0.2-1.6-0.2c-1.6,0-2.2,0.7-2.2,1.5c0,0.9,0.7,1.2,1.6,1.4l1.6,0.4
		c1.2,0.3,2.5,0.9,2.5,2.7c0,2-1.5,3.2-4,3.2c-0.8,0-2.6-0.2-3.5-0.5V83H32.2L32.2,83z"/>
	<path d="M47,78.6V77c-0.4-0.1-1-0.2-1.8-0.2c-2.5,0-3.8,1.5-3.8,4c0,2.3,1.4,4,3.6,4c0.7,0,1.5-0.1,1.9-0.1l0.1-1.8h1.5l-0.1,2.8
		c-0.7,0.2-2,0.5-3.3,0.5c-3.8,0-5.6-2.3-5.6-5.2c0-3.2,2.2-5.4,5.7-5.4c1.3,0,2.6,0.3,3.3,0.6v2.6H47L47,78.6z"/>
	<path d="M49.6,75.6h3.8v1.2h-1.1l0,5.1c0,0.8,0,1.6,0.6,2.1c0.5,0.4,1,0.6,1.9,0.6c1,0,1.5-0.1,2-0.6c0.5-0.5,0.6-1.1,0.6-2.1
		l0-5.2h-1.2v-1.2h3.8v1.2h-1l0,5.5c0,1.4-0.4,2.3-1.2,2.9c-0.7,0.6-1.8,0.8-3.1,0.8c-1.6,0-2.5-0.3-3.1-0.8c-0.8-0.6-1-1.5-1-2.8
		c0-2,0-3.7,0-5.5h-1.1V75.6L49.6,75.6z"/>
	<polygon points="61.3,84.6 62.3,84.6 62.4,76.8 61.3,76.8 61.3,75.6 65.1,75.6 65.1,76.8 64.1,76.8 64,84.6 65.1,84.6 65.1,85.8 
		61.3,85.8 61.3,84.6 	"/>
	<path d="M68.3,83v1.4c0.3,0.2,1.1,0.4,1.9,0.4c1.3,0,2.2-0.6,2.2-1.7c0-0.8-0.5-1.1-1.6-1.4L69,81.1c-1.2-0.3-2.3-1-2.3-2.7
		c0-2,1.8-3,4-3c1.4,0,2.4,0.3,3.2,0.5v2.3h-1.6V77c-0.2-0.1-0.8-0.2-1.6-0.2c-1.6,0-2.2,0.7-2.2,1.5c0,0.9,0.7,1.2,1.6,1.4l1.6,0.4
		c1.2,0.3,2.5,0.9,2.5,2.7c0,2-1.5,3.2-4,3.2c-0.8,0-2.6-0.2-3.5-0.5V83H68.3L68.3,83z"/>
	<polygon points="75.6,84.6 76.6,84.6 76.7,76.8 75.6,76.8 75.6,75.6 79.4,75.6 79.4,76.8 78.4,76.8 78.4,80.4 82.5,76.8 81.4,76.8 
		81.4,75.6 85.3,75.6 85.3,76.8 84.4,76.8 80.1,80.5 84.6,84.6 85.4,84.6 85.4,85.8 81.2,85.8 81.2,84.6 82.3,84.6 78.4,80.9 
		78.3,84.6 79.4,84.6 79.4,85.8 75.6,85.8 75.6,84.6 	"/>
	<polygon points="86.3,84.6 87.3,84.6 87.4,76.8 86.3,76.8 86.3,75.6 90.1,75.6 90.1,76.8 89.1,76.8 89,84.6 90.1,84.6 90.1,85.8 
		86.3,85.8 86.3,84.6 	"/>
</g>
</svg>
