<?xml version="1.0" encoding="utf-8"?>
<!-- Generator: Adobe Illustrator 19.1.0, SVG Export Plug-In . SVG Version: 6.00 Build 0)  -->
<svg version="1.1" id="Layer_1" xmlns="http://www.w3.org/2000/svg" xmlns:xlink="http://www.w3.org/1999/xlink" x="0px" y="0px"
	 width="100px" height="100px" viewBox="0 0 100 100" enable-background="new 0 0 100 100" xml:space="preserve">
<g>
	<path d="M56.4,29.9c3.9,0.4,4.7,2.5,5,5.1h0.1c0.4-2.6,1.1-4.7,5-5.1v-0.1c-3.9-0.4-4.7-2.5-5-5.1h-0.1c-0.4,2.6-1.1,4.7-5,5.1
		V29.9z"/>
	<path d="M52.2,26.7h0.2c0.4-3.3,1.4-5.8,6.2-6.3v-0.2c-4.9-0.5-5.8-3-6.2-6.3l-0.2,0c-0.4,3.3-1.4,5.8-6.2,6.3v0.2
		C50.8,20.9,51.7,23.5,52.2,26.7z"/>
	<path d="M42,43.5h0.3c0.8-5.5,2.3-9.9,10.6-10.7v-0.3c-8.3-0.8-9.9-5.2-10.6-10.7H42c-0.8,5.5-2.3,9.9-10.6,10.7v0.3
		C39.6,33.6,41.2,37.9,42,43.5z"/>
	<path d="M50,37.2c-0.2,0-0.4,0-0.5,0c-2.1,0.9-3.3,2.3-4.1,4.3c1.5-0.2,3-0.3,4.7-0.3c9.8,0,17.8,3.1,17.8,6.8
		c0,3.8-8,6.8-17.8,6.8c-9.8,0-17.8-3.1-17.8-6.8c0-2.2,2.7-4.1,6.9-5.4c-0.5-1.9-1.3-3.3-2.6-4.4C25.6,40.3,18,44.5,18,49.4v1.6
		c0,3.9,4.8,7.4,12.1,9.6C29.7,67.6,29,77.4,29,78c-0.3,4.4,9.1,8.1,21,8.1s21.3-3.7,21-8.1c0-0.6-0.7-10.4-1.2-17.3
		C77.2,58.4,82,55,82,51.1v-1.6C82,42.7,67.7,37.2,50,37.2z M37.2,80.6c-0.4-0.1-1.1-0.3-1.6-0.5c-1.2-0.5-2-1.7-1.8-3l1.3-15.2
		c1.2,0.2,2.5,0.5,3.8,0.7C38.4,69.1,37.5,80.7,37.2,80.6z M39,60c-10.4-1.7-17.8-5.2-18.9-9.3c2,3.2,11.6,5.7,17.3,6.5
		c5.7,0.8,8.1,1.9,10.4,3.5C43.8,60.8,39,60,39,60z"/>
</g>
</svg>
