<?xml version="1.0" encoding="utf-8"?>
<!-- Generator: Adobe Illustrator 19.1.0, SVG Export Plug-In . SVG Version: 6.00 Build 0)  -->
<svg version="1.1" id="Layer_1" xmlns="http://www.w3.org/2000/svg" xmlns:xlink="http://www.w3.org/1999/xlink" x="0px" y="0px"
	 width="100px" height="100px" viewBox="0 0 100 100" enable-background="new 0 0 100 100" xml:space="preserve">
<g>
	<path d="M40.8,31.3c-0.3-0.2-0.7-0.2-0.9,0.1C39.2,32,24.4,47.2,25,55.9c0,0.5,0.1,0.9,0.1,1.3c0.5,6.6,0.5,6.6-6.7,15.6
		c-0.5,0.6-1.1,1.3-1.7,2.1c-0.6,0.7-1.2,1.1-1.9,1.1c-0.2,0-0.4-0.1-0.4-0.1c-0.6-0.3-4.6-2.6-6.3-2.6c-0.6,0-0.9,0.2-1,0.4
		C7,74,7,74.2,7,74.4c0,0.2,0.1,0.3,0.2,0.5l14.6,11.6c0.1,0.1,0.3,0.1,0.4,0.1c0,0,0.1,0,0.1,0c0.2,0,0.3-0.1,0.5-0.2
		c0.3-0.3,1.1-1.4-3.8-6.6c-0.1-0.1-0.6-1,0.5-2.5c0.6-0.7,1.1-1.4,1.6-2.1c7.1-9,7.1-9,13.7-10c0.4-0.1,0.9-0.1,1.3-0.2
		c8.6-1.4,20.1-19.3,20.6-20.1c0.2-0.3,0.1-0.7-0.1-0.9L40.8,31.3z M36.1,63.6c-0.5,0.1-0.9,0.1-1.3,0.2c-7.1,1.1-7.2,1.3-14.5,10.5
		c-0.5,0.6-1.1,1.3-1.6,2.1c-1.9,2.4-0.6,4.1-0.5,4.2c0,0,0,0,0,0c1,1.1,1.9,2.2,2.6,3.1l-10.5-8.4c1.2,0.5,2.7,1.3,3.6,1.8
		c0,0,0,0,0,0c0.1,0,0.4,0.2,1,0.2c0.7,0,1.8-0.3,2.9-1.6c0.6-0.7,1.1-1.4,1.7-2.1c7.4-9.2,7.5-9.4,7-16.6c0-0.4-0.1-0.9-0.1-1.3
		C25.8,48.5,38,35.3,40.4,32.8l15,11.9C53.4,47.6,43.3,62.4,36.1,63.6z"/>
	<path d="M27.6,55.9c0,0.5,0.5,3.6,2.5,5.2c2,1.6,5.2,1.3,5.7,1.3c3.5-0.6,8.3-5.2,12.6-10.4L34.8,41.2
		C30.7,46.6,27.3,52.4,27.6,55.9z"/>
	<path d="M88.6,85.4c-0.2-0.8-1.1-1.4-5-1.4c-1.2,0-2.3,0.1-2.5,0.1c-0.2,0-1.2-0.2-1.6-2c-0.2-0.9-0.4-1.8-0.6-2.6
		c-2.4-11.2-2.4-11.2,0.9-17c0.2-0.4,0.4-0.7,0.7-1.2c4.4-7.6-2.2-27.8-2.4-28.6c-0.1-0.3-0.4-0.5-0.8-0.4l-19.9,4.3
		c-0.3,0.1-0.6,0.4-0.5,0.7c0.1,0.9,2.4,22,9.5,27.1c0.4,0.3,0.7,0.5,1.1,0.8c5.4,3.8,5.4,3.8,7.8,15.1c0.2,0.8,0.4,1.7,0.6,2.6
		c0.4,1.8-0.5,2.4-0.6,2.4c-6.7,2.5-6.4,3.8-6.3,4.2c0,0.2,0.1,0.3,0.3,0.4c0.1,0.1,0.2,0.1,0.4,0.1c0,0,0.1,0,0.1,0l9.1-2
		c0,0,0,0,0,0c0.1,0,9.1-2,9.1-2C88.4,86.2,88.7,85.8,88.6,85.4z M78.7,86.9L78.7,86.9l-6.6,1.4c1-0.5,2.3-1.1,3.7-1.6c0,0,0,0,0,0
		c0.1,0,2-1,1.4-4c-0.2-0.9-0.4-1.8-0.6-2.6c-2.5-11.5-2.5-11.8-8.4-15.9c-0.3-0.2-0.7-0.5-1.1-0.8c-6-4.3-8.5-22-8.9-25.5l18.7-4
		c1,3.4,6.1,20.6,2.4,26.9c-0.2,0.4-0.5,0.8-0.7,1.1c-3.6,6.2-3.6,6.4-1.1,17.9c0.2,0.8,0.4,1.7,0.6,2.6c0.6,3,2.8,3,2.9,3
		c0,0,0,0,0,0c0,0,1.1-0.1,2.4-0.1c0.7,0,1.2,0,1.6,0C80.7,86.4,79.2,86.8,78.7,86.9z"/>
	<path d="M78.3,60.3c1.8-3.1,1.2-9.7,0-16.3l-17,3.6c1.6,6.6,3.9,12.8,6.8,14.9c0.4,0.3,3.1,1.9,5.6,1.4
		C76.3,63.3,78,60.7,78.3,60.3z"/>
	<path d="M46.9,19.9c0.1,0.2,0.3,0.2,0.5,0.2l3.9-1.1l2.5,3.2c0.1,0.1,0.2,0.2,0.4,0.2c0,0,0.1,0,0.1,0c0.2-0.1,0.3-0.2,0.3-0.4
		l0.1-4l3.8-1.4c0.2-0.1,0.3-0.2,0.3-0.4c0-0.2-0.1-0.4-0.3-0.4l-3.8-1.4l-0.1-4c0-0.2-0.1-0.4-0.3-0.4c-0.2-0.1-0.4,0-0.5,0.2
		l-2.5,3.2l-3.9-1.1c-0.2-0.1-0.4,0-0.5,0.2c-0.1,0.2-0.1,0.4,0,0.5l2.3,3.3l-2.3,3.3C46.7,19.6,46.7,19.8,46.9,19.9z"/>
	<polygon points="52.3,22.7 51,23.1 54.5,36.2 	"/>
	<polygon points="47.8,31.4 52.1,35.1 48.3,31 	"/>
	<polygon points="61.5,30.1 60.9,29.7 58.3,34.7 	"/>
</g>
</svg>
