<?xml version="1.0" encoding="utf-8"?>
<!-- Generator: Adobe Illustrator 19.1.0, SVG Export Plug-In . SVG Version: 6.00 Build 0)  -->
<svg version="1.1" id="Layer_1" xmlns="http://www.w3.org/2000/svg" xmlns:xlink="http://www.w3.org/1999/xlink" x="0px" y="0px"
	 width="100px" height="100px" viewBox="0 0 100 100" enable-background="new 0 0 100 100" xml:space="preserve">
<g>
	<path d="M18.8,24.8c0.3-1.6,1.2-3.1,2.5-4.2l-2.9-1.7l0.9,3.3L16,23.1L18.8,24.8L18.8,24.8z"/>
	<path d="M23.2,36.7l-3.8-7.6c-0.1-0.2-0.2-0.4-0.3-0.6c-1.4,0.8-2.4,2.3-2.4,4c0,2.5,2.1,4.6,4.6,4.6C22,37.2,22.6,37,23.2,36.7
		L23.2,36.7L23.2,36.7z"/>
	<path d="M31.9,22.9l3.1,6.2c0.1,0,0.2,0,0.3,0c2.9,0,5.2-2.3,5.2-5.2c0-2.9-2.3-5.2-5.2-5.2c-0.9,0-1.7,0.2-2.4,0.6
		c-0.3-1.7-1.7-3-3.5-3c-1.7,0-3.1,1.2-3.5,2.7C28.4,19.2,30.8,20.6,31.9,22.9L31.9,22.9z"/>
	<path d="M44.8,77.2l-1,2.7c-0.1,0-0.3,0-0.4,0c-2.6,0-4.9,1.5-5.9,3.8h11.8c-0.4-0.9-1-1.6-1.7-2.2l1.8-4.9
		C48,77.3,46.4,77.5,44.8,77.2L44.8,77.2z"/>
	<path d="M39.1,41.4l-4.5-9.1l-4.3-8.6c-1.3-2.5-4.3-3.6-6.9-2.3c-2.5,1.3-3.6,4.3-2.3,6.9l4.3,8.6c-2.4,3.3-3.8,7.4-3.8,11.8
		c0,11,8.7,19.9,19.6,20.3c-0.7,2.6,0.7,5.3,3.2,6.2c2.7,1,5.7-0.4,6.6-3.1l8.5-23.2h-9.4C45.5,48.5,41.3,45.8,39.1,41.4L39.1,41.4z
		 M23.1,26c0-1.4,1.2-2.6,2.6-2.6s2.6,1.2,2.6,2.6c0,1.4-1.2,2.6-2.6,2.6S23.1,27.4,23.1,26L23.1,26z M48.1,62.1
		c-5.1,1-12,1.6-16.8-0.9c-3.1-1.6-5.1-4.5-4.9-8.1c0.1-1.4,0.5-2.8,1.2-4c0.7-1.2,1.7-2.3,2.9-3.1c3-2,6.5-1.7,9.4,0.2
		c4.6,2.9,7.5,9.2,9.2,14.1l0.5,1.4L48.1,62.1L48.1,62.1z"/>
	<path d="M47.8,60.8C35.1,24.1,9.7,68.1,47.8,60.8L47.8,60.8L47.8,60.8z"/>
	<path d="M76.6,32.4c-10.8-2.8-21.9,3.7-24.8,14.5h1.1c1.1-3.8,3.6-7,7-9c3.6-2.1,7.9-2.8,11.9-1.7c4.2,1.1,7.7,3.7,9.8,7.5
		c2,3.5,2.6,7.7,1.6,11.6l-0.6,2.2c-0.3,1.4-1.1,2.5-2.2,3.3c-0.1,2.2,1.4,4.3,3.7,4.9h0c2.6,0.7,5.3-0.9,6-3.5l1.2-4.7
		c0-0.1,0-0.1,0-0.2C94.1,46.2,87.5,35.1,76.6,32.4L76.6,32.4z"/>
	<path d="M81.9,54.8L81.9,54.8c1.9-7.6-2.7-15.4-10.4-17.3c-7.3-1.9-14.8,2.3-17.1,9.4h1.2c0.8-2,2.2-3.6,4-4.7
		c2.2-1.3,4.8-1.7,7.3-1.1c2.5,0.6,4.6,2.2,5.9,4.4c1.3,2.2,1.7,4.7,1.1,7.2c0,0.1,0,0.2-0.1,0.3l-0.4,1.5c-0.2,1-0.8,1.8-1.5,2.4
		c0.4,1.7,1.7,3.1,3.5,3.6c2.6,0.6,5.2-0.9,5.8-3.5L81.9,54.8L81.9,54.8z"/>
	<path d="M72.6,52.6c0-0.1,0-0.2,0.1-0.3c1-4.4-1.6-8.8-6-10c-3.9-1-7.8,0.9-9.5,4.4h3.2c0.9-0.7,2.1-0.9,3.2-0.6
		c2.1,0.5,3.3,2.6,2.8,4.7c0,0,0,0,0,0.1l-0.4,1.6c-0.4,1.7,0.6,3.5,2.3,3.9c1.7,0.4,3.5-0.6,3.9-2.3L72.6,52.6L72.6,52.6z"/>
</g>
</svg>
