<?xml version="1.0" encoding="utf-8"?>
<!-- Generator: Adobe Illustrator 19.1.0, SVG Export Plug-In . SVG Version: 6.00 Build 0)  -->
<svg version="1.1" id="Layer_1" xmlns="http://www.w3.org/2000/svg" xmlns:xlink="http://www.w3.org/1999/xlink" x="0px" y="0px"
	 width="100px" height="100px" viewBox="0 0 100 100" enable-background="new 0 0 100 100" xml:space="preserve">
<g>
	<path d="M70.6,44.6c0,1.2,0.4,2.2,1.1,3.1c0.7-0.8,1.1-1.9,1.1-3.1c0-1.2-0.4-2.2-1.1-3.1C71,42.4,70.6,43.5,70.6,44.6L70.6,44.6z"
		/>
	<polygon points="26.7,48.2 20.4,48.2 25.7,44.1 26.7,48.2 	"/>
	<path d="M50.5,85.7C50.5,85.5,50.4,85.9,50.5,85.7c-0.1-4.2,0.1-9.8,0.8-16.3c0.7-4,1.4-6.4,2.2-8.3l-5.1,0.1l-0.2,24.5H50.5
		L50.5,85.7z"/>
	<path d="M56.3,87.3C56.2,87.2,56.2,87.5,56.3,87.3c-0.1-4.2,0.1-9.8,0.8-16.3c2-12,4.5-9.4,8.6-22.4l-11.4,6.7l-0.2,32H56.3
		L56.3,87.3z"/>
	<path d="M15,85.5h1.9c1.1-11.4,5-15.9,9.8-20.8c-0.3-2.2-1.1-4.2-2.4-5.9l-0.2-0.3c-0.8-1.1-1.5-2.4-1.9-3.8
		c0.3,2.7-0.1,5.5-1.3,8.1c-0.9,2.1-2.2,3.9-3.8,5.3l0,0.1c0.2,1.8,0.2,3.6-0.1,5.4L15,85.5L15,85.5z"/>
	<path d="M69.3,39.4c1,1.5,2.3,2.8,2.3,2.8s2.7-2.7,3.2-4.6H73C71.5,37.7,70.2,38.3,69.3,39.4L69.3,39.4z"/>
	<path d="M47.7,17c0,3,2.4,5.5,5.5,5.5h3.6h7.8H66c1.7,0,3,1.4,3,3c0.5-0.1,1-0.2,1.5-0.2c0.5,0,0.9,0.1,1.4,0.2V23
		c0-0.8,0.3-1.6,0.9-2.1l0,0c1-1,1.6-2.3,1.6-3.8v-2.5l0-0.6v-0.4c0-0.5-0.4-0.9-0.9-0.9c-0.5,0-0.9,0.4-0.9,0.9V14l0,0.2v0.2
		c0,0.5-0.4,0.9-0.9,0.9c-0.5,0-0.9-0.4-0.9-0.9v-0.4v-0.2v-0.4c0-0.5-0.4-0.9-0.9-0.9c-0.5,0-0.9,0.4-0.9,0.9v0.5l0,0.2v0.2
		c0,0.5-0.4,0.9-0.9,0.9c-0.5,0-0.9-0.4-0.9-0.9v-0.4v-0.2v-0.4c0-0.5-0.4-0.9-0.9-0.9c-0.5,0-0.9,0.4-0.9,0.9V14v0.2v0.2
		c0,0.5-0.4,0.9-0.9,0.9c-0.5,0-0.9-0.4-0.9-0.9v-0.4v-0.2v-0.4c0-0.5-0.4-0.9-0.9-0.9c-0.5,0-0.9,0.4-0.9,0.9V14v0.2v0.2
		c0,0.5-0.4,0.9-0.9,0.9c-0.5,0-0.9-0.4-0.9-0.9v-0.4v-0.2v-0.4c0-0.5-0.4-0.9-0.9-0.9c-0.5,0-0.9,0.4-0.9,0.9V14l0,0.2v0.2
		c0,0.5-0.4,0.9-0.9,0.9c-0.5,0-0.9-0.4-0.9-0.9v-0.4v-0.2v-0.4c0-0.5-0.4-0.9-0.9-0.9c-0.5,0-0.9,0.4-0.9,0.9V14l0,0.2v0.2
		c0,0.5-0.4,0.9-0.9,0.9c-0.5,0-0.9-0.4-0.9-0.9v-0.4v-0.2v-0.4c0-0.5-0.4-0.9-0.9-0.9c-0.5,0-0.9,0.4-0.9,0.9V14v0v0.4
		c0,0.5-0.4,0.9-0.9,0.9c-0.5,0-0.9-0.4-0.9-0.9v-0.4v-0.2v-0.4c0-0.5-0.4-0.9-0.9-0.9c-0.5,0-0.9,0.4-0.9,0.9V14l0,0.5V17L47.7,17z
		"/>
	<path d="M82.3,31.3l-7.5-3.1c-0.9-1.4-2.5-2.3-4.3-2.3c-0.6,0-1.2,0.1-1.7,0.3c-0.1,0-0.2,0-0.4,0c-2.8,0-5.3,1.1-7.1,3
		c-8.6,7.9-11,13.3-27.4,13.3h-2.2c-0.3,0-0.6-0.1-1-0.1c-2.4,0-4.6,1.1-6.1,2.7l-0.2,0.1c-1.3,1.6-2.1,3.7-2.1,6
		c0,1.8,0.5,3.5,1.4,4.9c0.3,0.6,0.7,1.3,1.1,1.8l0.2,0.3c1.6,2.1,2.5,4.8,2.5,7.6c0,2.3-0.6,4.4-1.6,6.2l0.2,0.3l5.6,14.8h3.5
		c-8.2-10.3-5.4-19-2.8-26l0,0l0.1-0.4c0-0.1,0.1-0.2,0.1-0.4h16.3c11,0,15.7-4.5,19.1-19.7l0.1-0.3c0.7-2,2.6-3.5,4.9-3.5h3
		c1.9,0,3.5,1,4.4,2.4l0.1,0.1c0.1,0.2,0.3,0.3,0.6,0.3h1.8c0.4,0,0.7-0.2,0.8-0.6l0-0.1l1.3-3.2C85.4,34.5,84.4,32.2,82.3,31.3
		L82.3,31.3z M72.2,30.1c-0.5,0-0.9-0.4-0.9-0.9c0-0.5,0.4-0.9,0.9-0.9c0.5,0,0.9,0.4,0.9,0.9C73.1,29.7,72.7,30.1,72.2,30.1
		L72.2,30.1z"/>
</g>
</svg>
