<?xml version="1.0" encoding="utf-8"?>
<!-- Generator: Adobe Illustrator 19.1.0, SVG Export Plug-In . SVG Version: 6.00 Build 0)  -->
<svg version="1.1" id="Layer_1" xmlns="http://www.w3.org/2000/svg" xmlns:xlink="http://www.w3.org/1999/xlink" x="0px" y="0px"
	 width="100px" height="100px" viewBox="0 0 100 100" enable-background="new 0 0 100 100" xml:space="preserve">
<g>
	<path d="M38.3,42.4l-18.1-31l-9.5,5.4c-0.6,0.3-0.8,1.1-0.5,1.7l18.6,31.9C31.3,47.1,34.5,44.3,38.3,42.4z"/>
	<path d="M89.4,16.9l-9.5-5.4l-18.1,31c3.7,1.9,7,4.7,9.4,8l18.7-31.9C90.2,18,90,17.2,89.4,16.9z"/>
	<path d="M70.2,23.6c2.4-4,4.7-8.1,7-12.1H22.7c2.4,4,4.7,8.1,7.1,12.1H70.2z"/>
	<path d="M50,42c-13,0-23.6,10.4-23.6,23.3C26.4,78.1,37,88.5,50,88.5c13,0,23.6-10.4,23.6-23.3C73.6,52.4,63,42,50,42z M40.6,49.8
		l0.7-2.1l0.7,2.1l2.2,0l-1.8,1.3l0.7,2.1l-1.8-1.3l-1.8,1.3l0.7-2.1l-1.8-1.3L40.6,49.8z M29.8,64.6l2.2,0l0.7-2.1l0.7,2.1h2.2
		l-1.8,1.3l0.7,2.1l-1.8-1.3l-1.8,1.3l0.7-2.1L29.8,64.6z M36.8,76.5L35,75.3l-1.8,1.3l0.7-2.1l-1.8-1.3l2.2,0l0.7-2.1l0.7,2.1h2.2
		l-1.8,1.3L36.8,76.5z M36.3,57.2l0.7,2.1L35.2,58l-1.8,1.3l0.7-2.1l-1.8-1.3l2.2,0l0.7-2.1v0l0.7,2.1l2.2,0L36.3,57.2z M43,82.8
		l-1.8-1.3l-1.8,1.3l0.7-2.1l-1.8-1.3l2.2,0l0.7-2.1l0.7,2.1l2.2,0l-1.8,1.3L43,82.8z M43.8,63c-0.2-0.1-0.3-0.3-0.3-0.5V60
		c0-0.2,0.2-0.5,0.4-0.6c1.4-0.7,2.6-1.4,3.7-2.3c1-0.9,1.8-1.8,2.2-2.6c0.1-0.2,0.4-0.4,0.6-0.4H52c0.4,0,0.7,0.3,0.7,0.7v21
		c0,0.3-0.3,0.7-0.7,0.7h-2.6c-0.4,0-0.7-0.3-0.7-0.7V60.8c-0.4,0.3-0.9,0.6-1.4,0.9c-1,0.6-2,1.1-2.8,1.4
		C44.2,63.2,44,63.2,43.8,63z M51.8,85.1L50,83.9l-1.8,1.3l0.7-2.1l-1.8-1.3l2.2,0l0.7-2.1l0.7,2.1h2.2l-1.8,1.3L51.8,85.1z
		 M51.2,48.7l0.7,2.1l-1.8-1.3l-1.8,1.3l0.7-2.1l-1.8-1.3l2.2,0l0.7-2.1l0.7,2.1l2.2,0L51.2,48.7z M60.3,82.8l-1.8-1.3l-1.8,1.3
		l0.7-2.1l-1.8-1.3l2.2,0l0.7-2.1l0.7,2.1l2.2,0l-1.8,1.3L60.3,82.8z M59.7,51l0.7,2.1l-1.8-1.3l-1.8,1.3l0.7-2.1l-1.8-1.3l2.2,0
		l0.7-2.1l0.7,2.1l2.2,0L59.7,51z M66.7,76.6l-1.8-1.3l-1.8,1.3l0.7-2.1L62,73.3l2.2,0l0.7-2.1l0,0l0.7,2.1h2.2L66,74.5L66.7,76.6z
		 M70.2,64.6l-1.8,1.3l0.7,2.1l-1.8-1.3L65.5,68l0.7-2.1l-1.8-1.3l2.2,0l0.7-2.1l0.7,2.1H70.2z M66,57.4l0.7,2.1l-1.8-1.3l-1.8,1.3
		l0.7-2.1L62,56.1l2.2,0l0.7-2.1h0l0.7,2.1l2.2,0L66,57.4z"/>
</g>
</svg>
