<?xml version="1.0" encoding="utf-8"?>
<!-- Generator: Adobe Illustrator 19.1.0, SVG Export Plug-In . SVG Version: 6.00 Build 0)  -->
<svg version="1.1" id="Layer_1" xmlns="http://www.w3.org/2000/svg" xmlns:xlink="http://www.w3.org/1999/xlink" x="0px" y="0px"
	 width="100px" height="100px" viewBox="0 0 100 100" enable-background="new 0 0 100 100" xml:space="preserve">
<g>
	<path d="M75.8,62.6c0.1-0.3,0.1-0.6,0.1-1V29.5c0-2.2-1.8-3.9-3.9-3.9c-2.2,0-3.9,1.8-3.9,3.9V48c-0.8-0.7-1.6-1.3-2.4-1.8V22.1
		c0-2.4-1.9-4.3-4.3-4.3c-2.4,0-4.3,1.9-4.3,4.3v20.8c-0.9-0.1-1.9-0.2-2.8-0.3V15.3c0-2.4-1.9-4.3-4.3-4.3c-2.4,0-4.3,1.9-4.3,4.3
		v28.8c-1,0.4-2,0.9-2.9,1.4V21.3c0-2.4-1.9-4.3-4.3-4.3c-2.4,0-4.3,1.9-4.3,4.3c0,0-0.2,33.5-0.3,33.7l2.8,3.9
		c1.6-0.6,7.5-2.3,12.2,0.2c2.8,1.5,4.7,4.3,5.6,8.2l0,0c0,0,0,0.1,0,0.1c0,0.3-0.2,0.5-0.5,0.5c-0.3,0-0.5-0.2-0.5-0.4l0,0
		c-0.8-3.6-2.5-6.1-5-7.4c-5-2.6-11.6,0-11.7,0l-0.4,0.2L36,59.9l-9.7-12.5c-1.6-2-4.5-2.4-6.5-0.8c-2,1.6-2.4,4.5-0.8,6.5
		l12.6,16.4c0.1,0.1,0.2,0.2,0.3,0.3c2,10.4,11,18.3,21.9,18.3C66,88.1,76,77.9,76,65.3C76,64.4,75.9,63.5,75.8,62.6L75.8,62.6z"/>
</g>
</svg>
