<?xml version="1.0" encoding="utf-8"?>
<!-- Generator: Adobe Illustrator 19.1.0, SVG Export Plug-In . SVG Version: 6.00 Build 0)  -->
<svg version="1.1" id="Layer_1" xmlns="http://www.w3.org/2000/svg" xmlns:xlink="http://www.w3.org/1999/xlink" x="0px" y="0px"
	 width="100px" height="100px" viewBox="0 0 100 100" enable-background="new 0 0 100 100" xml:space="preserve">
<path d="M82.4,76.2L12.9,45.4c-0.8-0.3-1.1-1.3-0.7-2l0-0.1c0.4-0.8,1.3-1.1,2-0.7l68.6,30.4l0,0l2.5-0.3c0.9-0.1,1.7,0.6,1.8,1.5
	l0,0.1c0.1,0.9-0.6,1.7-1.4,1.8l-2.1,0.2C83.2,76.4,82.8,76.4,82.4,76.2L82.4,76.2L82.4,76.2z M82.2,33.1c-2.9,0.3-5.1,2.8-4.8,5.8
	c0.3,2.9,2.9,5.1,5.8,4.8c2.9-0.3,5.1-2.8,4.8-5.8C87.7,35,85.1,32.9,82.2,33.1L82.2,33.1L82.2,33.1z M52.3,29.7
	c0.1,5.6,1,12.5,0.8,12.5L40.7,45c0,0-4.1,0.5-4,4c0.1,3.5,3.3,4.1,4.4,3.8c0.8-0.2,9.1-2,14.7-3c3.5-0.7,5.9-1,6-2.8
	c0.1-3.9-0.8-10.8-0.5-10.6c3.3,1.3,7.8,3.6,7.8,3.6l1.1,8.8c0.3,2.6,0.7,4,3.1,5.1c3.1,1.5,7.2,3.3,7.7,3.3c0.5,0,2.6,1.6,3.9-1
	c1.2-2.6-1.7-3.9-1.7-3.9l-6.7-3c-0.6-6.4-0.4-7.4-0.9-12.2c0-4.4-1.8-5.8-4.4-7.1L60,24.5C55.7,22.1,52.3,25.2,52.3,29.7L52.3,29.7
	z"/>
</svg>
