<?xml version="1.0" encoding="utf-8"?>
<!-- Generator: Adobe Illustrator 19.1.0, SVG Export Plug-In . SVG Version: 6.00 Build 0)  -->
<svg version="1.1" id="Layer_1" xmlns="http://www.w3.org/2000/svg" xmlns:xlink="http://www.w3.org/1999/xlink" x="0px" y="0px"
	 width="100px" height="100px" viewBox="0 0 100 100" enable-background="new 0 0 100 100" xml:space="preserve">
<g>
	<path d="M84,35.8C84,35.7,84,35.9,84,35.8C84,35.8,84,35.8,84,35.8L84,35.8z"/>
	<path d="M87.7,27.3c-1.1-3.7-6-4-8.5-1.6c-1.5,1.4-2.2,3.5-3.2,5.3c-0.5,0.9-1,1.8-1.5,2.7c-0.3,0.5-1.1,2.4-1.8,2.1
		c-0.3-0.1-0.5-0.6-0.7-0.8c-0.2-0.4-0.5-0.7-0.8-1.1c-0.6-0.6-1.2-1.2-2-1.7c-0.8-0.5-1.7-0.8-2.6-0.9c-0.4,0-1,0.1-1.3-0.2
		c-0.3-0.3-0.6-0.8-0.9-1.1c-1.2-1.4-2.9-2.4-4.8-2.7c-0.5-0.1-1.1-0.1-1.6-0.1c-0.4,0-1.1,0.3-1.5,0c-0.3-0.2-0.6-0.7-0.9-1
		c-0.4-0.4-0.8-0.7-1.2-1c-1.7-1.1-3.7-1.5-5.6-0.8c-1.8,0.7-3.2,2.4-4.3,3.9c-1.3,1.8-2.4,3.7-3.2,5.7c-0.7,1.8-1.1,4.1-2.5,5.5
		c-1.3,1.3-2.8-1.2-3.5-2.1c-1.1-1.5-2.4-2.9-3.7-4.3c-2.6-2.8-5.7-5-9.1-6.6c-1.9-0.9-3.9-1.3-6-1c-1.4,0.2-3,0.7-3.8,2
		C10.4,30.8,15,34,17,35.8c1.5,1.4,2.8,3,4,4.7c1.3,1.8,2.4,3.6,3.3,5.5c0.9,2,1.4,4.2,2.3,6.2c0.8,1.9,1.7,3.8,2.7,5.6
		c1,1.8,2,3.5,3.1,5.2c0.9,1.5,1.5,3.1,2.4,4.6c1.6,2.7,4.1,4.7,7,5.5c1.7,0.5,3.6,0.5,5.4,0.3c0.5-0.1,1-0.1,1.5-0.2
		c0.5-0.1,1-0.3,1.5,0c0.9,0.6,1.8,1.2,2.8,1.6c3.8,1.6,8,1.3,11.6-0.7c1.7-1,3.5-2.3,4.7-3.9c1.3-1.6,2.4-3.4,3.3-5.2
		c2.1-3.7,3.7-7.7,5.5-11.5c1.9-4.1,3.9-8.1,5.8-12.2c1.2-2.7,2.5-5.5,3.5-8.4C87.8,31.1,88.3,29.1,87.7,27.3
		C87.2,25.3,88.5,30.1,87.7,27.3L87.7,27.3z M65.8,34.2c1.2-1.2,2.8-0.3,3.8,0.7c1,1.1,1.6,2.4,1.6,4c0,1.6-0.5,3.1-1.2,4.5
		c-0.7,1.5-1.3,3-2.2,4.3c-1.5,2.3-3.5,5.2-6.6,4.9c-0.7-0.1-1-0.4-1.4-0.9c-0.5-0.7-0.4-1.5-0.4-2.4c0-1.7,0.7-3.1,1.4-4.6
		c0.9-1.9,1.8-3.8,2.7-5.7C64.1,37.4,64.6,35.4,65.8,34.2C67.1,32.9,64.8,35.2,65.8,34.2L65.8,34.2z M56.8,30.4
		c1.9-2.7,5.6-0.6,6.7,1.8c0.7,1.6-0.3,3.4-1,4.8c-0.8,1.6-1.8,3.2-2.5,4.9c-0.8,1.7-1.5,3.4-2.6,4.9c-0.9,1.2-2.2,2.5-3.9,2.4
		c-1.4-0.1-2.4-1.5-2.7-2.7c-0.5-1.7,0-3.5,0.5-5.1c0.6-1.9,1.7-3.6,2.5-5.4C54.7,34,55.6,32.1,56.8,30.4
		C57.7,29.1,54.7,33.5,56.8,30.4L56.8,30.4z M44.1,32.5c1-1.7,2.1-3.4,3.5-4.8c0.9-0.9,2-1.6,3.3-1.7c1.1-0.1,2.3,0.2,3,1.1
		c0.9,1,0.9,2.5,0.5,3.8c-0.5,1.6-1.7,3-2.4,4.5c-1,1.8-1.8,3.8-2.9,5.6c-0.9,1.5-2.2,3.1-3.8,4c-0.5,0.3-1.2,0.6-1.9,0.4
		c-0.7-0.2-1.2-1-1.5-1.7C40.4,40.1,42.4,35.7,44.1,32.5C45.2,30.6,42.5,35.5,44.1,32.5L44.1,32.5z M84,35.8
		c-1.3,3.3-2.8,6.5-4.3,9.7c-1.3,2.9-2.9,5.7-4.1,8.6C73,59.9,70.7,66,66,70.4c-2.1,2-4.7,3.6-7.7,3.6c-1.6,0-3.2-0.3-4.7-1
		c-0.6-0.3-1.3-0.6-1.9-1c-0.5-0.3-1.2-1.2-1.8-1.1c-0.6,0.1-1.3,0.3-1.9,0.5c-0.7,0.1-1.4,0.2-2.1,0.3c-1.2,0.1-2.4,0-3.5-0.3
		c-1.7-0.4-3.3-1.3-4.5-2.6c-1.1-1.1-1.7-2.4-2.4-3.8c-1.5-3.1-3.5-5.8-5-8.8c-0.8-1.5-1.5-3-2.2-4.6c-0.6-1.6-1.1-3.2-1.7-4.8
		c-1.2-3.1-3-5.8-4.9-8.4c-1-1.3-2-2.6-3.2-3.7c-1-0.9-2.1-1.7-3-2.7c-0.7-0.7-1.7-1.8-1.6-2.8c0.2-1.1,1.6-1.4,2.5-1.6
		c3-0.4,5.9,1.1,8.4,2.6c2.7,1.7,4.9,4,7,6.3c0.9,1,1.7,2.1,2.5,3.1c0.8,0.9,1.6,1.9,2.8,2.3c0.6,0.2,1,0.2,1.6,0.1
		c0.9-0.1,0.8,0.9,1,1.6c0.4,1.3,1.1,2.5,2.3,3.2c1.1,0.7,2.4,0.6,3.6,0.1c0.8-0.4,1.3-1,2-1.4c0.5-0.3,0.8,0,0.9,0.5
		c0.4,2.5,2.1,4.9,4.9,5c1.4,0.1,2.9-0.6,4-1.5c0.1,1.7,0.9,3.8,2.5,4.6c1.8,0.8,4.1,0,5.6-1.1c1.5-1.1,2.7-2.7,3.7-4.3
		c0.5-0.8,1-1.6,1.4-2.4c0.4-0.8,1-1.7,1.3-2.6c0.3-0.8,0.5-1.7,0.8-2.4c0.4-0.9,0.9-1.7,1.3-2.6c0.8-1.8,1.8-3.4,2.8-5.1
		c1-1.7,1.8-3.6,2.8-5.3c0.9-1.6,2.4-2.7,4.4-2.3C88.1,27.1,84.9,33.5,84,35.8L84,35.8z"/>
</g>
</svg>
