<?xml version="1.0" encoding="utf-8"?>
<!-- Generator: Adobe Illustrator 19.1.0, SVG Export Plug-In . SVG Version: 6.00 Build 0)  -->
<svg version="1.1" id="Layer_1" xmlns="http://www.w3.org/2000/svg" xmlns:xlink="http://www.w3.org/1999/xlink" x="0px" y="0px"
	 width="100px" height="100px" viewBox="0 0 100 100" enable-background="new 0 0 100 100" xml:space="preserve">
<g>
	<path d="M10.1,70.9v-1.7l1.4,1l-1.4-1V70.9H6.8L50,11l43.2,59.9H10.1L10.1,70.9z M13.4,67.5l73.2,0L50,16.8L13.4,67.5L13.4,67.5z"
		/>
	<polygon points="49.8,14.4 36.4,32.8 44.2,26.7 43.2,37.1 47.9,28.5 50.2,32.6 51.5,25.3 57.2,31.4 55.5,25.7 63.4,32.6 49.8,14.4 
			"/>
	<polygon points="7.7,87.2 9,87.2 9.1,77 7.5,77 7.5,75.4 16.9,75.4 17,78.9 15.2,78.9 15.1,77 11.2,77 11.2,81.1 15,81.1 15,82.8 
		11.2,82.8 11.2,87.2 15.2,87.2 15.4,85 17.2,85 17,88.8 7.7,88.8 7.7,87.2 	"/>
	<path d="M18.2,75.4h5V77h-1.3l3.2,8.8c0.1,0.4,0.2,0.8,0.3,1.2h0c0.1-0.4,0.2-0.8,0.3-1.2l3.1-8.8h-1.5v-1.6h4.9V77h-1.2l-4.6,11.8
		H24L19.4,77h-1.2V75.4L18.2,75.4z"/>
	<polygon points="33.1,87.2 34.4,87.2 34.5,77 33,77 33,75.4 42.3,75.4 42.4,78.9 40.6,78.9 40.5,77 36.7,77 36.6,81.1 40.4,81.1 
		40.4,82.8 36.6,82.8 36.6,87.2 40.6,87.2 40.8,85 42.6,85 42.4,88.8 33.1,88.8 33.1,87.2 	"/>
	<path d="M44.3,87.2h1.3L45.7,77h-1.4v-1.6h5.9c2.7,0,4,1.6,4,3.5c0,2.3-1.5,3.4-3.2,3.5v0c0.7,0.1,1.2,0.7,1.7,1.4l1.4,2.4
		c0.4,0.6,0.7,0.8,1.2,0.8h0.5v1.6h-1.2c-1.1,0-1.6-0.1-2.4-1.4l-1.8-3.1c-0.6-1-0.8-1.2-1.5-1.2h-1.1l0,4.1h1.5v1.6h-5V87.2
		L44.3,87.2z M49.4,81.4c1.5,0,2.6-0.8,2.6-2.2c0-1.4-0.9-2.2-2.4-2.2h-1.8l0,4.4H49.4L49.4,81.4z"/>
	<polygon points="56.8,87.2 58.1,87.2 58.2,77 56.6,77 56.6,75.4 66,75.4 66.1,78.9 64.3,78.9 64.2,77 60.3,77 60.3,81.1 64.1,81.1 
		64.1,82.8 60.3,82.8 60.2,87.2 64.3,87.2 64.4,85 66.2,85 66.1,88.8 56.8,88.8 56.8,87.2 	"/>
	<path d="M70.3,85.1v1.8c0.4,0.2,1.4,0.5,2.4,0.5c1.7,0,2.8-0.8,2.8-2.2c0-1.1-0.6-1.5-2.1-1.9l-2.4-0.7c-1.5-0.4-2.9-1.3-2.9-3.5
		c0-2.6,2.2-3.9,5-3.9c1.7,0,3,0.4,4,0.6v3h-2v-1.6c-0.3-0.1-1-0.3-2-0.3c-2,0-2.8,0.9-2.8,1.9c0,1.2,0.9,1.6,2.1,1.9l2.1,0.5
		c1.5,0.4,3.2,1.2,3.2,3.6c0,2.6-2,4.2-5.1,4.2c-1,0-3.3-0.2-4.5-0.7v-3.2H70.3L70.3,85.1z"/>
	<polygon points="82.9,87.2 84.2,87.2 84.3,77 81.2,77 81.1,78.9 79.2,78.9 79.3,75.4 91.4,75.4 91.5,78.9 89.6,78.9 89.5,77 
		86.4,77 86.4,87.2 87.9,87.2 87.9,88.8 82.9,88.8 82.9,87.2 	"/>
</g>
</svg>
