<?xml version="1.0" encoding="utf-8"?>
<!-- Generator: Adobe Illustrator 19.1.0, SVG Export Plug-In . SVG Version: 6.00 Build 0)  -->
<svg version="1.1" id="Layer_1" xmlns="http://www.w3.org/2000/svg" xmlns:xlink="http://www.w3.org/1999/xlink" x="0px" y="0px"
	 width="100px" height="100px" viewBox="0 0 100 100" enable-background="new 0 0 100 100" xml:space="preserve">
<g>
	<path d="M46.9,44.8c7.8-1.9,13.5-7.8,13.5-14.7c0-2.9-1-5.7-2.8-8l0,0L56,11.3l-5.1,5.5c-2.8-1.3-6.1-2.1-9.7-2.1
		c-3.5,0-6.8,0.8-9.7,2.1l-5.1-5.5L24.8,22l0,0c-1.8,2.3-2.8,5.1-2.8,8c0,6.9,5.7,12.8,13.5,14.7c-1.4,3.5-3,6.2-5.3,8.6
		c-3.9,4.1-6.1,9.6-6.1,15.3v9.8c0,5.6,4.6,10.2,10.2,10.2h13.8c5.6,0,10.2-4.6,10.2-10.2v-9.8c0-5.7-2.2-11.1-6.1-15.3
		C49.9,51,48.3,48.3,46.9,44.8z M35.2,37.9l-4.3,1.6c-0.1,0-0.2,0-0.3,0c-0.3,0-0.6-0.2-0.7-0.5c-0.1-0.4,0.1-0.8,0.5-1l4.3-1.6
		c0.4-0.1,0.8,0.1,1,0.5C35.8,37.3,35.6,37.7,35.2,37.9z M35.6,34.9c-0.1,0.3-0.4,0.5-0.7,0.5c-0.1,0-0.2,0-0.3,0l-4.3-1.6
		c-0.4-0.1-0.6-0.6-0.5-1c0.1-0.4,0.6-0.6,1-0.5l4.3,1.6C35.6,34.1,35.8,34.5,35.6,34.9z M34,30c-2.5,0-4.5-2-4.5-4.5l7.9,2.9
		C36.6,29.4,35.4,30,34,30z M43.5,34.2l-1.9,3.5c-0.1,0.1-0.2,0.2-0.4,0.2c-0.1,0-0.3-0.1-0.4-0.2L39,34.2c-0.1-0.1-0.1-0.3,0-0.4
		c0.1-0.1,0.2-0.2,0.3-0.2h1.9h1.9c0.1,0,0.3,0.1,0.3,0.2C43.5,33.9,43.5,34,43.5,34.2z M45,28.4l7.9-2.9c0,2.5-2,4.5-4.5,4.5
		C47.1,30,45.8,29.4,45,28.4z M52.1,33.8l-4.3,1.6c-0.1,0-0.2,0-0.3,0c-0.3,0-0.6-0.2-0.7-0.5c-0.1-0.4,0.1-0.8,0.5-1l4.3-1.6
		c0.4-0.1,0.8,0.1,1,0.5C52.7,33.2,52.5,33.6,52.1,33.8z M46.8,36.9c0.1-0.4,0.6-0.6,1-0.5l4.3,1.6c0.4,0.1,0.6,0.6,0.5,1
		c-0.1,0.3-0.4,0.5-0.7,0.5c-0.1,0-0.2,0-0.3,0l-4.3-1.6C46.9,37.7,46.7,37.3,46.8,36.9z"/>
	<path d="M76.3,28.7c-4.1-1.3-8.1,0-10.7,3.7c-2.7,3.8-1.9,9.4-1.3,13.5c0.1,0.6,0.2,1.2,0.2,1.7c0.6,4.3,1.1,8.8,0.9,13.4
		c-0.1,2.7-1.4,5.4-3.2,6.3c-0.7,0.4-1.4,0.4-2.2,0.2v0.4c0,1.3-0.2,2.5-0.6,3.7c0.5,0.1,1,0.1,1.5,0.1c1.1,0,2.2-0.3,3.3-0.8
		c3.1-1.6,5.3-5.5,5.4-9.8c0.2-5-0.4-9.7-0.9-14.1c-0.1-0.6-0.2-1.2-0.3-1.8c-0.5-3.6-1.2-8,0.5-10.4c2-2.9,4.6-2.6,6-2.1
		c2.8,0.9,4.8,3.6,4.8,6.2c0,0.9-0.4,1.5-1.1,1.9c-0.8,0.4-1.8,0.4-2.4,0c-0.1-0.1-0.5-0.4-0.4-1.3c0.1-1.1-0.7-2.2-1.8-2.3
		c-1.1-0.2-2.2,0.7-2.3,1.8c-0.3,2.2,0.5,4.1,2.1,5.3c1.8,1.3,4.5,1.4,6.7,0.3c2.1-1.1,3.4-3.1,3.4-5.6
		C84.1,34.5,80.8,30.2,76.3,28.7z"/>
</g>
</svg>
