<?xml version="1.0" encoding="utf-8"?>
<!-- Generator: Adobe Illustrator 19.1.0, SVG Export Plug-In . SVG Version: 6.00 Build 0)  -->
<svg version="1.1" id="Layer_1" xmlns="http://www.w3.org/2000/svg" xmlns:xlink="http://www.w3.org/1999/xlink" x="0px" y="0px"
	 width="100px" height="100px" viewBox="0 0 100 100" enable-background="new 0 0 100 100" xml:space="preserve">
<g>
	<path d="M53.6,66.7c-0.5-0.5-1.2-0.5-1.7,0l-8.5,8.5c0.1,0.5,0.3,0.9,0.3,1.4c0.1,0.6,0,1.1-0.1,1.7c0.1,0,10-9.9,10-9.9
		C54,67.9,54,67.1,53.6,66.7L53.6,66.7z"/>
	<path d="M26.6,92c-0.5,0.5-0.5,1.2,0,1.7c0.5,0.5,1.2,0.5,1.7,0l8.4-8.4c-1-0.2-1.8-0.5-2.5-0.8L26.6,92L26.6,92z"/>
	<path d="M36.6,70.6c0.9-0.1,1.8,0,2.6,0.3l8.5-8.5c0.5-0.5,0.5-1.2,0-1.7c-0.5-0.5-1.2-0.5-1.7,0l-9.9,9.9c0,0,0,0,0,0.1
		C36.2,70.7,36.4,70.7,36.6,70.6L36.6,70.6z"/>
	<path d="M20.7,86c-0.5,0.5-0.5,1.2,0,1.7c0.5,0.5,1.2,0.5,1.7,0l7.5-7.5c-0.3-0.7-0.6-1.5-0.8-2.5L20.7,86L20.7,86z"/>
	<path d="M54.4,83.4c0,0-0.1-0.1-0.1-0.1c-0.9-1.2-3.5-4.8-10.2-3.9c-0.3,0-0.6,0.1-0.8,0.1c-0.8,2.1-2.6,3.7-4.9,4.1l-0.6,0.6
		c1.8,0.3,4,0.3,7-0.1c3.9-0.5,5,1,5.7,1.9c0.2,0.3,0.4,0.6,0.8,0.9c1,0.8,2.5,0.7,3.4-0.3C55.3,85.7,55.3,84.3,54.4,83.4L54.4,83.4
		z"/>
	<path d="M34.8,71.1c0-0.3,0.1-0.6,0.1-0.8c0.9-6.7-2.7-9.3-3.9-10.2C31,60,31,60,30.9,59.9c-0.9-0.8-2.2-0.9-3.2-0.2
		c-1,0.8-1.2,2.3-0.3,3.4c0.3,0.3,0.6,0.6,0.9,0.8c0.9,0.7,2.5,1.8,1.9,5.7c-0.4,3-0.4,5.2-0.1,7l0.6-0.6c0.2-1.1,0.7-2.1,1.4-3
		C32.9,72.1,33.8,71.5,34.8,71.1L34.8,71.1z"/>
	<path d="M42.5,76.7c-0.3-3-2.9-5.1-5.8-4.9c-3,0.3-5.1,2.9-4.9,5.8c0.3,3,2.9,5.1,5.8,4.9C40.6,82.3,42.8,79.7,42.5,76.7L42.5,76.7
		z"/>
	<path d="M48,61.1c0,0,0.8-0.6,2.2-1.6c0.7-0.5,1.6-1.1,2.5-1.8c0.9-0.8,1.9-1.7,3-2.6c1-1.1,2.1-2.2,3.1-3.5c0.9-1.4,2-2.8,2.8-4.4
		c0.9-1.6,1.5-3.4,2-5.2c0.5-1.8,0.9-3.8,1.2-5.7c0.5-3.9,0.8-7.8,1.4-11.5c0.3-1.8,0.7-3.6,1.2-5.3c0.4-1.7,1.1-3.2,1.5-4.6
		c0.5-1.4,1.2-2.6,1.7-3.7c0.5-1.1,1.1-2,1.6-2.7C73.1,6.8,73.6,6,73.6,6l0.2,0.1c0,0-0.4,0.9-1.1,2.5c-0.3,0.8-0.8,1.7-1.2,2.9
		c-0.4,1.1-0.9,2.4-1.3,3.8c-1.7,5.6-2.6,13.3-4,21.2c-0.4,2-0.8,3.9-1.4,5.8c-0.6,1.9-1.3,3.7-2.3,5.3c-0.8,1.7-2,3.1-3,4.5
		c-1.1,1.3-2.3,2.4-3.4,3.5c-1.2,0.9-2.2,1.8-3.2,2.5c-1,0.7-1.9,1.2-2.6,1.7c-1.5,0.9-2.3,1.5-2.3,1.5L48,61.1L48,61.1z"/>
	<path d="M53.9,67.2c0,0,0.8-0.6,2.2-1.6c0.7-0.5,1.6-1.1,2.5-1.8c0.9-0.8,1.9-1.7,3-2.6c1-1.1,2.1-2.2,3.1-3.5
		c0.9-1.4,2-2.8,2.8-4.4c0.9-1.6,1.5-3.4,2-5.2c0.5-1.8,0.9-3.8,1.2-5.7c0.5-3.9,0.8-7.8,1.4-11.5c0.3-1.8,0.7-3.6,1.2-5.3
		c0.4-1.7,1.1-3.2,1.5-4.6c0.5-1.4,1.2-2.6,1.7-3.7c0.5-1.1,1.1-2,1.6-2.7c0.9-1.5,1.5-2.3,1.5-2.3l0.2,0.1c0,0-0.4,0.9-1.1,2.5
		c-0.3,0.8-0.8,1.7-1.2,2.9c-0.4,1.1-0.9,2.4-1.3,3.8c-1.7,5.6-2.6,13.3-4,21.2c-0.4,2-0.8,3.9-1.4,5.8c-0.6,1.9-1.3,3.7-2.3,5.3
		c-0.8,1.7-2,3.1-3,4.5c-1.1,1.3-2.3,2.4-3.4,3.5c-1.2,0.9-2.2,1.8-3.2,2.5c-1,0.7-1.9,1.2-2.6,1.7c-1.5,0.9-2.3,1.5-2.3,1.5
		L53.9,67.2L53.9,67.2z"/>
</g>
</svg>
