<?xml version="1.0" encoding="utf-8"?>
<!-- Generator: Adobe Illustrator 19.1.0, SVG Export Plug-In . SVG Version: 6.00 Build 0)  -->
<svg version="1.1" id="Layer_1" xmlns="http://www.w3.org/2000/svg" xmlns:xlink="http://www.w3.org/1999/xlink" x="0px" y="0px"
	 width="100px" height="100px" viewBox="0 0 100 100" enable-background="new 0 0 100 100" xml:space="preserve">
<g>
	<circle cx="42.4" cy="55" r="2.5"/>
	<circle cx="57.4" cy="55" r="2.5"/>
	<path d="M77.5,35c-0.9,0-1.8,0.2-2.6,0.5C73.8,24,63.1,15,50,15c-13.1,0-23.8,9-24.9,20.5c-0.8-0.3-1.7-0.5-2.6-0.5
		c-4.1,0-7.5,3.4-7.5,7.5V55c0,4.1,3.4,7.5,7.5,7.5c1,0,2-0.2,2.8-0.6c0.4,3.9,1.1,6.4,2.1,8.1c1.9,3,14.8,15,22.5,15
		c7.7,0,20.6-12,22.4-14.9c1-1.7,1.7-4.3,2.2-8.2c0.9,0.4,1.9,0.6,3,0.6c4.1,0,7.5-3.4,7.5-7.5V42.5C85,38.4,81.6,35,77.5,35z
		 M68.2,67.4C66.4,70,54.9,80,49.9,80c-5,0-16.5-10-18.2-12.6c-1.1-1.9-1.6-6.9-1.7-11.8c0-0.2,0.1-0.4,0.1-0.6V45
		c0-0.1,0-0.3,0-0.4c1.3,0.3,2.6,0.4,4,0.4c7.1,0,13.3-3.7,15.9-9c2.7,5.3,8.8,9,15.9,9c1.4,0,2.7-0.2,4-0.4c0,0.1,0,0.3,0,0.4
		c0,0.3,0,0.5,0,0.8C70,51,70.2,64.1,68.2,67.4z"/>
</g>
</svg>
