<?xml version="1.0" encoding="utf-8"?>
<!-- Generator: Adobe Illustrator 19.1.0, SVG Export Plug-In . SVG Version: 6.00 Build 0)  -->
<svg version="1.1" id="Layer_1" xmlns="http://www.w3.org/2000/svg" xmlns:xlink="http://www.w3.org/1999/xlink" x="0px" y="0px"
	 width="100px" height="100px" viewBox="0 0 100 100" enable-background="new 0 0 100 100" xml:space="preserve">
<g>
	<path d="M32.7,82.7H51c5.1-1.2,9.4-3.3,12.5-6l3.7,5.9h8.9l-2.9-14.2l-0.4-1.8l0.4-1.8l3-14.2h-8.9l-3.7,5.9
		c-2.7-2.4-6.4-4.3-10.7-5.6h-1v-4.6l-3-2.9h-3.5V28.6c0-3.7-3-6.7-6.7-6.7h-2.2l-1.9-2.3h-3.6h-2.1v11.2h2.1h3.6l1.9-2.3h2.2
		c0.1,0,0.1,0,0.1,0.1v14.6h-3.4l-3,2.9v4.6h-1.5C21.5,53.4,15,59.5,15,66.5C15,73.9,22.4,80.3,32.7,82.7L32.7,82.7z M54.5,66.5
		c0,3.3-2.7,6-6,6c-3.3,0-6-2.7-6-6c0-3.3,2.7-6,6-6C51.8,60.4,54.5,63.1,54.5,66.5L54.5,66.5z M31.1,60.4c3.3,0,6,2.7,6,6
		c0,3.3-2.7,6-6,6c-3.3,0-6-2.7-6-6C25,63.1,27.7,60.4,31.1,60.4L31.1,60.4z"/>
	<path d="M75.7,64.7l-0.4,1.8l0.4,1.8h4.1c-0.2,0.8-0.3,1.7-0.3,2.7c0,3.7,1.4,6.7,3.1,6.7c2.5,0,2.2-6,0.6-10.2h1.2
		c0.6-0.2,0.6-1.6,0-1.8h-1.2c1.5-4.3,1.9-10.2-0.6-10.2c-1.7,0-3.1,3-3.1,6.7c0,1,0.1,1.9,0.3,2.7H75.7L75.7,64.7z M84.5,66
		c0.1,0,0.2,0.2,0.2,0.5c0,0.3-0.1,0.5-0.2,0.5c-0.1,0-0.2-0.2-0.2-0.5C84.3,66.2,84.4,66,84.5,66L84.5,66z"/>
	<path d="M63.6,40c0,1.2,0.9,2.1,2.1,2.1c1.2,0,2.1-0.9,2.1-2.1c0-1.2-0.9-2.1-2.1-2.1C64.5,37.9,63.6,38.9,63.6,40L63.6,40z"/>
	<path d="M57.4,37.6c2.2,0,4-1.8,4-4c0-2.2-1.8-4-4-4c-2.2,0-4,1.8-4,4C53.4,35.8,55.2,37.6,57.4,37.6L57.4,37.6z"/>
	<path d="M65.7,27.6c2.8,0,5.1-2.3,5.1-5.1c0-2.8-2.3-5.1-5.1-5.1c-2.8,0-5.1,2.3-5.1,5.1C60.6,25.3,62.9,27.6,65.7,27.6L65.7,27.6z
		"/>
</g>
</svg>
