<?xml version="1.0" encoding="utf-8"?>
<!-- Generator: Adobe Illustrator 19.1.0, SVG Export Plug-In . SVG Version: 6.00 Build 0)  -->
<svg version="1.1" id="Layer_1" xmlns="http://www.w3.org/2000/svg" xmlns:xlink="http://www.w3.org/1999/xlink" x="0px" y="0px"
	 width="100px" height="100px" viewBox="0 0 100 100" enable-background="new 0 0 100 100" xml:space="preserve">
<g>
	<path d="M53.4,25.4c2.8,0.1,5-2.4,5.1-5.1c0.1-2.8-2.4-5-5.1-5.1c-2.7-0.1-4.9,2.2-5.1,4.8c0,0.1,0,0.2,0,0.3c0,0.1,0,0.2,0,0.3
		C48.5,23.3,50.7,25.3,53.4,25.4z"/>
	<path d="M86.8,70.9c-3.4-4.5-6.8-9-10.2-13.5c-4.4-5.8-8.7-11.6-13.1-17.5c-0.2-0.3-0.5-0.6-0.7-0.9c-0.5-0.7-1.4-1.1-2.2-0.6
		c-0.7,0.4-1.1,1.4-0.7,2.1c0,0,0,0.1,0.1,0.1c3.4,4.5,6.8,9,10.2,13.5c0.6,0.7,1.1,1.5,1.7,2.2c-1.8,2.1-3.6,4.2-5.4,6.2
		c-1.2-0.6-2.5-1.3-3.7-1.9c-0.7-0.3-1.4-0.3-2,0.3c-2.3,2.2-4.6,4.4-6.9,6.6c-2.1-1.6-4.2-3.2-6.3-4.8c0.3-0.4,0.5-0.8,0.8-1.2
		c0.3-0.4,0.6-0.8,0.8-1.2c0.5-0.7,0.1-1.8-0.6-2.2c-0.3-0.2-0.6-0.2-0.8-0.2c-0.5,0-1,0.3-1.4,0.8c-3.7,5.3-7.3,10.7-11,16
		c-2.8-2.5-5.6-5-8.4-7.5c-0.8-0.8-1.9-0.5-2.5,0.3c-3.8,4.9-7.5,9.8-11.3,14.8c0,0,0,0.1-0.1,0.1c-0.5,0.7-0.1,1.8,0.6,2.2
		c0.8,0.5,1.7,0.1,2.2-0.6c3.4-4.4,6.8-8.9,10.2-13.3c2.8,2.5,5.6,5,8.5,7.6c0.8,0.7,1.9,0.6,2.5-0.3c2.9-4.2,5.8-8.4,8.6-12.6
		c2.5,1.9,4.9,3.8,7.4,5.6c0.6,0.4,1.5,0.2,2-0.3c2.4-2.2,4.7-4.5,7.1-6.7c1.3,0.7,2.5,1.3,3.8,2c0.6,0.3,1.5,0.3,2-0.3
		c1.9-2.3,3.9-4.5,5.8-6.8c3.2,4.2,6.3,8.4,9.5,12.6c0.2,0.3,0.5,0.6,0.7,0.9c0.5,0.7,1.4,1.1,2.2,0.6
		C86.9,72.7,87.3,71.6,86.8,70.9z"/>
	<path d="M44.6,23.8c1,1.4,1.8,2.5,2.5,3.4c0.5,0.7,0.9,1.1,1.3,1.5v26.6c0,0.5,0.2,0.9,0.6,1.2c0.3,0.2,0.6,0.4,1,0.4
		c0,0,0,0,0.1,0l-0.7,1.1c0.3,0,0.6,0.1,0.8,0.2c0.7,0.4,1.1,1.5,0.6,2.2c-0.3,0.4-0.6,0.8-0.8,1.2c-0.3,0.4-0.3,0.4-0.5,0.8
		c2.1,1.6,2.6,2,4.7,3.6c2.3-2.2,5.2-4.5,7.5-6.7c0.5-0.5,3.5,1.6,4.8,2.3c1.8-2.1,2.6-3,4.4-5.1C70,55.6,59.9,42.5,59.9,42.5v12.7
		c0,0.9-0.7,1.6-1.6,1.6c-0.2,0-0.5-0.1-0.7-0.2c0.6-0.3,0.9-0.8,0.9-1.5V28.6c0.3-0.3,0.7-0.8,1.2-1.4c0.7-0.8,1.5-1.9,2.6-3.3
		c1.8-2.4,3.5-4.8,3.5-4.8c0.5-0.7,0.4-1.7-0.4-2.3c-0.7-0.5-1.7-0.4-2.3,0.4c-2.6,3.7-5.7,7.7-6.7,8.9l-3.5,0h0l-2.8,0
		c-1.4-1.6-6-8.1-6.5-9c-0.4-0.7-1.3-1.1-2.1-0.8c-0.8,0.3-1.2,1.3-0.9,2.1C41.1,19,44.5,23.7,44.6,23.8z M52.9,52.6v2.6
		c0,0.9-0.7,1.6-1.6,1.6c-0.2,0-0.5-0.1-0.7-0.2c0.5-0.3,0.9-0.8,0.9-1.5V43.5h3.8v5.6L52.9,52.6z"/>
</g>
</svg>
