<?xml version="1.0" encoding="utf-8"?>
<!-- Generator: Adobe Illustrator 19.1.0, SVG Export Plug-In . SVG Version: 6.00 Build 0)  -->
<svg version="1.1" id="Layer_1" xmlns="http://www.w3.org/2000/svg" xmlns:xlink="http://www.w3.org/1999/xlink" x="0px" y="0px"
	 width="100px" height="100px" viewBox="0 0 100 100" enable-background="new 0 0 100 100" xml:space="preserve">
<g>
	<path d="M44.5,41.6C41,29.2,37.3,19.4,27.9,20.1c-9.4,0.7-5.6,10-5.6,10s-9.8,2.2-5,10.3C22.1,48.4,32.2,45.8,44.5,41.6z"/>
	<path d="M67.9,23.4c-0.7-9.4-10-5.6-10-5.6s-2.2-9.8-10.3-5c-8.1,4.8-5.5,15-1.3,27.3C58.7,36.5,68.5,32.8,67.9,23.4z"/>
	<path d="M22.6,60.7c0.7,9.4,10,5.6,10,5.6s2.2,9.8,10.3,5c8.1-4.8,5.5-15,1.3-27.3C31.7,47.7,21.9,51.3,22.6,60.7z"/>
	<path d="M84,85.9C80.7,74.4,74.9,65.5,69.2,59c0.2-2.4-0.7-4.8-0.7-4.8s9.8-2.2,5-10.3c-4.8-8.1-15-5.5-27.3-1.3
		c3.6,12.4,7.2,22.3,16.6,21.6c1.9-0.1,3.2-0.6,4.2-1.3c5.1,6,10.2,14.1,13,24.1c0.3,0.9,1.1,1.5,2,1.5c0.2,0,0.4,0,0.6-0.1
		C83.6,88.2,84.3,87,84,85.9z"/>
</g>
</svg>
