<?xml version="1.0" encoding="utf-8"?>
<!-- Generator: Adobe Illustrator 19.1.0, SVG Export Plug-In . SVG Version: 6.00 Build 0)  -->
<svg version="1.1" id="Layer_1" xmlns="http://www.w3.org/2000/svg" xmlns:xlink="http://www.w3.org/1999/xlink" x="0px" y="0px"
	 width="100px" height="100px" viewBox="0 0 100 100" enable-background="new 0 0 100 100" xml:space="preserve">
<path d="M81.1,57.4l-1.8-4.7l-11.9,4.5l-2.3-1.3V44.2l2.5-1.5l11.6,4.6l1.9-4.7l-7.9-3.1l8.8-5.1l-2.5-4.4l-8.9,5.2l1.4-8.4l-5-0.8
	l-2.1,12.5l-2.2,1.3l-10.2-5.9v-2.1l9.9-8.5l-3.3-3.8l-6.6,5.6V14.5h-5.1v10.6l-6.6-5.6l-3.3,3.8l9.9,8.5v2.6L37.7,40l-2.2-1.3
	L33,25.9l-5,0.9l1.6,8.5l-9.2-5.3L18,34.4l9.1,5.3L19,42.6l1.7,4.8l12.3-4.3l2.8,1.6v10.7l-2.8,1.6l-12.3-4.3L19,57.4l8.2,2.9
	L18,65.6l2.5,4.4l9.1-5.3l-1.6,8.5l5,0.9l2.4-12.8l2.9-1.7l9.1,5.3v4l-9.8,7.8l3.1,4l6.6-5.3v10.1h5.1V75.2l6.6,5.4l3.2-3.9
	l-9.8-8.1v-3.3l9.5-5.5l3.1,1.8L66.9,74l5-0.7l-1.3-8.4l8.8,5.1l2.5-4.4l-8.9-5.2L81.1,57.4z M40.7,47.6l4.2,2.4l-4.2,2.4V47.6z
	 M47.5,59.1l-4.1-2.3l4.1-2.3V59.1z M47.5,45.6l-4.7-2.7l4.7-2.7V45.6z M50.7,51.3h-1.5L48.5,50l0.7-1.3h1.5l0.7,1.3L50.7,51.3z
	 M52.5,39.7l5.1,3l-5.1,3V39.7z M52.5,59.5v-5.1L57,57L52.5,59.5z M60,52.9l-5-2.9l5-2.9V52.9z"/>
</svg>
