<?xml version="1.0" encoding="utf-8"?>
<!-- Generator: Adobe Illustrator 19.1.0, SVG Export Plug-In . SVG Version: 6.00 Build 0)  -->
<svg version="1.1" id="Layer_1" xmlns="http://www.w3.org/2000/svg" xmlns:xlink="http://www.w3.org/1999/xlink" x="0px" y="0px"
	 width="100px" height="100px" viewBox="0 0 100 100" enable-background="new 0 0 100 100" xml:space="preserve">
<g>
	<circle cx="52.6" cy="23.2" r="1.1"/>
	<circle cx="47.4" cy="23.2" r="1.1"/>
	<circle cx="64" cy="23" r="3.3"/>
	<path d="M49.5,18.2c0.2,0,0.4,0,0.5,0c0.1,0,0.3,0,0.5,0c1.3,0,5,0.3,9.4,3.5c0.2-0.6,0.5-1.1,1-1.5c-0.4-0.6-0.8-1.3-1.3-2
		c-4.1-5.6-16.2-5.5-19.7-2.2c-1.9,1.8-1.7,4.7-1.2,6.8C43.7,18.5,48.1,18.2,49.5,18.2z"/>
	<path d="M60.4,17.8c0.4,0.5,0.7,1,1,1.5c0.7-0.5,1.6-0.8,2.5-0.8c0,0,0,0,0,0c-0.6-1.5-1.2-2.7-1.2-2.7C60.5,12,53.4,7.2,47,9.5
		c-3,1-4.4,2.7-5,4.2c1.7-0.6,3.7-0.9,5.9-0.9C53.4,12.8,58.1,14.7,60.4,17.8z"/>
	<path d="M55.4,91.1c2.4,0.4,5.8-7.7,7.2-12.4c-3.2,1.2-6.5,1.9-9.9,2.1C52.8,85.5,53.6,90.8,55.4,91.1z"/>
	<path d="M44.5,91.1c1.8-0.3,2.6-5.6,2.7-10.3c-3.5-0.3-6.8-1-9.9-2.2C38.7,83.4,42.1,91.5,44.5,91.1z"/>
	<path d="M48.2,75.2c1.2,0.1,2.4,0.1,3.6,0c1-0.2,1.8-1.1,1.8-2.1c0-0.1,0-0.2,0-0.3c0-0.9-0.8-1.5-1.8-1.4c-1.2,0.1-2.4,0.1-3.6,0
		c-1-0.1-1.8,0.5-1.8,1.4c0,0.1,0,0.2,0,0.3C46.4,74.2,47.2,75.1,48.2,75.2z"/>
	<path d="M52,76.7L52,76.7l-0.1,0c-0.7,0-1.3,0.1-1.9,0.1c-0.6,0-1.3,0-1.9-0.1l-0.1,0l-0.1,0c-1.1-0.2-2.1-0.9-2.7-1.9
		c-6.8-0.6-13.2-2.4-18.7-5.3c5.3,5.8,13.8,9.6,23.4,9.6c9.6,0,18.1-3.8,23.4-9.6c-5.5,2.8-11.9,4.7-18.7,5.3
		C54.1,75.8,53.2,76.6,52,76.7z"/>
	<path d="M50,54.8L50,54.8c4.8,0,11.2-4.3,14.7-9.2c3.3-4.7,6.3-9.6-0.4-18c-0.1,0-0.3,0-0.4,0c-2.4,0-4.3-1.9-4.3-4.3
		c0-0.1,0-0.3,0-0.4c-5.4-4.1-9.7-3.6-9.7-3.6c0,0-6.5-0.8-13.4,7.1c-7.9,9-4.8,14.2-1.4,19.1C38.7,50.4,45.1,54.8,50,54.8z
		 M51.7,32c-1.1,0.8-2.5,0.8-3.5-0.1l1.8-2.1L51.7,32C51.7,32,51.7,32,51.7,32z M42.8,22.9c2.5-2.8,6.1-2.7,7.2-2.7
		c1.3,0,4.7-0.2,7.2,2.7c3,3.5,2.3,4.4,1.6,5c-0.7,0.6-1.8,0.8-3.9-0.7c-2-1.4-3.1-1.8-4.9-1.8c-1.8,0-3,0.4-4.9,1.8
		c-2.1,1.5-3.2,1.3-3.9,0.7C40.5,27.3,39.7,26.3,42.8,22.9z"/>
	<path d="M89.4,32.3c-0.5-0.8-2.3-0.6-4.4,0c-0.3-1.5-0.7-2.8-1.3-2.8c-0.7,0-1.5,2-1.9,3.8c0.6,1.5,1.3,4.2,1.7,7.5
		C86.3,38.2,90.3,33.8,89.4,32.3z"/>
	<path d="M80,33.9c-2.9,0.8-6.6,2.4-9.9,4.2c0,0,0,0,0,0c0,0.2-0.1,0.5-0.1,0.7c-0.5,3-2.2,5.5-3.8,7.8c-3.5,4.9-10.3,10-16.3,10
		c-5.9,0-12.8-5.2-16.3-10c-1.6-2.3-3.3-4.8-3.8-7.8c0-0.2-0.1-0.5-0.1-0.8c-3.3-1.8-7-3.5-9.8-4.2c-0.6,1.6-1.5,4.8-1.8,8.7
		c1.3,2,2.8,4,4.3,5.8c-1,2.3-1.5,4.8-1.5,7.4c0,1.3,0.1,2.6,0.4,3.8h0c0,0,0,0,0,0c0,0,0,0,0,0l0,0c0,0.1,0.1,0.3,0.1,0.5
		c0,0,0,0,0,0c0.3,1.4,0.8,2.8,1.5,4.2l5,2.5c5.2,2.6,11,4.3,17,4.9c0.1-0.1,0.1-0.3,0.2-0.4c0,0,0,0,0-0.1c0.2-0.2,0.3-0.5,0.6-0.7
		c0.5-0.5,1.3-0.7,2.1-0.7c0.1,0,0.3,0,0.4,0c0.6,0,1.1,0.1,1.7,0.1c0.5,0,1.1,0,1.7-0.1c0.1,0,0.3,0,0.4,0c0.8,0,1.5,0.3,2.1,0.7
		c0.1,0.1,0.2,0.2,0.3,0.3c0.1,0.1,0.2,0.2,0.3,0.4c0,0,0,0,0,0.1c0.1,0.1,0.1,0.3,0.2,0.4c6-0.6,11.8-2.3,17-4.9l5-2.5
		c0.6-1.3,1.2-2.7,1.5-4.2c0,0,0.1-0.3,0.1-0.5c0.3-1.3,0.4-2.6,0.4-3.9c0-2.6-0.5-5.1-1.5-7.4c1.5-1.8,3-3.9,4.3-5.8
		C81.5,38.6,80.6,35.5,80,33.9z"/>
	<path d="M16.4,29.6c-0.6,0-1,1.4-1.3,2.8c-2.1-0.6-3.9-0.8-4.4,0c-1,1.4,3,5.9,5.9,8.5c0.4-3.3,1.2-6,1.7-7.5
		C17.8,31.6,17.1,29.5,16.4,29.6z"/>
</g>
</svg>
