<?xml version="1.0" encoding="utf-8"?>
<!-- Generator: Adobe Illustrator 19.1.0, SVG Export Plug-In . SVG Version: 6.00 Build 0)  -->
<svg version="1.1" id="Layer_1" xmlns="http://www.w3.org/2000/svg" xmlns:xlink="http://www.w3.org/1999/xlink" x="0px" y="0px"
	 width="100px" height="100px" viewBox="0 0 100 100" enable-background="new 0 0 100 100" xml:space="preserve">
<g>
	<circle cx="33.8" cy="38.8" r="4.4"/>
	<circle cx="48.5" cy="38.8" r="4.4"/>
	<circle cx="63.1" cy="38.8" r="4.4"/>
	<path d="M80.1,53.7C76.3,36,72.4,26.7,67.8,24.5c-3.1-1.6-12.5-1.8-17.1-1.8V11h-4.4v11.6c-4.6,0-14,0.3-17.1,1.8
		c-4.6,2.3-8.5,11.6-12.3,29.2c-0.1,0.6-0.2,1.1-0.3,1.4c-0.2,0.7,0,1.4,0.4,1.9c0.4,0.5,1.1,0.8,1.7,0.8H28v8.7h4.5v-8.7h2.3v8.7
		h4.5v-8.7h3.9v8.7h4.5v-8.7h0.6h0h1.6v8.7h4.5v-8.7h3v8.7h4.5v-8.7h2.3v8.7H69v-8.7h9.3c0.7,0,1.3-0.3,1.7-0.8
		c0.4-0.5,0.6-1.2,0.4-1.9C80.3,54.8,80.2,54.3,80.1,53.7z M31.1,28.4c2.1-1,11.4-1.4,17.3-1.4h0.1c5.9-0.1,15.2,0.3,17.3,1.4
		c3.7,1.9,7.3,14.6,9.2,22.7h-7.5l-0.5-6.9h-7.3l-0.5,6.9h-6.5l-0.5-6.9h-7.3l-0.5,6.9h-6.6l-0.5-6.9h-7.3l-0.5,6.9H22
		C23.8,43,27.4,30.3,31.1,28.4z"/>
	<path d="M22.2,79.5h1.2L21,86.2c-0.1,0.4-0.2,0.8-0.3,1.2h0c-0.1-0.4-0.2-0.8-0.3-1.2l-2.1-6.7h1.1v-1.2h-3.9v1.2h1l0.6,1.7
		l-1.9,5.1C15,86.6,15,87,14.9,87.4h0c-0.1-0.4-0.2-0.7-0.3-1.1l-2.3-6.8h1.1v-1.2h-4v1.2h0.9l3.5,9.4h1.9l2.1-5.6h0l1.8,5.6h1.9
		l3.5-9.4h0.9v-1.2h-3.8V79.5z"/>
	<polygon points="33.3,79.5 34.5,79.5 34.4,82.8 29.5,82.8 29.5,79.5 30.6,79.5 30.6,78.2 26.7,78.2 26.7,79.5 27.8,79.5 27.8,87.6 
		26.7,87.6 26.7,88.8 30.6,88.8 30.6,87.6 29.5,87.6 29.5,84.2 34.4,84.2 34.4,87.6 33.3,87.6 33.3,88.8 37.2,88.8 37.2,87.6 
		36.1,87.6 36.2,79.5 37.2,79.5 37.2,78.2 33.3,78.2 	"/>
	<polygon points="38.6,79.5 39.7,79.5 39.7,87.6 38.6,87.6 38.6,88.8 42.5,88.8 42.5,87.6 41.4,87.6 41.4,79.5 42.5,79.5 42.5,78.2 
		38.6,78.2 	"/>
	<path d="M49.1,82.8l-1.6-0.4c-1-0.2-1.6-0.6-1.6-1.5c0-0.8,0.7-1.5,2.2-1.5c0.8,0,1.4,0.2,1.6,0.3v1.3h1.6v-2.3
		C50.4,78.3,49.4,78,48,78c-2.2,0-4,1-4,3.1c0,1.7,1.1,2.4,2.3,2.8l1.9,0.5c1.1,0.3,1.7,0.7,1.7,1.5c0,1.1-0.9,1.7-2.2,1.7
		c-0.8,0-1.6-0.2-1.9-0.4v-1.4H44v2.6c0.9,0.4,2.8,0.6,3.6,0.6c2.5,0,4.1-1.2,4.1-3.3C51.7,83.8,50.3,83.1,49.1,82.8z"/>
	<polygon points="52.8,78.2 52.8,81 54.3,81 54.4,79.5 56.8,79.5 56.8,87.6 55.7,87.6 55.7,88.8 59.7,88.8 59.7,87.6 58.5,87.6 
		58.5,79.5 61,79.5 61,81 62.5,81 62.5,78.2 	"/>
	<polygon points="69.4,87.6 66.2,87.6 66.3,79.5 67.4,79.5 67.4,78.2 63.4,78.2 63.4,79.5 64.6,79.5 64.5,87.6 63.4,87.6 63.4,88.8 
		70.8,88.8 70.9,85.8 69.5,85.8 	"/>
	<polygon points="78.5,87.6 75.3,87.6 75.3,84.1 78.4,84.1 78.4,82.7 75.3,82.7 75.4,79.5 78.4,79.5 78.5,81 79.9,81 79.9,78.2 
		72.4,78.2 72.4,79.5 73.7,79.5 73.6,87.6 72.5,87.6 72.5,88.8 80,88.8 80.1,85.8 78.7,85.8 	"/>
	<path d="M90.3,87.6c-0.3,0-0.6-0.1-0.9-0.6L88.2,85c-0.4-0.6-0.8-1.1-1.3-1.2v0c1.3-0.1,2.5-1,2.5-2.8c0-1.5-1-2.8-3.2-2.8h-4.7
		v1.2h1.1l-0.1,8.1h-1v1.2h4v-1.2h-1.2l0-3.3h0.9c0.5,0,0.7,0.2,1.2,0.9l1.5,2.5c0.6,1,1,1.1,1.9,1.1h1v-1.2H90.3z M85.5,83h-1.3
		l0-3.5h1.4c1.2,0,1.9,0.6,1.9,1.7C87.6,82.3,86.7,83,85.5,83z"/>
</g>
</svg>
