<?xml version="1.0" encoding="utf-8"?>
<!-- Generator: Adobe Illustrator 19.1.0, SVG Export Plug-In . SVG Version: 6.00 Build 0)  -->
<svg version="1.1" id="Layer_1" xmlns="http://www.w3.org/2000/svg" xmlns:xlink="http://www.w3.org/1999/xlink" x="0px" y="0px"
	 width="100px" height="100px" viewBox="0 0 100 100" enable-background="new 0 0 100 100" xml:space="preserve">
<g>
	<path d="M15.9,35.2c-0.5,0.5-0.5,1.3,0,1.8c1.1,1.1,2.1,2.1,3.2,3.2c0.5,0.5,1.3,0.5,1.8,0c1.9-1.9,3.7-3.7,5.6-5.6
		c0.6,0.6,1.1,1.1,1.7,1.7c0.2,0,0.3,0,0.5,0c0.2,0,0.4,0,0.6-0.1c0,0,0,0,0,0c0,0,0.1,0,0.1,0c0.1,0,0.3,0,0.4-0.1
		c1.6-0.2,3.2-0.6,4.8-1c1.8-0.5,3.6-1,5.3-1.8c-2-2-4.1-4.1-6.1-6.1c1.9-1.9,3.7-3.7,5.6-5.6c0.5-0.5,0.5-1.3,0-1.8
		c-1.1-1.1-2.1-2.1-3.2-3.2c-0.5-0.5-1.3-0.5-1.8,0c-1.9,1.9-3.7,3.7-5.6,5.6c-3.1-3.1-6.1-6.1-9.1-9.2c-0.5-0.5-1.3-0.5-1.8,0
		c-1.9,1.9-3.7,3.7-5.6,5.6c-0.5,0.5-0.5,1.3,0,1.8c3,3.1,6.1,6.1,9.2,9.2C19.6,31.5,17.8,33.4,15.9,35.2L15.9,35.2L15.9,35.2z"/>
	<path d="M87.6,18.7c-1.9-1.9-3.7-3.7-5.6-5.6c-0.5-0.5-1.3-0.5-1.8,0c-3,3.1-6.1,6.1-9.2,9.2c-1.9-1.9-3.7-3.7-5.6-5.6
		c-0.5-0.5-1.3-0.5-1.8,0c-1.1,1.1-2.1,2.1-3.2,3.2c-0.5,0.5-0.5,1.3,0,1.8c1.9,1.9,3.7,3.7,5.6,5.6c-2.1,2.1-4.1,4.1-6.2,6.2
		c1.6,0.7,3.3,1.2,5,1.7c1.6,0.4,3.2,0.7,4.8,1c0.1,0,0.3,0,0.4,0.1c0,0,0.1,0,0.1,0l0,0c0.2,0,0.4,0,0.6,0.1c0.2,0,0.4,0,0.5,0.1
		c0.1,0,0.2,0,0.3,0c0.6-0.6,1.2-1.2,1.8-1.8c1.9,1.9,3.7,3.7,5.6,5.6c0.3,0.3,0.6,0.4,0.9,0.4c0.3,0,0.6-0.1,0.9-0.4
		c1.1-1.1,2.1-2.1,3.2-3.2c0.5-0.5,0.5-1.3,0-1.8c-1.9-1.9-3.7-3.7-5.6-5.6c3.1-3.1,6.1-6.1,9.2-9.2C88.1,20,88.1,19.2,87.6,18.7
		L87.6,18.7L87.6,18.7z"/>
	<path d="M29.1,64.7c-1.6,1.6-3.3,3.2-4.9,4.8c-1.5,1.5-3.1,3-4.6,4.5c-0.7,0.7-1.4,1.2-1.8,2.2c-1.3,3.1-2.6,6.3-4,9.4
		c-0.2,0.5,0.1,1.2,0.6,1.4c0.7,0.3,1.3,0,1.9-0.2c1-0.4,1.9-0.7,2.9-1.1c2-0.7,4-1.4,5.9-2.2c0.4-0.1,0.8-0.3,1.1-0.6
		c0.4-0.4,0.8-0.8,1.1-1.2c1.5-1.6,3-3.2,4.6-4.8c1-1.1,2.1-2.2,3.1-3.3C32.6,71.2,30.6,68,29.1,64.7L29.1,64.7L29.1,64.7z"/>
	<path d="M30.5,38.6L30.5,38.6C30.5,38.6,30.5,38.6,30.5,38.6L30.5,38.6z"/>
	<path d="M68.7,62.9c1.1-2.9,1.7-6,2-9.1c0.6-4.6,0.7-9.2,0.7-13.8c0-0.7-0.6-1.2-1.2-1.2c-0.2,0-0.4,0-0.6-0.1
		c-1.8-0.3-3.5-0.7-5.3-1.2c-2.1-0.5-4.2-1.1-6.2-2c-2.6-1.2-5-2.7-7.3-4.4c-0.6-0.5-1.2-0.5-1.8,0c-2.2,1.7-4.6,3.1-7.1,4.3
		c-2,0.9-4.3,1.6-6.4,2.1c-1.6,0.4-3.3,0.9-5,1.1c0,0,0,0,0,0c-0.3,0-0.6,0.1-0.9,0.1c-0.7,0.1-1.2,0.5-1.2,1.2
		c0,4.6,0.1,9.2,0.7,13.8c0.4,3.1,0.9,6.2,2,9.1l0,0c1.4,3.2,3.3,6.5,5.9,9l0,0c1.5,1.4,3.1,2.7,4.8,3.9c1.2,0.8,2.4,1.6,3.6,2.3
		c0.7,0.4,1.4,0.8,2.1,1.2c0.7,0.4,1.6,1.2,2.4,1.2c0.7,0,1.5-0.7,2.1-1c0.7-0.4,1.4-0.8,2.1-1.3c1.2-0.7,2.4-1.5,3.6-2.3
		c1.8-1.2,3.5-2.5,5-4C65.3,69.4,67.3,66.1,68.7,62.9C68.7,62.9,68.7,62.9,68.7,62.9L68.7,62.9L68.7,62.9z"/>
	<path d="M81.7,76c-0.4-0.9-1.4-1.6-2.1-2.3c-1.6-1.6-3.2-3.1-4.8-4.7c-1.4-1.4-2.8-2.8-4.3-4.2c-1.5,3.2-3.5,6.5-6.1,8.9
		c1.6,1.7,3.2,3.4,4.9,5.1c1.2,1.3,2.5,2.6,3.7,3.9c0.8,0.8,1.9,1,2.9,1.4c2.8,1,5.5,2,8.3,3c0.8,0.3,1.9-0.7,1.5-1.5
		C84.5,82.4,83.1,79.2,81.7,76L81.7,76L81.7,76z"/>
</g>
</svg>
