<?xml version="1.0" encoding="utf-8"?>
<!-- Generator: Adobe Illustrator 19.1.0, SVG Export Plug-In . SVG Version: 6.00 Build 0)  -->
<svg version="1.1" id="Layer_1" xmlns="http://www.w3.org/2000/svg" xmlns:xlink="http://www.w3.org/1999/xlink" x="0px" y="0px"
	 width="100px" height="100px" viewBox="0 0 100 100" enable-background="new 0 0 100 100" xml:space="preserve">
<g>
	<path d="M80.9,83.3H19.1c-1.7,0-3.2-0.7-4.3-1.9C13.7,80.3,13,78.7,13,77v0v-1.5h1.5h71H87V77v0c0,1.7-0.7,3.3-1.8,4.5
		C84.1,82.6,82.6,83.3,80.9,83.3L80.9,83.3L80.9,83.3z"/>
	<path d="M47.5,60.2L47.5,60.2L47.5,60.2z M72,30.4L72,30.4L72,30.4z M20.4,58.5c0,12.3,5.2,12.2,22.8,12.1c2.3,0,4.7,0,5.7,0
		c1.1,0,3.8,0,6.2,0c18.6,0.1,22.3,0.1,22.3-12.1c0-3.1-0.6-6.1-1.7-8.9c-1.1-2.8-3-5.6-5.1-7.8c-2.6,9-6.2,20.3-16.2,20.2
		c-0.4,0-0.8,0-1.2-0.1c-0.4,0-0.9-0.1-1.2-0.2v0c-0.4-0.1-0.8-0.2-1.2-0.3c-0.4-0.1-0.9-0.3-1.2-0.4l0,0c-0.3-0.1-0.6-0.2-0.8-0.3
		c-0.3-0.1-0.6-0.3-0.8-0.4l0,0c-0.2-0.1-0.2-0.1-0.3-0.1v0c-0.1,0-0.2-0.1-0.2-0.1c-0.3-0.2-0.6-0.4-1-0.6l0,0
		c-0.3-0.2-0.6-0.4-0.9-0.7l1.8-2.5c0.3,0.2,0.5,0.4,0.7,0.5v0c0.2,0.1,0.5,0.3,0.8,0.5l0,0l0.2,0.1l0,0l0.2,0.1l0,0
		c0.3,0.1,0.5,0.2,0.7,0.3c0.2,0.1,0.5,0.2,0.7,0.3h0c0.3,0.1,0.6,0.2,1,0.3c0.3,0.1,0.6,0.2,0.9,0.2h0c0.4,0.1,0.7,0.1,1,0.1
		c0.3,0,0.7,0.1,1,0.1c8.2,0.1,11.3-10.7,13.6-19c1.2-4.3,2.3-8,3.9-9.7l0,0c1-1,2.5-2.2,4.3-3c1.4-0.6,2.9-0.9,4.7-0.8l0.1,0
		c0.3,0,0.6-0.1,0.9-0.2c0.3-0.1,0.5-0.3,0.7-0.5c0.5-0.5,0.7-1.1,0.7-1.7c0-0.6-0.2-1.3-0.7-1.7c-0.3-0.3-0.7-0.5-1.1-0.6
		c-0.4-0.1-0.9-0.1-1.3,0.1l-2.9,1.1l1-3c0.2-0.4,0.2-0.9,0.1-1.4c-0.1-0.4-0.3-0.8-0.6-1.2c-0.2-0.2-0.5-0.4-0.8-0.5
		c-0.3-0.1-0.6-0.2-0.9-0.2v0h0v0c-0.3,0-0.6,0.1-0.9,0.2c-0.3,0.1-0.5,0.3-0.8,0.5v0c-0.2,0.2-0.4,0.5-0.5,0.8
		c-0.1,0.3-0.2,0.7-0.1,1h0c0.1,1.8-0.2,3.4-0.8,4.9c-0.7,1.9-1.9,3.4-2.8,4.4l0,0c-4,4.1-11.4,5.6-17.1,6.8
		c-3.1,0.6-5.7,1.2-6.4,1.8l-0.4,0.3c-0.7,0.3-1.4,0.2-1.9-0.2c-0.4-0.2-0.7-0.6-0.8-1c-0.2-0.4-0.2-0.8-0.2-1.3
		c0-0.5,0.2-1.1,0.6-1.7c-6,1-11.4,3.7-15.4,7.5C23.5,45.2,20.4,51.6,20.4,58.5L20.4,58.5L20.4,58.5z"/>
</g>
</svg>
