<?xml version="1.0" encoding="utf-8"?>
<!-- Generator: Adobe Illustrator 19.1.0, SVG Export Plug-In . SVG Version: 6.00 Build 0)  -->
<svg version="1.1" id="Layer_1" xmlns="http://www.w3.org/2000/svg" xmlns:xlink="http://www.w3.org/1999/xlink" x="0px" y="0px"
	 width="100px" height="100px" viewBox="0 0 100 100" enable-background="new 0 0 100 100" xml:space="preserve">
<g>
	<path d="M19,75.3L8.2,37.8L77.4,18l10.8,37.5L19,75.3z M10.7,39.2l9.6,33.6l65.4-18.7L76,20.4L10.7,39.2z"/>
	<g>
		<path d="M18.8,56.8c-0.6-2.2-0.5-4.2,0.4-5.8c0.9-1.6,2.5-2.7,4.7-3.4c2.3-0.7,4.2-0.5,5.8,0.3c1.6,0.9,2.7,2.4,3.3,4.6
			c0.5,1.6,0.6,3,0.3,4.2c-0.2,1.2-0.8,2.2-1.7,3.1c-0.9,0.9-2.1,1.5-3.6,2c-1.6,0.4-2.9,0.6-4.1,0.4c-1.2-0.2-2.2-0.7-3.1-1.6
			C20,59.7,19.3,58.4,18.8,56.8z M23.1,55.6c0.4,1.4,0.9,2.3,1.6,2.8c0.7,0.5,1.5,0.6,2.4,0.3c0.9-0.3,1.5-0.8,1.9-1.5
			c0.3-0.7,0.3-1.9-0.2-3.4c-0.4-1.3-0.9-2.2-1.6-2.6c-0.7-0.4-1.5-0.5-2.4-0.3c-0.9,0.2-1.5,0.7-1.8,1.5
			C22.6,53.1,22.7,54.2,23.1,55.6z"/>
		<path d="M33.4,45.2l7.1-2c1.5-0.4,2.8-0.4,3.8,0.1c1,0.5,1.7,1.4,2,2.8c0.4,1.4,0.3,2.6-0.3,3.6c-0.6,1-1.8,1.8-3.5,2.3l-2.3,0.7
			l1.5,5.1L37.3,59L33.4,45.2z M39.3,49.8l1-0.3c0.8-0.2,1.4-0.5,1.6-0.9c0.2-0.4,0.3-0.8,0.2-1.2c-0.1-0.4-0.4-0.8-0.7-1
			c-0.4-0.2-1-0.2-1.8,0l-1.2,0.3L39.3,49.8z"/>
		<path d="M47.3,41.2l11.4-3.3l0.8,2.9l-7.1,2l0.6,2.2l6.6-1.9l0.8,2.8l-6.6,1.9l0.8,2.7l7.3-2.1l0.9,3.1L51.2,55L47.3,41.2z"/>
		<path d="M61.2,37.2l4-1.1l7.4,6.1l-2.2-7.6l4-1.1l3.9,13.8l-4,1.1L67,42.3l2.2,7.6l-4,1.1L61.2,37.2z"/>
	</g>
	<polygon points="29.1,33.4 27.2,32.6 36.9,9.3 58.4,23.3 57.3,25 37.9,12.3 	"/>
	<path d="M22.4,83.6h1.1l-2.1,6c-0.1,0.4-0.3,0.8-0.3,1.3h0c-0.1-0.4-0.2-0.9-0.3-1.3l-1.8-6h0.9V82h-4.2v1.5h1l0.5,1.5l-1.6,4.5
		c-0.1,0.4-0.3,0.8-0.3,1.3h0c-0.1-0.4-0.2-0.9-0.3-1.3l-2.1-6h0.9V82H9.6v1.5h0.8l3.5,9h2.4l1.8-4.9h0l1.7,4.9h2.3l3.5-9h0.8V82
		h-4.1V83.6L22.4,83.6z M34.5,86.5h-4.3v-2.9h0.9V82h-4.1v1.5H28V91h-0.9v1.5h4.1V91h-0.9v-2.9h4.3V91h-0.9v1.5h4.1V91h-0.9v-7.4
		h0.9V82h-4.1v1.5h0.9V86.5L34.5,86.5z M39.7,91h-0.9v1.5h4.1V91h-0.9v-7.4h0.9V82h-4.1v1.5h0.9V91L39.7,91z M49.8,84.9h2v-2.5
		c-0.9-0.3-2.2-0.6-3.4-0.6c-3,0-4.1,1.5-4.1,3.1c0,1.6,0.7,2.5,2.9,3l1.2,0.3c1.4,0.4,1.7,0.8,1.7,1.3c0,0.8-0.6,1.4-1.9,1.4
		c-0.6,0-1.2,0-1.8-0.3v-1.4h-2.2v2.8c1.4,0.5,2.6,0.6,3.8,0.6c3,0,4.3-1.5,4.3-3.4c0-2.2-1.7-2.7-3.3-3.1l-1.3-0.3
		c-0.7-0.2-1.2-0.4-1.2-1.2c0-0.6,0.5-1.3,1.9-1.3c0.5,0,1,0.1,1.4,0.3V84.9L49.8,84.9z M61.1,85h1.8l-0.1-3h-9.6l-0.1,3H55l0.1-1.4
		H57V91H56v1.5h4.1V91h-0.9v-7.4H61L61.1,85L61.1,85z M69.6,91H67v-7.4H68V82h-4.1v1.5h0.9V91h-0.9v1.5h7.5l0.1-3.4h-1.8L69.6,91
		L69.6,91z M78.1,91h-2.6v-3.1h2.6v-1.6h-2.6v-2.8h2.6l0.1,1.6H80L79.9,82h-7.7v1.5h1.1V91h-0.9v1.5h7.5l0.1-3.3h-1.8L78.1,91
		L78.1,91z M82.2,91h-0.9v1.5h4.1V91h-0.9v-2.8h0.5c0.4,0,0.7,0.2,0.9,0.5l1.3,2.2c0.8,1.4,1.2,1.6,1.8,1.6h1.7V91h-0.4
		c-0.3,0-0.5-0.1-0.9-0.7l-0.9-1.6c-0.5-0.9-0.8-1.1-1.3-1.1v0c1.2,0,2.5-1.2,2.5-2.7c0-1.1-0.5-2-1.4-2.5c-0.6-0.3-1-0.4-2.2-0.4
		h-4.6v1.5h1V91L82.2,91z M84.4,83.6h1c1.3,0,1.8,0.5,1.8,1.5c0,1-0.5,1.5-1.7,1.5h-1.1V83.6L84.4,83.6z"/>
</g>
</svg>
